G75*
%MOIN*%
%OFA0B0*%
%FSLAX25Y25*%
%IPPOS*%
%LPD*%
%AMOC8*
5,1,8,0,0,1.08239X$1,22.5*
%
%ADD10C,0.06800*%
%ADD11OC8,0.06800*%
%ADD12C,0.06000*%
%ADD13OC8,0.07400*%
%ADD14C,0.07400*%
%ADD15C,0.13800*%
%ADD16OC8,0.06000*%
%ADD17C,0.08674*%
%ADD18C,0.13398*%
%ADD19C,0.07493*%
D10*
X0098118Y0119156D02*
X0104118Y0119156D01*
X0104118Y0129156D02*
X0098118Y0129156D01*
X0098118Y0139156D02*
X0104118Y0139156D01*
X0089118Y0184156D02*
X0083118Y0184156D01*
X0083118Y0194156D02*
X0089118Y0194156D01*
D11*
X0126118Y0119156D03*
X0086118Y0089156D03*
X0191118Y0119156D03*
D12*
X0171118Y0119156D03*
X0171118Y0129156D03*
X0171118Y0139156D03*
X0171118Y0149156D03*
X0141118Y0149156D03*
X0141118Y0139156D03*
X0141118Y0129156D03*
X0141118Y0119156D03*
D13*
X0196118Y0189156D03*
X0196118Y0199156D03*
D14*
X0237818Y0174156D02*
X0244418Y0174156D01*
X0244418Y0164156D02*
X0237818Y0164156D01*
X0237818Y0154156D02*
X0244418Y0154156D01*
D15*
X0310118Y0164156D03*
D16*
X0191118Y0104156D03*
X0151118Y0104156D03*
X0141118Y0104156D03*
X0101118Y0104156D03*
X0136118Y0199156D03*
X0176118Y0199156D03*
D17*
X0221079Y0064156D03*
X0091157Y0064156D03*
D18*
X0071866Y0049904D03*
X0237220Y0049904D03*
X0237220Y0215259D03*
X0071866Y0215259D03*
D19*
X0236512Y0101046D03*
X0236512Y0087266D03*
M02*
