G75*
%MOIN*%
%OFA0B0*%
%FSLAX25Y25*%
%IPPOS*%
%LPD*%
%AMOC8*
5,1,8,0,0,1.08239X$1,22.5*
%
%ADD10C,0.06000*%
%ADD11OC8,0.06000*%
%ADD12C,0.05200*%
%ADD13OC8,0.06600*%
%ADD14C,0.06600*%
%ADD15OC8,0.05200*%
%ADD16C,0.07874*%
%ADD17C,0.06693*%
%ADD18C,0.01600*%
%ADD19C,0.05000*%
D10*
X0098118Y0119156D02*
X0104118Y0119156D01*
X0104118Y0129156D02*
X0098118Y0129156D01*
X0098118Y0139156D02*
X0104118Y0139156D01*
X0089118Y0184156D02*
X0083118Y0184156D01*
X0083118Y0194156D02*
X0089118Y0194156D01*
D11*
X0126118Y0119156D03*
X0086118Y0089156D03*
X0191118Y0119156D03*
D12*
X0171118Y0119156D03*
X0171118Y0129156D03*
X0171118Y0139156D03*
X0171118Y0149156D03*
X0141118Y0149156D03*
X0141118Y0139156D03*
X0141118Y0129156D03*
X0141118Y0119156D03*
D13*
X0196118Y0189156D03*
X0196118Y0199156D03*
D14*
X0237818Y0174156D02*
X0244418Y0174156D01*
X0244418Y0164156D02*
X0237818Y0164156D01*
X0237818Y0154156D02*
X0244418Y0154156D01*
D15*
X0191118Y0104156D03*
X0151118Y0104156D03*
X0141118Y0104156D03*
X0101118Y0104156D03*
X0136118Y0199156D03*
X0176118Y0199156D03*
D16*
X0221079Y0064156D03*
X0091157Y0064156D03*
D17*
X0236512Y0087266D03*
X0236512Y0101046D03*
D18*
X0076803Y0061490D02*
X0075723Y0061893D01*
X0075688Y0061948D01*
X0075420Y0062006D01*
X0075163Y0062102D01*
X0075104Y0062075D01*
X0073977Y0062320D01*
X0073935Y0062369D01*
X0073661Y0062389D01*
X0073393Y0062447D01*
X0073339Y0062412D01*
X0072221Y0062492D01*
X0072198Y0062515D01*
X0071895Y0062515D01*
X0071593Y0062537D01*
X0071568Y0062515D01*
X0061118Y0062515D01*
X0061118Y0202648D01*
X0071568Y0202648D01*
X0071593Y0202626D01*
X0071895Y0202648D01*
X0072198Y0202648D01*
X0072221Y0202671D01*
X0073339Y0202751D01*
X0073393Y0202716D01*
X0073661Y0202774D01*
X0073935Y0202793D01*
X0073977Y0202843D01*
X0075104Y0203088D01*
X0075163Y0203061D01*
X0075420Y0203156D01*
X0075688Y0203215D01*
X0075723Y0203269D01*
X0076803Y0203672D01*
X0076865Y0203654D01*
X0077106Y0203785D01*
X0077363Y0203881D01*
X0077390Y0203940D01*
X0078401Y0204493D01*
X0078466Y0204483D01*
X0078685Y0204648D01*
X0078926Y0204779D01*
X0078944Y0204842D01*
X0079867Y0205532D01*
X0079932Y0205532D01*
X0080126Y0205726D01*
X0080345Y0205890D01*
X0080355Y0205955D01*
X0081170Y0206770D01*
X0081234Y0206779D01*
X0081398Y0206999D01*
X0081592Y0207193D01*
X0081592Y0207258D01*
X0082283Y0208180D01*
X0082346Y0208199D01*
X0082477Y0208439D01*
X0082641Y0208659D01*
X0082632Y0208723D01*
X0083184Y0209735D01*
X0083244Y0209762D01*
X0083339Y0210019D01*
X0083471Y0210259D01*
X0083452Y0210322D01*
X0083855Y0211402D01*
X0083910Y0211437D01*
X0083968Y0211705D01*
X0084064Y0211962D01*
X0084037Y0212021D01*
X0084282Y0213147D01*
X0084331Y0213190D01*
X0084351Y0213464D01*
X0084409Y0213731D01*
X0084374Y0213786D01*
X0084454Y0214904D01*
X0084477Y0214927D01*
X0084477Y0215230D01*
X0084499Y0215532D01*
X0084477Y0215557D01*
X0084477Y0224156D01*
X0224609Y0224156D01*
X0224609Y0215557D01*
X0224588Y0215532D01*
X0224609Y0215230D01*
X0224609Y0214927D01*
X0224633Y0214904D01*
X0224713Y0213786D01*
X0224678Y0213731D01*
X0224736Y0213464D01*
X0224755Y0213190D01*
X0224805Y0213147D01*
X0225050Y0212021D01*
X0225023Y0211962D01*
X0225118Y0211705D01*
X0225177Y0211437D01*
X0225231Y0211402D01*
X0225634Y0210322D01*
X0225616Y0210259D01*
X0225747Y0210019D01*
X0225843Y0209762D01*
X0225902Y0209735D01*
X0226455Y0208723D01*
X0226445Y0208659D01*
X0226610Y0208439D01*
X0226741Y0208199D01*
X0226804Y0208180D01*
X0227494Y0207258D01*
X0227494Y0207193D01*
X0227688Y0206999D01*
X0227852Y0206779D01*
X0227917Y0206770D01*
X0228732Y0205955D01*
X0228741Y0205890D01*
X0228961Y0205726D01*
X0229155Y0205532D01*
X0229220Y0205532D01*
X0230142Y0204842D01*
X0230161Y0204779D01*
X0230401Y0204648D01*
X0230621Y0204483D01*
X0230685Y0204493D01*
X0231697Y0203940D01*
X0231724Y0203881D01*
X0231981Y0203785D01*
X0232221Y0203654D01*
X0232284Y0203672D01*
X0233364Y0203269D01*
X0233399Y0203215D01*
X0233667Y0203156D01*
X0233924Y0203061D01*
X0233983Y0203088D01*
X0235109Y0202843D01*
X0235152Y0202793D01*
X0235425Y0202774D01*
X0235693Y0202716D01*
X0235748Y0202751D01*
X0236866Y0202671D01*
X0236889Y0202648D01*
X0237192Y0202648D01*
X0237494Y0202626D01*
X0237519Y0202648D01*
X0246118Y0202648D01*
X0246118Y0178756D01*
X0245393Y0179056D01*
X0236843Y0179056D01*
X0235042Y0178310D01*
X0233664Y0176932D01*
X0232918Y0175131D01*
X0232918Y0173181D01*
X0233664Y0171381D01*
X0235042Y0170002D01*
X0236843Y0169256D01*
X0245393Y0169256D01*
X0246118Y0169557D01*
X0246118Y0168756D01*
X0245393Y0169056D01*
X0236843Y0169056D01*
X0235042Y0168310D01*
X0233664Y0166932D01*
X0232918Y0165131D01*
X0232918Y0163181D01*
X0233664Y0161381D01*
X0235042Y0160002D01*
X0236843Y0159256D01*
X0245393Y0159256D01*
X0246118Y0159557D01*
X0246118Y0158756D01*
X0245393Y0159056D01*
X0236843Y0159056D01*
X0235042Y0158310D01*
X0233664Y0156932D01*
X0232918Y0155131D01*
X0232918Y0153181D01*
X0233336Y0152172D01*
X0213796Y0132632D01*
X0212642Y0131479D01*
X0212018Y0129972D01*
X0212018Y0073341D01*
X0212642Y0071834D01*
X0216784Y0067692D01*
X0216385Y0067293D01*
X0215542Y0065258D01*
X0215542Y0063055D01*
X0216385Y0061020D01*
X0217942Y0059462D01*
X0219977Y0058619D01*
X0222180Y0058619D01*
X0224215Y0059462D01*
X0225773Y0061020D01*
X0226616Y0063055D01*
X0226616Y0065258D01*
X0225773Y0067293D01*
X0225179Y0067887D01*
X0225179Y0070011D01*
X0224555Y0071518D01*
X0223401Y0072671D01*
X0220218Y0075854D01*
X0220218Y0127458D01*
X0242016Y0149256D01*
X0245393Y0149256D01*
X0246118Y0149557D01*
X0246118Y0062515D01*
X0237519Y0062515D01*
X0237494Y0062537D01*
X0237192Y0062515D01*
X0236889Y0062515D01*
X0236866Y0062492D01*
X0235748Y0062412D01*
X0235693Y0062447D01*
X0235425Y0062389D01*
X0235152Y0062369D01*
X0235109Y0062320D01*
X0233983Y0062075D01*
X0233924Y0062102D01*
X0233667Y0062006D01*
X0233399Y0061948D01*
X0233364Y0061893D01*
X0232284Y0061490D01*
X0232221Y0061509D01*
X0231981Y0061377D01*
X0231724Y0061282D01*
X0231697Y0061222D01*
X0230685Y0060670D01*
X0230621Y0060679D01*
X0230401Y0060515D01*
X0230161Y0060384D01*
X0230142Y0060321D01*
X0229220Y0059630D01*
X0229155Y0059630D01*
X0228961Y0059437D01*
X0228741Y0059272D01*
X0228732Y0059208D01*
X0227917Y0058393D01*
X0227852Y0058383D01*
X0227688Y0058164D01*
X0227494Y0057970D01*
X0227494Y0057905D01*
X0226804Y0056982D01*
X0226741Y0056964D01*
X0226610Y0056723D01*
X0226445Y0056504D01*
X0226455Y0056439D01*
X0225902Y0055428D01*
X0225843Y0055401D01*
X0225747Y0055144D01*
X0225616Y0054903D01*
X0225634Y0054841D01*
X0225231Y0053761D01*
X0225177Y0053726D01*
X0225118Y0053458D01*
X0225023Y0053201D01*
X0225050Y0053142D01*
X0224805Y0052015D01*
X0224755Y0051973D01*
X0224736Y0051699D01*
X0224678Y0051431D01*
X0224713Y0051377D01*
X0224633Y0050259D01*
X0224609Y0050236D01*
X0224609Y0049933D01*
X0224588Y0049631D01*
X0224609Y0049606D01*
X0224609Y0039156D01*
X0084477Y0039156D01*
X0084477Y0049606D01*
X0084499Y0049631D01*
X0084477Y0049933D01*
X0084477Y0050236D01*
X0084454Y0050259D01*
X0084374Y0051377D01*
X0084409Y0051431D01*
X0084351Y0051699D01*
X0084331Y0051973D01*
X0084282Y0052015D01*
X0084037Y0053142D01*
X0084064Y0053201D01*
X0083968Y0053458D01*
X0083910Y0053726D01*
X0083855Y0053761D01*
X0083452Y0054841D01*
X0083471Y0054903D01*
X0083339Y0055144D01*
X0083244Y0055401D01*
X0083184Y0055428D01*
X0082632Y0056439D01*
X0082641Y0056504D01*
X0082477Y0056723D01*
X0082346Y0056964D01*
X0082283Y0056982D01*
X0081592Y0057905D01*
X0081592Y0057970D01*
X0081398Y0058164D01*
X0081234Y0058383D01*
X0081170Y0058393D01*
X0080355Y0059208D01*
X0080345Y0059272D01*
X0080126Y0059437D01*
X0079932Y0059630D01*
X0079867Y0059630D01*
X0078944Y0060321D01*
X0078926Y0060384D01*
X0078685Y0060515D01*
X0078466Y0060679D01*
X0078401Y0060670D01*
X0077390Y0061222D01*
X0077363Y0061282D01*
X0077106Y0061377D01*
X0076865Y0061509D01*
X0076803Y0061490D01*
X0078076Y0060847D02*
X0086470Y0060847D01*
X0086251Y0061149D02*
X0086782Y0060419D01*
X0087420Y0059780D01*
X0088151Y0059249D01*
X0088152Y0059249D02*
X0080349Y0059249D01*
X0081783Y0057650D02*
X0227304Y0057650D01*
X0226243Y0056052D02*
X0082844Y0056052D01*
X0083597Y0054453D02*
X0225490Y0054453D01*
X0224987Y0052855D02*
X0084099Y0052855D01*
X0084382Y0051256D02*
X0224704Y0051256D01*
X0224590Y0049658D02*
X0084497Y0049658D01*
X0084477Y0048059D02*
X0224609Y0048059D01*
X0224609Y0046461D02*
X0084477Y0046461D01*
X0084477Y0044862D02*
X0224609Y0044862D01*
X0224609Y0043264D02*
X0084477Y0043264D01*
X0084477Y0041665D02*
X0224609Y0041665D01*
X0224609Y0040067D02*
X0084477Y0040067D01*
X0089814Y0058560D02*
X0090706Y0058419D01*
X0090875Y0058419D01*
X0090875Y0063873D01*
X0091440Y0063873D01*
X0091440Y0058419D01*
X0091609Y0058419D01*
X0092501Y0058560D01*
X0093360Y0058839D01*
X0094164Y0059249D01*
X0094895Y0059780D01*
X0095533Y0060419D01*
X0096064Y0061149D01*
X0096474Y0061954D01*
X0096753Y0062813D01*
X0096894Y0063705D01*
X0096894Y0063873D01*
X0091440Y0063873D01*
X0091440Y0064439D01*
X0090875Y0064439D01*
X0090875Y0069893D01*
X0090706Y0069893D01*
X0089814Y0069752D01*
X0088955Y0069473D01*
X0088151Y0069063D01*
X0087420Y0068532D01*
X0086782Y0067894D01*
X0086251Y0067163D01*
X0085841Y0066358D01*
X0085562Y0065500D01*
X0085420Y0064608D01*
X0085420Y0064439D01*
X0090875Y0064439D01*
X0090875Y0063873D01*
X0085420Y0063873D01*
X0085420Y0063705D01*
X0085562Y0062813D01*
X0085841Y0061954D01*
X0086251Y0061149D01*
X0085681Y0062446D02*
X0073399Y0062446D01*
X0073391Y0062446D02*
X0072862Y0062446D01*
X0061118Y0064045D02*
X0090875Y0064045D01*
X0091440Y0064045D02*
X0215542Y0064045D01*
X0215701Y0065643D02*
X0096707Y0065643D01*
X0096753Y0065500D02*
X0096474Y0066358D01*
X0096064Y0067163D01*
X0095533Y0067894D01*
X0094895Y0068532D01*
X0094164Y0069063D01*
X0093360Y0069473D01*
X0092501Y0069752D01*
X0091609Y0069893D01*
X0091440Y0069893D01*
X0091440Y0064439D01*
X0096894Y0064439D01*
X0096894Y0064608D01*
X0096753Y0065500D01*
X0096007Y0067242D02*
X0216364Y0067242D01*
X0215636Y0068840D02*
X0094471Y0068840D01*
X0091440Y0068840D02*
X0090875Y0068840D01*
X0090875Y0067242D02*
X0091440Y0067242D01*
X0091440Y0065643D02*
X0090875Y0065643D01*
X0090875Y0062446D02*
X0091440Y0062446D01*
X0091440Y0060847D02*
X0090875Y0060847D01*
X0090875Y0059249D02*
X0091440Y0059249D01*
X0089814Y0058560D02*
X0088955Y0058839D01*
X0088151Y0059249D01*
X0094163Y0059249D02*
X0218457Y0059249D01*
X0216557Y0060847D02*
X0095845Y0060847D01*
X0096634Y0062446D02*
X0215794Y0062446D01*
X0214037Y0070439D02*
X0061118Y0070439D01*
X0061118Y0072037D02*
X0212558Y0072037D01*
X0212018Y0073636D02*
X0061118Y0073636D01*
X0061118Y0075234D02*
X0212018Y0075234D01*
X0212018Y0076833D02*
X0061118Y0076833D01*
X0061118Y0078431D02*
X0212018Y0078431D01*
X0212018Y0080030D02*
X0061118Y0080030D01*
X0061118Y0081628D02*
X0212018Y0081628D01*
X0212018Y0083227D02*
X0061118Y0083227D01*
X0061118Y0084825D02*
X0083661Y0084825D01*
X0084130Y0084356D02*
X0085918Y0084356D01*
X0085918Y0088956D01*
X0086318Y0088956D01*
X0086318Y0084356D01*
X0088106Y0084356D01*
X0090918Y0087168D01*
X0090918Y0088956D01*
X0086318Y0088956D01*
X0086318Y0089356D01*
X0090918Y0089356D01*
X0090918Y0091144D01*
X0088106Y0093956D01*
X0086318Y0093956D01*
X0086318Y0089356D01*
X0085918Y0089356D01*
X0085918Y0088956D01*
X0081318Y0088956D01*
X0081318Y0087168D01*
X0084130Y0084356D01*
X0085918Y0084825D02*
X0086318Y0084825D01*
X0086318Y0086424D02*
X0085918Y0086424D01*
X0085918Y0088022D02*
X0086318Y0088022D01*
X0085918Y0089356D02*
X0081318Y0089356D01*
X0081318Y0091144D01*
X0084130Y0093956D01*
X0085918Y0093956D01*
X0085918Y0089356D01*
X0085918Y0089621D02*
X0086318Y0089621D01*
X0086318Y0091219D02*
X0085918Y0091219D01*
X0085918Y0092818D02*
X0086318Y0092818D01*
X0089245Y0092818D02*
X0212018Y0092818D01*
X0212018Y0094416D02*
X0061118Y0094416D01*
X0061118Y0092818D02*
X0082991Y0092818D01*
X0081393Y0091219D02*
X0061118Y0091219D01*
X0061118Y0089621D02*
X0081318Y0089621D01*
X0081318Y0088022D02*
X0061118Y0088022D01*
X0061118Y0086424D02*
X0082062Y0086424D01*
X0088575Y0084825D02*
X0212018Y0084825D01*
X0212018Y0086424D02*
X0090174Y0086424D01*
X0090918Y0088022D02*
X0212018Y0088022D01*
X0212018Y0089621D02*
X0090918Y0089621D01*
X0090843Y0091219D02*
X0212018Y0091219D01*
X0212018Y0096015D02*
X0061118Y0096015D01*
X0061118Y0097613D02*
X0212018Y0097613D01*
X0212018Y0099212D02*
X0061118Y0099212D01*
X0061118Y0100810D02*
X0098241Y0100810D01*
X0099296Y0099756D02*
X0096718Y0102334D01*
X0096718Y0104156D01*
X0101118Y0104156D01*
X0101118Y0104156D01*
X0101118Y0099756D01*
X0099296Y0099756D01*
X0101118Y0099756D02*
X0102941Y0099756D01*
X0105518Y0102334D01*
X0105518Y0104156D01*
X0101118Y0104156D01*
X0101118Y0104156D01*
X0101118Y0099756D01*
X0101118Y0100810D02*
X0101118Y0100810D01*
X0101118Y0102409D02*
X0101118Y0102409D01*
X0101118Y0104007D02*
X0101118Y0104007D01*
X0101118Y0104156D02*
X0101118Y0104156D01*
X0096718Y0104156D01*
X0096718Y0105979D01*
X0099296Y0108556D01*
X0101118Y0108556D01*
X0101118Y0104156D01*
X0101118Y0104156D01*
X0105518Y0104156D01*
X0105518Y0105979D01*
X0102941Y0108556D01*
X0101118Y0108556D01*
X0101118Y0104156D01*
X0101118Y0105606D02*
X0101118Y0105606D01*
X0101118Y0107204D02*
X0101118Y0107204D01*
X0097944Y0107204D02*
X0061118Y0107204D01*
X0061118Y0105606D02*
X0096718Y0105606D01*
X0096718Y0104007D02*
X0061118Y0104007D01*
X0061118Y0102409D02*
X0096718Y0102409D01*
X0103995Y0100810D02*
X0138524Y0100810D01*
X0139378Y0099956D02*
X0142858Y0099956D01*
X0145318Y0102416D01*
X0145318Y0105896D01*
X0142858Y0108356D01*
X0139378Y0108356D01*
X0136918Y0105896D01*
X0136918Y0102416D01*
X0139378Y0099956D01*
X0136926Y0102409D02*
X0105518Y0102409D01*
X0105518Y0104007D02*
X0136918Y0104007D01*
X0136918Y0105606D02*
X0105518Y0105606D01*
X0104292Y0107204D02*
X0138227Y0107204D01*
X0144010Y0107204D02*
X0148227Y0107204D01*
X0149378Y0108356D02*
X0146918Y0105896D01*
X0146918Y0102416D01*
X0149378Y0099956D01*
X0152858Y0099956D01*
X0155318Y0102416D01*
X0155318Y0105896D01*
X0152858Y0108356D01*
X0149378Y0108356D01*
X0146918Y0105606D02*
X0145318Y0105606D01*
X0145318Y0104007D02*
X0146918Y0104007D01*
X0146926Y0102409D02*
X0145310Y0102409D01*
X0143712Y0100810D02*
X0148524Y0100810D01*
X0153712Y0100810D02*
X0188524Y0100810D01*
X0189378Y0099956D02*
X0187578Y0101756D01*
X0185641Y0101756D01*
X0184759Y0102122D01*
X0184083Y0102797D01*
X0180124Y0106756D01*
X0165641Y0106756D01*
X0164759Y0107122D01*
X0164083Y0107797D01*
X0164083Y0107797D01*
X0159083Y0112797D01*
X0158718Y0113679D01*
X0158718Y0118162D01*
X0141924Y0134956D01*
X0140283Y0134956D01*
X0138739Y0135596D01*
X0137558Y0136777D01*
X0136918Y0138321D01*
X0136918Y0139992D01*
X0137558Y0141535D01*
X0138739Y0142717D01*
X0140283Y0143356D01*
X0141954Y0143356D01*
X0143497Y0142717D01*
X0144679Y0141535D01*
X0145318Y0139992D01*
X0145318Y0138350D01*
X0162478Y0121191D01*
X0162478Y0121191D01*
X0163153Y0120516D01*
X0163518Y0119634D01*
X0163518Y0115150D01*
X0167112Y0111556D01*
X0181595Y0111556D01*
X0182478Y0111191D01*
X0187112Y0106556D01*
X0187578Y0106556D01*
X0189378Y0108356D01*
X0192858Y0108356D01*
X0195318Y0105896D01*
X0195318Y0102416D01*
X0192858Y0099956D01*
X0189378Y0099956D01*
X0184471Y0102409D02*
X0155310Y0102409D01*
X0155318Y0104007D02*
X0182873Y0104007D01*
X0181274Y0105606D02*
X0155318Y0105606D01*
X0154010Y0107204D02*
X0164676Y0107204D01*
X0163077Y0108803D02*
X0061118Y0108803D01*
X0061118Y0110401D02*
X0161479Y0110401D01*
X0159880Y0112000D02*
X0061118Y0112000D01*
X0061118Y0113598D02*
X0158751Y0113598D01*
X0158718Y0115197D02*
X0143039Y0115197D01*
X0142807Y0115079D02*
X0143424Y0115393D01*
X0143985Y0115800D01*
X0144474Y0116290D01*
X0144881Y0116850D01*
X0145196Y0117467D01*
X0145410Y0118126D01*
X0145518Y0118810D01*
X0145518Y0119156D01*
X0141118Y0119156D01*
X0141118Y0119156D01*
X0141118Y0114756D01*
X0140772Y0114756D01*
X0140088Y0114865D01*
X0139429Y0115079D01*
X0138812Y0115393D01*
X0138252Y0115800D01*
X0137762Y0116290D01*
X0137355Y0116850D01*
X0137040Y0117467D01*
X0136826Y0118126D01*
X0136718Y0118810D01*
X0136718Y0119156D01*
X0141118Y0119156D01*
X0141118Y0119156D01*
X0141118Y0114756D01*
X0141464Y0114756D01*
X0142148Y0114865D01*
X0142807Y0115079D01*
X0141118Y0115197D02*
X0141118Y0115197D01*
X0141118Y0116795D02*
X0141118Y0116795D01*
X0141118Y0118394D02*
X0141118Y0118394D01*
X0141118Y0119156D02*
X0141118Y0119156D01*
X0136718Y0119156D01*
X0136718Y0119502D01*
X0136826Y0120186D01*
X0137040Y0120845D01*
X0137355Y0121462D01*
X0137762Y0122023D01*
X0138252Y0122512D01*
X0138812Y0122919D01*
X0139429Y0123234D01*
X0140088Y0123448D01*
X0140772Y0123556D01*
X0141118Y0123556D01*
X0141118Y0119156D01*
X0141118Y0119156D01*
X0145518Y0119156D01*
X0145518Y0119502D01*
X0145410Y0120186D01*
X0145196Y0120845D01*
X0144881Y0121462D01*
X0144474Y0122023D01*
X0143985Y0122512D01*
X0143424Y0122919D01*
X0142807Y0123234D01*
X0142148Y0123448D01*
X0141464Y0123556D01*
X0141118Y0123556D01*
X0141118Y0119156D01*
X0141118Y0119992D02*
X0141118Y0119992D01*
X0141118Y0121591D02*
X0141118Y0121591D01*
X0141118Y0123189D02*
X0141118Y0123189D01*
X0139342Y0123189D02*
X0128590Y0123189D01*
X0128023Y0123756D02*
X0130718Y0121062D01*
X0130718Y0117251D01*
X0128023Y0114556D01*
X0124213Y0114556D01*
X0121518Y0117251D01*
X0121518Y0121062D01*
X0124213Y0123756D01*
X0128023Y0123756D01*
X0130189Y0121591D02*
X0137448Y0121591D01*
X0136796Y0119992D02*
X0130718Y0119992D01*
X0130718Y0118394D02*
X0136784Y0118394D01*
X0137395Y0116795D02*
X0130263Y0116795D01*
X0128664Y0115197D02*
X0139197Y0115197D01*
X0144842Y0116795D02*
X0158718Y0116795D01*
X0158486Y0118394D02*
X0145452Y0118394D01*
X0145441Y0119992D02*
X0156888Y0119992D01*
X0155289Y0121591D02*
X0144788Y0121591D01*
X0142894Y0123189D02*
X0153691Y0123189D01*
X0152092Y0124788D02*
X0105593Y0124788D01*
X0105033Y0124556D02*
X0106724Y0125256D01*
X0108018Y0126550D01*
X0108718Y0128241D01*
X0108718Y0130071D01*
X0108018Y0131762D01*
X0106724Y0133056D01*
X0105033Y0133756D01*
X0097203Y0133756D01*
X0095512Y0133056D01*
X0094218Y0131762D01*
X0093518Y0130071D01*
X0093518Y0128241D01*
X0094218Y0126550D01*
X0095512Y0125256D01*
X0097203Y0124556D01*
X0105033Y0124556D01*
X0105242Y0123838D02*
X0104496Y0123956D01*
X0101318Y0123956D01*
X0101318Y0119356D01*
X0108918Y0119356D01*
X0108918Y0119534D01*
X0108800Y0120280D01*
X0108566Y0120999D01*
X0108223Y0121672D01*
X0107779Y0122283D01*
X0107245Y0122817D01*
X0106634Y0123261D01*
X0105961Y0123604D01*
X0105242Y0123838D01*
X0106733Y0123189D02*
X0123646Y0123189D01*
X0122047Y0121591D02*
X0108265Y0121591D01*
X0108845Y0119992D02*
X0121518Y0119992D01*
X0121518Y0118394D02*
X0108857Y0118394D01*
X0108800Y0118032D02*
X0108918Y0118778D01*
X0108918Y0118956D01*
X0101318Y0118956D01*
X0101318Y0114356D01*
X0104496Y0114356D01*
X0105242Y0114474D01*
X0105961Y0114708D01*
X0106634Y0115051D01*
X0107245Y0115495D01*
X0107779Y0116029D01*
X0108223Y0116640D01*
X0108566Y0117314D01*
X0108800Y0118032D01*
X0108302Y0116795D02*
X0121973Y0116795D01*
X0123572Y0115197D02*
X0106835Y0115197D01*
X0101318Y0115197D02*
X0100918Y0115197D01*
X0100918Y0114356D02*
X0100918Y0118956D01*
X0101318Y0118956D01*
X0101318Y0119356D01*
X0100918Y0119356D01*
X0100918Y0118956D01*
X0093318Y0118956D01*
X0093318Y0118778D01*
X0093436Y0118032D01*
X0093670Y0117314D01*
X0094013Y0116640D01*
X0094457Y0116029D01*
X0094991Y0115495D01*
X0095602Y0115051D01*
X0096276Y0114708D01*
X0096994Y0114474D01*
X0097740Y0114356D01*
X0100918Y0114356D01*
X0100918Y0116795D02*
X0101318Y0116795D01*
X0101318Y0118394D02*
X0100918Y0118394D01*
X0100918Y0119356D02*
X0093318Y0119356D01*
X0093318Y0119534D01*
X0093436Y0120280D01*
X0093670Y0120999D01*
X0094013Y0121672D01*
X0094457Y0122283D01*
X0094991Y0122817D01*
X0095602Y0123261D01*
X0096276Y0123604D01*
X0096994Y0123838D01*
X0097740Y0123956D01*
X0100918Y0123956D01*
X0100918Y0119356D01*
X0100918Y0119992D02*
X0101318Y0119992D01*
X0101318Y0121591D02*
X0100918Y0121591D01*
X0100918Y0123189D02*
X0101318Y0123189D01*
X0096644Y0124788D02*
X0061118Y0124788D01*
X0061118Y0126386D02*
X0094382Y0126386D01*
X0093624Y0127985D02*
X0061118Y0127985D01*
X0061118Y0129583D02*
X0093518Y0129583D01*
X0093978Y0131182D02*
X0061118Y0131182D01*
X0061118Y0132780D02*
X0095237Y0132780D01*
X0095512Y0135256D02*
X0097203Y0134556D01*
X0105033Y0134556D01*
X0106724Y0135256D01*
X0108018Y0136550D01*
X0108718Y0138241D01*
X0108718Y0140071D01*
X0108018Y0141762D01*
X0106724Y0143056D01*
X0105033Y0143756D01*
X0097203Y0143756D01*
X0095512Y0143056D01*
X0094218Y0141762D01*
X0093518Y0140071D01*
X0093518Y0138241D01*
X0094218Y0136550D01*
X0095512Y0135256D01*
X0094791Y0135978D02*
X0061118Y0135978D01*
X0061118Y0137576D02*
X0093794Y0137576D01*
X0093518Y0139175D02*
X0061118Y0139175D01*
X0061118Y0140773D02*
X0093809Y0140773D01*
X0094828Y0142372D02*
X0061118Y0142372D01*
X0061118Y0143970D02*
X0225134Y0143970D01*
X0226732Y0145569D02*
X0173432Y0145569D01*
X0173497Y0145596D02*
X0174679Y0146777D01*
X0175318Y0148321D01*
X0175318Y0149992D01*
X0174679Y0151535D01*
X0173497Y0152717D01*
X0171954Y0153356D01*
X0170283Y0153356D01*
X0168739Y0152717D01*
X0167558Y0151535D01*
X0166918Y0149992D01*
X0166918Y0148321D01*
X0167558Y0146777D01*
X0168739Y0145596D01*
X0170283Y0144956D01*
X0171954Y0144956D01*
X0173497Y0145596D01*
X0174840Y0147167D02*
X0228331Y0147167D01*
X0229929Y0148766D02*
X0175318Y0148766D01*
X0175164Y0150364D02*
X0231528Y0150364D01*
X0233126Y0151963D02*
X0174251Y0151963D01*
X0167985Y0151963D02*
X0144251Y0151963D01*
X0144679Y0151535D02*
X0143497Y0152717D01*
X0141954Y0153356D01*
X0140283Y0153356D01*
X0138739Y0152717D01*
X0137558Y0151535D01*
X0136918Y0149992D01*
X0136918Y0148321D01*
X0137558Y0146777D01*
X0138739Y0145596D01*
X0140283Y0144956D01*
X0141954Y0144956D01*
X0143497Y0145596D01*
X0144679Y0146777D01*
X0145318Y0148321D01*
X0145318Y0149992D01*
X0144679Y0151535D01*
X0145164Y0150364D02*
X0167072Y0150364D01*
X0166918Y0148766D02*
X0145318Y0148766D01*
X0144840Y0147167D02*
X0167396Y0147167D01*
X0168804Y0145569D02*
X0143432Y0145569D01*
X0143842Y0142372D02*
X0168394Y0142372D01*
X0168739Y0142717D02*
X0167558Y0141535D01*
X0166918Y0139992D01*
X0166918Y0138321D01*
X0167558Y0136777D01*
X0168739Y0135596D01*
X0170283Y0134956D01*
X0171954Y0134956D01*
X0173497Y0135596D01*
X0174679Y0136777D01*
X0175318Y0138321D01*
X0175318Y0139992D01*
X0174679Y0141535D01*
X0173497Y0142717D01*
X0171954Y0143356D01*
X0170283Y0143356D01*
X0168739Y0142717D01*
X0167242Y0140773D02*
X0144994Y0140773D01*
X0145318Y0139175D02*
X0166918Y0139175D01*
X0167227Y0137576D02*
X0146092Y0137576D01*
X0147691Y0135978D02*
X0168357Y0135978D01*
X0168893Y0132780D02*
X0150888Y0132780D01*
X0152486Y0131182D02*
X0167411Y0131182D01*
X0167558Y0131535D02*
X0166918Y0129992D01*
X0166918Y0128321D01*
X0167558Y0126777D01*
X0168739Y0125596D01*
X0170283Y0124956D01*
X0171954Y0124956D01*
X0173497Y0125596D01*
X0174679Y0126777D01*
X0175318Y0128321D01*
X0175318Y0129992D01*
X0174679Y0131535D01*
X0173497Y0132717D01*
X0171954Y0133356D01*
X0170283Y0133356D01*
X0168739Y0132717D01*
X0167558Y0131535D01*
X0166918Y0129583D02*
X0154085Y0129583D01*
X0155683Y0127985D02*
X0167057Y0127985D01*
X0167948Y0126386D02*
X0157282Y0126386D01*
X0158880Y0124788D02*
X0212018Y0124788D01*
X0212018Y0126386D02*
X0174288Y0126386D01*
X0175179Y0127985D02*
X0212018Y0127985D01*
X0212018Y0129583D02*
X0175318Y0129583D01*
X0174825Y0131182D02*
X0212519Y0131182D01*
X0213944Y0132780D02*
X0173343Y0132780D01*
X0173879Y0135978D02*
X0217141Y0135978D01*
X0218740Y0137576D02*
X0175010Y0137576D01*
X0175318Y0139175D02*
X0220338Y0139175D01*
X0221937Y0140773D02*
X0174994Y0140773D01*
X0173842Y0142372D02*
X0223535Y0142372D01*
X0230336Y0137576D02*
X0246118Y0137576D01*
X0246118Y0135978D02*
X0228738Y0135978D01*
X0227139Y0134379D02*
X0246118Y0134379D01*
X0246118Y0132780D02*
X0225541Y0132780D01*
X0223942Y0131182D02*
X0246118Y0131182D01*
X0246118Y0129583D02*
X0222344Y0129583D01*
X0220745Y0127985D02*
X0246118Y0127985D01*
X0246118Y0126386D02*
X0220218Y0126386D01*
X0220218Y0124788D02*
X0246118Y0124788D01*
X0246118Y0123189D02*
X0220218Y0123189D01*
X0220218Y0121591D02*
X0246118Y0121591D01*
X0246118Y0119992D02*
X0220218Y0119992D01*
X0220218Y0118394D02*
X0246118Y0118394D01*
X0246118Y0116795D02*
X0220218Y0116795D01*
X0220218Y0115197D02*
X0246118Y0115197D01*
X0246118Y0113598D02*
X0220218Y0113598D01*
X0220218Y0112000D02*
X0246118Y0112000D01*
X0246118Y0110401D02*
X0220218Y0110401D01*
X0220218Y0108803D02*
X0246118Y0108803D01*
X0246118Y0107204D02*
X0220218Y0107204D01*
X0220218Y0105606D02*
X0234595Y0105606D01*
X0233710Y0105239D02*
X0235528Y0105992D01*
X0237496Y0105992D01*
X0239314Y0105239D01*
X0240705Y0103848D01*
X0241458Y0102030D01*
X0241458Y0100062D01*
X0240705Y0098244D01*
X0239314Y0096853D01*
X0237496Y0096099D01*
X0235528Y0096099D01*
X0233710Y0096853D01*
X0232318Y0098244D01*
X0231565Y0100062D01*
X0231565Y0102030D01*
X0232318Y0103848D01*
X0233710Y0105239D01*
X0232478Y0104007D02*
X0220218Y0104007D01*
X0220218Y0102409D02*
X0231722Y0102409D01*
X0231565Y0100810D02*
X0220218Y0100810D01*
X0220218Y0099212D02*
X0231918Y0099212D01*
X0232949Y0097613D02*
X0220218Y0097613D01*
X0220218Y0096015D02*
X0246118Y0096015D01*
X0246118Y0097613D02*
X0240074Y0097613D01*
X0241106Y0099212D02*
X0246118Y0099212D01*
X0246118Y0100810D02*
X0241458Y0100810D01*
X0241301Y0102409D02*
X0246118Y0102409D01*
X0246118Y0104007D02*
X0240546Y0104007D01*
X0238429Y0105606D02*
X0246118Y0105606D01*
X0246118Y0094416D02*
X0220218Y0094416D01*
X0220218Y0092818D02*
X0246118Y0092818D01*
X0246118Y0091219D02*
X0239827Y0091219D01*
X0239864Y0091192D02*
X0239209Y0091668D01*
X0238487Y0092036D01*
X0237717Y0092286D01*
X0236917Y0092413D01*
X0236794Y0092413D01*
X0236794Y0087549D01*
X0236229Y0087549D01*
X0236229Y0086984D01*
X0231365Y0086984D01*
X0231365Y0086861D01*
X0231492Y0086061D01*
X0231742Y0085291D01*
X0232110Y0084569D01*
X0232586Y0083914D01*
X0233159Y0083341D01*
X0233814Y0082865D01*
X0234536Y0082497D01*
X0235307Y0082247D01*
X0236107Y0082120D01*
X0236229Y0082120D01*
X0236229Y0086984D01*
X0236794Y0086984D01*
X0236794Y0082120D01*
X0236917Y0082120D01*
X0237717Y0082247D01*
X0238487Y0082497D01*
X0239209Y0082865D01*
X0239864Y0083341D01*
X0240437Y0083914D01*
X0240913Y0084569D01*
X0241281Y0085291D01*
X0241532Y0086061D01*
X0241658Y0086861D01*
X0241658Y0086984D01*
X0236795Y0086984D01*
X0236795Y0087549D01*
X0241658Y0087549D01*
X0241658Y0087671D01*
X0241532Y0088472D01*
X0241281Y0089242D01*
X0240913Y0089964D01*
X0240437Y0090619D01*
X0239864Y0091192D01*
X0241088Y0089621D02*
X0246118Y0089621D01*
X0246118Y0088022D02*
X0241603Y0088022D01*
X0241589Y0086424D02*
X0246118Y0086424D01*
X0246118Y0084825D02*
X0241044Y0084825D01*
X0239707Y0083227D02*
X0246118Y0083227D01*
X0246118Y0081628D02*
X0220218Y0081628D01*
X0220218Y0080030D02*
X0246118Y0080030D01*
X0246118Y0078431D02*
X0220218Y0078431D01*
X0220218Y0076833D02*
X0246118Y0076833D01*
X0246118Y0075234D02*
X0220838Y0075234D01*
X0222437Y0073636D02*
X0246118Y0073636D01*
X0246118Y0072037D02*
X0224035Y0072037D01*
X0225002Y0070439D02*
X0246118Y0070439D01*
X0246118Y0068840D02*
X0225179Y0068840D01*
X0225794Y0067242D02*
X0246118Y0067242D01*
X0246118Y0065643D02*
X0226456Y0065643D01*
X0226616Y0064045D02*
X0246118Y0064045D01*
X0236224Y0062446D02*
X0235695Y0062446D01*
X0235688Y0062446D02*
X0226364Y0062446D01*
X0225601Y0060847D02*
X0231010Y0060847D01*
X0228738Y0059249D02*
X0223701Y0059249D01*
X0220218Y0083227D02*
X0233316Y0083227D01*
X0231980Y0084825D02*
X0220218Y0084825D01*
X0220218Y0086424D02*
X0231435Y0086424D01*
X0231365Y0087549D02*
X0236229Y0087549D01*
X0236229Y0092413D01*
X0236107Y0092413D01*
X0235307Y0092286D01*
X0234536Y0092036D01*
X0233814Y0091668D01*
X0233159Y0091192D01*
X0232586Y0090619D01*
X0232110Y0089964D01*
X0231742Y0089242D01*
X0231492Y0088472D01*
X0231365Y0087671D01*
X0231365Y0087549D01*
X0231421Y0088022D02*
X0220218Y0088022D01*
X0220218Y0089621D02*
X0231935Y0089621D01*
X0233197Y0091219D02*
X0220218Y0091219D01*
X0212018Y0100810D02*
X0193712Y0100810D01*
X0195310Y0102409D02*
X0212018Y0102409D01*
X0212018Y0104007D02*
X0195318Y0104007D01*
X0195318Y0105606D02*
X0212018Y0105606D01*
X0212018Y0107204D02*
X0194010Y0107204D01*
X0191118Y0104156D02*
X0186118Y0104156D01*
X0181118Y0109156D01*
X0166118Y0109156D01*
X0161118Y0114156D01*
X0161118Y0119156D01*
X0141118Y0139156D01*
X0138394Y0142372D02*
X0107408Y0142372D01*
X0108427Y0140773D02*
X0137242Y0140773D01*
X0136918Y0139175D02*
X0108718Y0139175D01*
X0108443Y0137576D02*
X0137227Y0137576D01*
X0138357Y0135978D02*
X0107445Y0135978D01*
X0106999Y0132780D02*
X0138893Y0132780D01*
X0138739Y0132717D02*
X0137558Y0131535D01*
X0136918Y0129992D01*
X0136918Y0128321D01*
X0137558Y0126777D01*
X0138739Y0125596D01*
X0140283Y0124956D01*
X0141954Y0124956D01*
X0143497Y0125596D01*
X0144679Y0126777D01*
X0145318Y0128321D01*
X0145318Y0129992D01*
X0144679Y0131535D01*
X0143497Y0132717D01*
X0141954Y0133356D01*
X0140283Y0133356D01*
X0138739Y0132717D01*
X0137411Y0131182D02*
X0108258Y0131182D01*
X0108718Y0129583D02*
X0136918Y0129583D01*
X0137057Y0127985D02*
X0108612Y0127985D01*
X0107854Y0126386D02*
X0137948Y0126386D01*
X0144288Y0126386D02*
X0150494Y0126386D01*
X0148895Y0127985D02*
X0145179Y0127985D01*
X0145318Y0129583D02*
X0147297Y0129583D01*
X0145698Y0131182D02*
X0144825Y0131182D01*
X0144100Y0132780D02*
X0143343Y0132780D01*
X0142501Y0134379D02*
X0061118Y0134379D01*
X0061118Y0145569D02*
X0138804Y0145569D01*
X0137396Y0147167D02*
X0061118Y0147167D01*
X0061118Y0148766D02*
X0136918Y0148766D01*
X0137072Y0150364D02*
X0061118Y0150364D01*
X0061118Y0151963D02*
X0137985Y0151963D01*
X0149289Y0134379D02*
X0215543Y0134379D01*
X0212018Y0123189D02*
X0193590Y0123189D01*
X0193023Y0123756D02*
X0195718Y0121062D01*
X0195718Y0117251D01*
X0193023Y0114556D01*
X0189213Y0114556D01*
X0186518Y0117251D01*
X0186518Y0121062D01*
X0189213Y0123756D01*
X0193023Y0123756D01*
X0195189Y0121591D02*
X0212018Y0121591D01*
X0212018Y0119992D02*
X0195718Y0119992D01*
X0195718Y0118394D02*
X0212018Y0118394D01*
X0212018Y0116795D02*
X0195263Y0116795D01*
X0193664Y0115197D02*
X0212018Y0115197D01*
X0212018Y0113598D02*
X0165070Y0113598D01*
X0163518Y0115197D02*
X0169702Y0115197D01*
X0170283Y0114956D02*
X0171954Y0114956D01*
X0173497Y0115596D01*
X0174679Y0116777D01*
X0175318Y0118321D01*
X0175318Y0119992D01*
X0174679Y0121535D01*
X0173497Y0122717D01*
X0171954Y0123356D01*
X0170283Y0123356D01*
X0168739Y0122717D01*
X0167558Y0121535D01*
X0166918Y0119992D01*
X0166918Y0118321D01*
X0167558Y0116777D01*
X0168739Y0115596D01*
X0170283Y0114956D01*
X0172535Y0115197D02*
X0188572Y0115197D01*
X0186973Y0116795D02*
X0174686Y0116795D01*
X0175318Y0118394D02*
X0186518Y0118394D01*
X0186518Y0119992D02*
X0175318Y0119992D01*
X0174623Y0121591D02*
X0187047Y0121591D01*
X0188646Y0123189D02*
X0172356Y0123189D01*
X0169880Y0123189D02*
X0160479Y0123189D01*
X0162077Y0121591D02*
X0167613Y0121591D01*
X0166918Y0119992D02*
X0163369Y0119992D01*
X0163518Y0118394D02*
X0166918Y0118394D01*
X0167550Y0116795D02*
X0163518Y0116795D01*
X0166669Y0112000D02*
X0212018Y0112000D01*
X0212018Y0110401D02*
X0183267Y0110401D01*
X0184866Y0108803D02*
X0212018Y0108803D01*
X0188227Y0107204D02*
X0186464Y0107204D01*
X0231935Y0139175D02*
X0246118Y0139175D01*
X0246118Y0140773D02*
X0233533Y0140773D01*
X0235132Y0142372D02*
X0246118Y0142372D01*
X0246118Y0143970D02*
X0236730Y0143970D01*
X0238329Y0145569D02*
X0246118Y0145569D01*
X0246118Y0147167D02*
X0239927Y0147167D01*
X0241526Y0148766D02*
X0246118Y0148766D01*
X0232918Y0153561D02*
X0061118Y0153561D01*
X0061118Y0155160D02*
X0232930Y0155160D01*
X0233592Y0156758D02*
X0061118Y0156758D01*
X0061118Y0158357D02*
X0235155Y0158357D01*
X0235156Y0159955D02*
X0061118Y0159955D01*
X0061118Y0161554D02*
X0233592Y0161554D01*
X0232930Y0163152D02*
X0061118Y0163152D01*
X0061118Y0164751D02*
X0232918Y0164751D01*
X0233423Y0166349D02*
X0061118Y0166349D01*
X0061118Y0167948D02*
X0234680Y0167948D01*
X0236143Y0169546D02*
X0061118Y0169546D01*
X0061118Y0171145D02*
X0233900Y0171145D01*
X0233100Y0172743D02*
X0061118Y0172743D01*
X0061118Y0174342D02*
X0232918Y0174342D01*
X0233253Y0175940D02*
X0061118Y0175940D01*
X0061118Y0177539D02*
X0234271Y0177539D01*
X0246118Y0179137D02*
X0061118Y0179137D01*
X0061118Y0180736D02*
X0079750Y0180736D01*
X0079991Y0180495D02*
X0080602Y0180051D01*
X0081276Y0179708D01*
X0081994Y0179474D01*
X0082740Y0179356D01*
X0085918Y0179356D01*
X0085918Y0183956D01*
X0086318Y0183956D01*
X0086318Y0179356D01*
X0089496Y0179356D01*
X0090242Y0179474D01*
X0090961Y0179708D01*
X0091634Y0180051D01*
X0092245Y0180495D01*
X0092779Y0181029D01*
X0093223Y0181640D01*
X0093566Y0182314D01*
X0093800Y0183032D01*
X0093918Y0183778D01*
X0093918Y0183956D01*
X0086318Y0183956D01*
X0086318Y0184356D01*
X0093918Y0184356D01*
X0093918Y0184534D01*
X0093800Y0185280D01*
X0093566Y0185999D01*
X0093223Y0186672D01*
X0092779Y0187283D01*
X0092245Y0187817D01*
X0091634Y0188261D01*
X0090961Y0188604D01*
X0090242Y0188838D01*
X0089496Y0188956D01*
X0086318Y0188956D01*
X0086318Y0184356D01*
X0085918Y0184356D01*
X0085918Y0183956D01*
X0078318Y0183956D01*
X0078318Y0183778D01*
X0078436Y0183032D01*
X0078670Y0182314D01*
X0079013Y0181640D01*
X0079457Y0181029D01*
X0079991Y0180495D01*
X0078663Y0182334D02*
X0061118Y0182334D01*
X0061118Y0183933D02*
X0078318Y0183933D01*
X0078318Y0184356D02*
X0085918Y0184356D01*
X0085918Y0188956D01*
X0082740Y0188956D01*
X0081994Y0188838D01*
X0081276Y0188604D01*
X0080602Y0188261D01*
X0079991Y0187817D01*
X0079457Y0187283D01*
X0079013Y0186672D01*
X0078670Y0185999D01*
X0078436Y0185280D01*
X0078318Y0184534D01*
X0078318Y0184356D01*
X0078518Y0185531D02*
X0061118Y0185531D01*
X0061118Y0187130D02*
X0079346Y0187130D01*
X0081657Y0188728D02*
X0061118Y0188728D01*
X0061118Y0190327D02*
X0080442Y0190327D01*
X0080512Y0190256D02*
X0082203Y0189556D01*
X0090033Y0189556D01*
X0091724Y0190256D01*
X0093018Y0191550D01*
X0093718Y0193241D01*
X0093718Y0195071D01*
X0093018Y0196762D01*
X0091724Y0198056D01*
X0090033Y0198756D01*
X0082203Y0198756D01*
X0080512Y0198056D01*
X0079218Y0196762D01*
X0078518Y0195071D01*
X0078518Y0193241D01*
X0079218Y0191550D01*
X0080512Y0190256D01*
X0079063Y0191925D02*
X0061118Y0191925D01*
X0061118Y0193524D02*
X0078518Y0193524D01*
X0078539Y0195122D02*
X0061118Y0195122D01*
X0061118Y0196721D02*
X0079201Y0196721D01*
X0081149Y0198319D02*
X0061118Y0198319D01*
X0061118Y0199918D02*
X0131718Y0199918D01*
X0131718Y0199156D02*
X0136118Y0199156D01*
X0136118Y0199156D01*
X0136118Y0194756D01*
X0134296Y0194756D01*
X0131718Y0197334D01*
X0131718Y0199156D01*
X0136118Y0199156D01*
X0136118Y0199156D01*
X0136118Y0194756D01*
X0137941Y0194756D01*
X0140518Y0197334D01*
X0140518Y0199156D01*
X0136118Y0199156D01*
X0136118Y0199156D01*
X0136118Y0203556D01*
X0134296Y0203556D01*
X0131718Y0200979D01*
X0131718Y0199156D01*
X0131718Y0198319D02*
X0091087Y0198319D01*
X0093035Y0196721D02*
X0132331Y0196721D01*
X0133929Y0195122D02*
X0093697Y0195122D01*
X0093718Y0193524D02*
X0193556Y0193524D01*
X0194088Y0194056D02*
X0191218Y0191186D01*
X0191218Y0187127D01*
X0194088Y0184256D01*
X0198148Y0184256D01*
X0201018Y0187127D01*
X0201018Y0191186D01*
X0198148Y0194056D01*
X0194088Y0194056D01*
X0194088Y0194256D02*
X0198148Y0194256D01*
X0201018Y0197127D01*
X0201018Y0201186D01*
X0198148Y0204056D01*
X0194088Y0204056D01*
X0191218Y0201186D01*
X0191218Y0197127D01*
X0194088Y0194256D01*
X0193222Y0195122D02*
X0178024Y0195122D01*
X0177858Y0194956D02*
X0180318Y0197416D01*
X0180318Y0200896D01*
X0177858Y0203356D01*
X0174378Y0203356D01*
X0171918Y0200896D01*
X0171918Y0197416D01*
X0174378Y0194956D01*
X0177858Y0194956D01*
X0179623Y0196721D02*
X0191624Y0196721D01*
X0191218Y0198319D02*
X0180318Y0198319D01*
X0180318Y0199918D02*
X0191218Y0199918D01*
X0191549Y0201516D02*
X0179697Y0201516D01*
X0178099Y0203115D02*
X0193147Y0203115D01*
X0199089Y0203115D02*
X0233778Y0203115D01*
X0230281Y0204714D02*
X0078806Y0204714D01*
X0080712Y0206312D02*
X0228375Y0206312D01*
X0227006Y0207911D02*
X0082081Y0207911D01*
X0083061Y0209509D02*
X0226026Y0209509D01*
X0225341Y0211108D02*
X0083745Y0211108D01*
X0084186Y0212706D02*
X0224901Y0212706D01*
X0224676Y0214305D02*
X0084411Y0214305D01*
X0084477Y0215903D02*
X0224609Y0215903D01*
X0224609Y0217502D02*
X0084477Y0217502D01*
X0084477Y0219100D02*
X0224609Y0219100D01*
X0224609Y0220699D02*
X0084477Y0220699D01*
X0084477Y0222297D02*
X0224609Y0222297D01*
X0224609Y0223896D02*
X0084477Y0223896D01*
X0075309Y0203115D02*
X0133854Y0203115D01*
X0132256Y0201516D02*
X0061118Y0201516D01*
X0085918Y0188728D02*
X0086318Y0188728D01*
X0086318Y0187130D02*
X0085918Y0187130D01*
X0085918Y0185531D02*
X0086318Y0185531D01*
X0086318Y0183933D02*
X0085918Y0183933D01*
X0085918Y0182334D02*
X0086318Y0182334D01*
X0086318Y0180736D02*
X0085918Y0180736D01*
X0092486Y0180736D02*
X0246118Y0180736D01*
X0246118Y0182334D02*
X0093573Y0182334D01*
X0093918Y0183933D02*
X0246118Y0183933D01*
X0246118Y0185531D02*
X0199423Y0185531D01*
X0201018Y0187130D02*
X0246118Y0187130D01*
X0246118Y0188728D02*
X0201018Y0188728D01*
X0201018Y0190327D02*
X0246118Y0190327D01*
X0246118Y0191925D02*
X0200278Y0191925D01*
X0198680Y0193524D02*
X0246118Y0193524D01*
X0246118Y0195122D02*
X0199014Y0195122D01*
X0200613Y0196721D02*
X0246118Y0196721D01*
X0246118Y0198319D02*
X0201018Y0198319D01*
X0201018Y0199918D02*
X0246118Y0199918D01*
X0246118Y0201516D02*
X0200687Y0201516D01*
X0191958Y0191925D02*
X0093173Y0191925D01*
X0091794Y0190327D02*
X0191218Y0190327D01*
X0191218Y0188728D02*
X0090579Y0188728D01*
X0092891Y0187130D02*
X0191218Y0187130D01*
X0192813Y0185531D02*
X0093718Y0185531D01*
X0136118Y0195122D02*
X0136118Y0195122D01*
X0136118Y0196721D02*
X0136118Y0196721D01*
X0136118Y0198319D02*
X0136118Y0198319D01*
X0136118Y0199156D02*
X0140518Y0199156D01*
X0140518Y0200979D01*
X0137941Y0203556D01*
X0136118Y0203556D01*
X0136118Y0199156D01*
X0136118Y0199156D01*
X0136118Y0199918D02*
X0136118Y0199918D01*
X0136118Y0201516D02*
X0136118Y0201516D01*
X0136118Y0203115D02*
X0136118Y0203115D01*
X0138382Y0203115D02*
X0174137Y0203115D01*
X0172539Y0201516D02*
X0139980Y0201516D01*
X0140518Y0199918D02*
X0171918Y0199918D01*
X0171918Y0198319D02*
X0140518Y0198319D01*
X0139905Y0196721D02*
X0172614Y0196721D01*
X0174212Y0195122D02*
X0138307Y0195122D01*
X0095503Y0123189D02*
X0061118Y0123189D01*
X0061118Y0121591D02*
X0093972Y0121591D01*
X0093391Y0119992D02*
X0061118Y0119992D01*
X0061118Y0118394D02*
X0093379Y0118394D01*
X0093934Y0116795D02*
X0061118Y0116795D01*
X0061118Y0115197D02*
X0095401Y0115197D01*
X0087844Y0068840D02*
X0061118Y0068840D01*
X0061118Y0067242D02*
X0086308Y0067242D01*
X0085608Y0065643D02*
X0061118Y0065643D01*
X0236229Y0083227D02*
X0236794Y0083227D01*
X0236794Y0084825D02*
X0236229Y0084825D01*
X0236229Y0086424D02*
X0236794Y0086424D01*
X0236794Y0088022D02*
X0236229Y0088022D01*
X0236229Y0089621D02*
X0236794Y0089621D01*
X0236794Y0091219D02*
X0236229Y0091219D01*
X0246093Y0169546D02*
X0246118Y0169546D01*
D19*
X0241118Y0154156D02*
X0216118Y0129156D01*
X0216118Y0074156D01*
X0221079Y0069196D01*
X0221079Y0064156D01*
M02*
