G75*
%MOIN*%
%OFA0B0*%
%FSLAX25Y25*%
%IPPOS*%
%LPD*%
%AMOC8*
5,1,8,0,0,1.08239X$1,22.5*
%
%ADD10C,0.00600*%
%ADD11C,0.00500*%
%ADD12C,0.00800*%
%ADD13C,0.00100*%
%ADD14C,0.00200*%
%ADD15C,0.00700*%
%ADD16R,0.02500X0.03000*%
%ADD17R,0.11000X0.05000*%
%ADD18C,0.00000*%
%ADD19R,0.03400X0.02400*%
%ADD20R,0.07500X0.03200*%
%ADD21C,0.00400*%
D10*
X0105311Y0049688D02*
X0105311Y0078625D01*
X0207024Y0078625D01*
X0207024Y0049688D01*
X0105311Y0049688D01*
X0088618Y0084156D02*
X0083618Y0084156D01*
X0081118Y0086656D01*
X0081118Y0091656D01*
X0083618Y0094156D01*
X0088618Y0094156D01*
X0091118Y0091656D01*
X0091118Y0086656D01*
X0088618Y0084156D01*
X0109618Y0099656D02*
X0111118Y0099656D01*
X0111618Y0100156D01*
X0130618Y0100156D01*
X0131118Y0099656D01*
X0132618Y0099656D01*
X0132678Y0099658D01*
X0132739Y0099663D01*
X0132798Y0099672D01*
X0132857Y0099685D01*
X0132916Y0099701D01*
X0132973Y0099721D01*
X0133028Y0099744D01*
X0133083Y0099771D01*
X0133135Y0099800D01*
X0133186Y0099833D01*
X0133235Y0099869D01*
X0133281Y0099907D01*
X0133325Y0099949D01*
X0133367Y0099993D01*
X0133405Y0100039D01*
X0133441Y0100088D01*
X0133474Y0100139D01*
X0133503Y0100191D01*
X0133530Y0100246D01*
X0133553Y0100301D01*
X0133573Y0100358D01*
X0133589Y0100417D01*
X0133602Y0100476D01*
X0133611Y0100535D01*
X0133616Y0100596D01*
X0133618Y0100656D01*
X0133618Y0107656D01*
X0133616Y0107716D01*
X0133611Y0107777D01*
X0133602Y0107836D01*
X0133589Y0107895D01*
X0133573Y0107954D01*
X0133553Y0108011D01*
X0133530Y0108066D01*
X0133503Y0108121D01*
X0133474Y0108173D01*
X0133441Y0108224D01*
X0133405Y0108273D01*
X0133367Y0108319D01*
X0133325Y0108363D01*
X0133281Y0108405D01*
X0133235Y0108443D01*
X0133186Y0108479D01*
X0133135Y0108512D01*
X0133083Y0108541D01*
X0133028Y0108568D01*
X0132973Y0108591D01*
X0132916Y0108611D01*
X0132857Y0108627D01*
X0132798Y0108640D01*
X0132739Y0108649D01*
X0132678Y0108654D01*
X0132618Y0108656D01*
X0131118Y0108656D01*
X0130618Y0108156D01*
X0111618Y0108156D01*
X0111118Y0108656D01*
X0109618Y0108656D01*
X0109558Y0108654D01*
X0109497Y0108649D01*
X0109438Y0108640D01*
X0109379Y0108627D01*
X0109320Y0108611D01*
X0109263Y0108591D01*
X0109208Y0108568D01*
X0109153Y0108541D01*
X0109101Y0108512D01*
X0109050Y0108479D01*
X0109001Y0108443D01*
X0108955Y0108405D01*
X0108911Y0108363D01*
X0108869Y0108319D01*
X0108831Y0108273D01*
X0108795Y0108224D01*
X0108762Y0108173D01*
X0108733Y0108121D01*
X0108706Y0108066D01*
X0108683Y0108011D01*
X0108663Y0107954D01*
X0108647Y0107895D01*
X0108634Y0107836D01*
X0108625Y0107777D01*
X0108620Y0107716D01*
X0108618Y0107656D01*
X0108618Y0100656D01*
X0108620Y0100596D01*
X0108625Y0100535D01*
X0108634Y0100476D01*
X0108647Y0100417D01*
X0108663Y0100358D01*
X0108683Y0100301D01*
X0108706Y0100246D01*
X0108733Y0100191D01*
X0108762Y0100139D01*
X0108795Y0100088D01*
X0108831Y0100039D01*
X0108869Y0099993D01*
X0108911Y0099949D01*
X0108955Y0099907D01*
X0109001Y0099869D01*
X0109050Y0099833D01*
X0109101Y0099800D01*
X0109153Y0099771D01*
X0109208Y0099744D01*
X0109263Y0099721D01*
X0109320Y0099701D01*
X0109379Y0099685D01*
X0109438Y0099672D01*
X0109497Y0099663D01*
X0109558Y0099658D01*
X0109618Y0099656D01*
X0103618Y0114156D02*
X0098618Y0114156D01*
X0096118Y0116656D01*
X0096118Y0121656D01*
X0098618Y0124156D01*
X0096118Y0126656D01*
X0096118Y0131656D01*
X0098618Y0134156D01*
X0096118Y0136656D01*
X0096118Y0141656D01*
X0098618Y0144156D01*
X0103618Y0144156D01*
X0106118Y0141656D01*
X0106118Y0136656D01*
X0103618Y0134156D01*
X0106118Y0131656D01*
X0106118Y0126656D01*
X0103618Y0124156D01*
X0106118Y0121656D01*
X0106118Y0116656D01*
X0103618Y0114156D01*
X0103618Y0124156D02*
X0098618Y0124156D01*
X0098618Y0134156D02*
X0103618Y0134156D01*
X0121118Y0121656D02*
X0123618Y0124156D01*
X0128618Y0124156D01*
X0131118Y0121656D01*
X0131118Y0116656D01*
X0128618Y0114156D01*
X0123618Y0114156D01*
X0121118Y0116656D01*
X0121118Y0121656D01*
X0144618Y0114156D02*
X0167618Y0114156D01*
X0167618Y0154156D01*
X0160118Y0154156D01*
X0160116Y0154030D01*
X0160110Y0153905D01*
X0160100Y0153780D01*
X0160086Y0153655D01*
X0160069Y0153530D01*
X0160047Y0153406D01*
X0160022Y0153283D01*
X0159992Y0153161D01*
X0159959Y0153040D01*
X0159922Y0152920D01*
X0159882Y0152801D01*
X0159837Y0152684D01*
X0159789Y0152567D01*
X0159737Y0152453D01*
X0159682Y0152340D01*
X0159623Y0152229D01*
X0159561Y0152120D01*
X0159495Y0152013D01*
X0159426Y0151908D01*
X0159354Y0151805D01*
X0159279Y0151704D01*
X0159200Y0151606D01*
X0159118Y0151511D01*
X0159034Y0151418D01*
X0158946Y0151328D01*
X0158856Y0151240D01*
X0158763Y0151156D01*
X0158668Y0151074D01*
X0158570Y0150995D01*
X0158469Y0150920D01*
X0158366Y0150848D01*
X0158261Y0150779D01*
X0158154Y0150713D01*
X0158045Y0150651D01*
X0157934Y0150592D01*
X0157821Y0150537D01*
X0157707Y0150485D01*
X0157590Y0150437D01*
X0157473Y0150392D01*
X0157354Y0150352D01*
X0157234Y0150315D01*
X0157113Y0150282D01*
X0156991Y0150252D01*
X0156868Y0150227D01*
X0156744Y0150205D01*
X0156619Y0150188D01*
X0156494Y0150174D01*
X0156369Y0150164D01*
X0156244Y0150158D01*
X0156118Y0150156D01*
X0155992Y0150158D01*
X0155867Y0150164D01*
X0155742Y0150174D01*
X0155617Y0150188D01*
X0155492Y0150205D01*
X0155368Y0150227D01*
X0155245Y0150252D01*
X0155123Y0150282D01*
X0155002Y0150315D01*
X0154882Y0150352D01*
X0154763Y0150392D01*
X0154646Y0150437D01*
X0154529Y0150485D01*
X0154415Y0150537D01*
X0154302Y0150592D01*
X0154191Y0150651D01*
X0154082Y0150713D01*
X0153975Y0150779D01*
X0153870Y0150848D01*
X0153767Y0150920D01*
X0153666Y0150995D01*
X0153568Y0151074D01*
X0153473Y0151156D01*
X0153380Y0151240D01*
X0153290Y0151328D01*
X0153202Y0151418D01*
X0153118Y0151511D01*
X0153036Y0151606D01*
X0152957Y0151704D01*
X0152882Y0151805D01*
X0152810Y0151908D01*
X0152741Y0152013D01*
X0152675Y0152120D01*
X0152613Y0152229D01*
X0152554Y0152340D01*
X0152499Y0152453D01*
X0152447Y0152567D01*
X0152399Y0152684D01*
X0152354Y0152801D01*
X0152314Y0152920D01*
X0152277Y0153040D01*
X0152244Y0153161D01*
X0152214Y0153283D01*
X0152189Y0153406D01*
X0152167Y0153530D01*
X0152150Y0153655D01*
X0152136Y0153780D01*
X0152126Y0153905D01*
X0152120Y0154030D01*
X0152118Y0154156D01*
X0144618Y0154156D01*
X0144618Y0114156D01*
X0158618Y0107656D02*
X0158618Y0100656D01*
X0158620Y0100596D01*
X0158625Y0100535D01*
X0158634Y0100476D01*
X0158647Y0100417D01*
X0158663Y0100358D01*
X0158683Y0100301D01*
X0158706Y0100246D01*
X0158733Y0100191D01*
X0158762Y0100139D01*
X0158795Y0100088D01*
X0158831Y0100039D01*
X0158869Y0099993D01*
X0158911Y0099949D01*
X0158955Y0099907D01*
X0159001Y0099869D01*
X0159050Y0099833D01*
X0159101Y0099800D01*
X0159153Y0099771D01*
X0159208Y0099744D01*
X0159263Y0099721D01*
X0159320Y0099701D01*
X0159379Y0099685D01*
X0159438Y0099672D01*
X0159497Y0099663D01*
X0159558Y0099658D01*
X0159618Y0099656D01*
X0161118Y0099656D01*
X0161618Y0100156D01*
X0180618Y0100156D01*
X0181118Y0099656D01*
X0182618Y0099656D01*
X0182678Y0099658D01*
X0182739Y0099663D01*
X0182798Y0099672D01*
X0182857Y0099685D01*
X0182916Y0099701D01*
X0182973Y0099721D01*
X0183028Y0099744D01*
X0183083Y0099771D01*
X0183135Y0099800D01*
X0183186Y0099833D01*
X0183235Y0099869D01*
X0183281Y0099907D01*
X0183325Y0099949D01*
X0183367Y0099993D01*
X0183405Y0100039D01*
X0183441Y0100088D01*
X0183474Y0100139D01*
X0183503Y0100191D01*
X0183530Y0100246D01*
X0183553Y0100301D01*
X0183573Y0100358D01*
X0183589Y0100417D01*
X0183602Y0100476D01*
X0183611Y0100535D01*
X0183616Y0100596D01*
X0183618Y0100656D01*
X0183618Y0107656D01*
X0183616Y0107716D01*
X0183611Y0107777D01*
X0183602Y0107836D01*
X0183589Y0107895D01*
X0183573Y0107954D01*
X0183553Y0108011D01*
X0183530Y0108066D01*
X0183503Y0108121D01*
X0183474Y0108173D01*
X0183441Y0108224D01*
X0183405Y0108273D01*
X0183367Y0108319D01*
X0183325Y0108363D01*
X0183281Y0108405D01*
X0183235Y0108443D01*
X0183186Y0108479D01*
X0183135Y0108512D01*
X0183083Y0108541D01*
X0183028Y0108568D01*
X0182973Y0108591D01*
X0182916Y0108611D01*
X0182857Y0108627D01*
X0182798Y0108640D01*
X0182739Y0108649D01*
X0182678Y0108654D01*
X0182618Y0108656D01*
X0181118Y0108656D01*
X0180618Y0108156D01*
X0161618Y0108156D01*
X0161118Y0108656D01*
X0159618Y0108656D01*
X0159558Y0108654D01*
X0159497Y0108649D01*
X0159438Y0108640D01*
X0159379Y0108627D01*
X0159320Y0108611D01*
X0159263Y0108591D01*
X0159208Y0108568D01*
X0159153Y0108541D01*
X0159101Y0108512D01*
X0159050Y0108479D01*
X0159001Y0108443D01*
X0158955Y0108405D01*
X0158911Y0108363D01*
X0158869Y0108319D01*
X0158831Y0108273D01*
X0158795Y0108224D01*
X0158762Y0108173D01*
X0158733Y0108121D01*
X0158706Y0108066D01*
X0158683Y0108011D01*
X0158663Y0107954D01*
X0158647Y0107895D01*
X0158634Y0107836D01*
X0158625Y0107777D01*
X0158620Y0107716D01*
X0158618Y0107656D01*
X0186118Y0116656D02*
X0188618Y0114156D01*
X0193618Y0114156D01*
X0196118Y0116656D01*
X0196118Y0121656D01*
X0193618Y0124156D01*
X0188618Y0124156D01*
X0186118Y0121656D01*
X0186118Y0116656D01*
X0091118Y0181656D02*
X0088618Y0179156D01*
X0083618Y0179156D01*
X0081118Y0181656D01*
X0081118Y0186656D01*
X0083618Y0189156D01*
X0081118Y0191656D01*
X0081118Y0196656D01*
X0083618Y0199156D01*
X0088618Y0199156D01*
X0091118Y0196656D01*
X0091118Y0191656D01*
X0088618Y0189156D01*
X0091118Y0186656D01*
X0091118Y0181656D01*
X0088618Y0189156D02*
X0083618Y0189156D01*
X0091418Y0214456D02*
X0095688Y0214456D01*
X0097864Y0214456D02*
X0099999Y0214456D01*
X0098931Y0214456D02*
X0098931Y0220862D01*
X0097864Y0220862D01*
X0095688Y0220862D02*
X0091418Y0220862D01*
X0091418Y0214456D01*
X0091418Y0217659D02*
X0093553Y0217659D01*
X0102161Y0217659D02*
X0102161Y0215524D01*
X0103228Y0214456D01*
X0105363Y0214456D01*
X0106431Y0216591D02*
X0102161Y0216591D01*
X0102161Y0217659D02*
X0103228Y0218726D01*
X0105363Y0218726D01*
X0106431Y0217659D01*
X0106431Y0216591D01*
X0108606Y0215524D02*
X0109674Y0214456D01*
X0112876Y0214456D01*
X0116119Y0215524D02*
X0117187Y0214456D01*
X0116119Y0215524D02*
X0116119Y0219794D01*
X0115052Y0218726D02*
X0117187Y0218726D01*
X0119349Y0218726D02*
X0119349Y0214456D01*
X0119349Y0216591D02*
X0121484Y0218726D01*
X0122551Y0218726D01*
X0124720Y0217659D02*
X0124720Y0215524D01*
X0125787Y0214456D01*
X0127923Y0214456D01*
X0128990Y0215524D01*
X0128990Y0217659D01*
X0127923Y0218726D01*
X0125787Y0218726D01*
X0124720Y0217659D01*
X0131165Y0218726D02*
X0131165Y0214456D01*
X0135436Y0214456D02*
X0135436Y0217659D01*
X0134368Y0218726D01*
X0131165Y0218726D01*
X0137611Y0218726D02*
X0138678Y0218726D01*
X0138678Y0214456D01*
X0137611Y0214456D02*
X0139746Y0214456D01*
X0141908Y0215524D02*
X0141908Y0217659D01*
X0142975Y0218726D01*
X0146178Y0218726D01*
X0146178Y0214456D02*
X0142975Y0214456D01*
X0141908Y0215524D01*
X0138678Y0220862D02*
X0138678Y0221929D01*
X0154799Y0220862D02*
X0154799Y0214456D01*
X0159069Y0214456D01*
X0161244Y0215524D02*
X0161244Y0217659D01*
X0162312Y0218726D01*
X0164447Y0218726D01*
X0165515Y0217659D01*
X0165515Y0215524D01*
X0164447Y0214456D01*
X0162312Y0214456D01*
X0161244Y0215524D01*
X0167690Y0215524D02*
X0168757Y0216591D01*
X0171960Y0216591D01*
X0171960Y0217659D02*
X0171960Y0214456D01*
X0168757Y0214456D01*
X0167690Y0215524D01*
X0170893Y0218726D02*
X0171960Y0217659D01*
X0170893Y0218726D02*
X0168757Y0218726D01*
X0174135Y0217659D02*
X0174135Y0215524D01*
X0175203Y0214456D01*
X0178406Y0214456D01*
X0178406Y0220862D01*
X0178406Y0218726D02*
X0175203Y0218726D01*
X0174135Y0217659D01*
X0187026Y0216591D02*
X0189161Y0214456D01*
X0191297Y0216591D01*
X0191297Y0220862D01*
X0193472Y0218726D02*
X0195607Y0220862D01*
X0195607Y0214456D01*
X0193472Y0214456D02*
X0197742Y0214456D01*
X0187026Y0216591D02*
X0187026Y0220862D01*
X0167618Y0203656D02*
X0166118Y0203656D01*
X0165618Y0203156D01*
X0146618Y0203156D01*
X0146118Y0203656D01*
X0144618Y0203656D01*
X0144558Y0203654D01*
X0144497Y0203649D01*
X0144438Y0203640D01*
X0144379Y0203627D01*
X0144320Y0203611D01*
X0144263Y0203591D01*
X0144208Y0203568D01*
X0144153Y0203541D01*
X0144101Y0203512D01*
X0144050Y0203479D01*
X0144001Y0203443D01*
X0143955Y0203405D01*
X0143911Y0203363D01*
X0143869Y0203319D01*
X0143831Y0203273D01*
X0143795Y0203224D01*
X0143762Y0203173D01*
X0143733Y0203121D01*
X0143706Y0203066D01*
X0143683Y0203011D01*
X0143663Y0202954D01*
X0143647Y0202895D01*
X0143634Y0202836D01*
X0143625Y0202777D01*
X0143620Y0202716D01*
X0143618Y0202656D01*
X0143618Y0195656D01*
X0143620Y0195596D01*
X0143625Y0195535D01*
X0143634Y0195476D01*
X0143647Y0195417D01*
X0143663Y0195358D01*
X0143683Y0195301D01*
X0143706Y0195246D01*
X0143733Y0195191D01*
X0143762Y0195139D01*
X0143795Y0195088D01*
X0143831Y0195039D01*
X0143869Y0194993D01*
X0143911Y0194949D01*
X0143955Y0194907D01*
X0144001Y0194869D01*
X0144050Y0194833D01*
X0144101Y0194800D01*
X0144153Y0194771D01*
X0144208Y0194744D01*
X0144263Y0194721D01*
X0144320Y0194701D01*
X0144379Y0194685D01*
X0144438Y0194672D01*
X0144497Y0194663D01*
X0144558Y0194658D01*
X0144618Y0194656D01*
X0146118Y0194656D01*
X0146618Y0195156D01*
X0165618Y0195156D01*
X0166118Y0194656D01*
X0167618Y0194656D01*
X0167678Y0194658D01*
X0167739Y0194663D01*
X0167798Y0194672D01*
X0167857Y0194685D01*
X0167916Y0194701D01*
X0167973Y0194721D01*
X0168028Y0194744D01*
X0168083Y0194771D01*
X0168135Y0194800D01*
X0168186Y0194833D01*
X0168235Y0194869D01*
X0168281Y0194907D01*
X0168325Y0194949D01*
X0168367Y0194993D01*
X0168405Y0195039D01*
X0168441Y0195088D01*
X0168474Y0195139D01*
X0168503Y0195191D01*
X0168530Y0195246D01*
X0168553Y0195301D01*
X0168573Y0195358D01*
X0168589Y0195417D01*
X0168602Y0195476D01*
X0168611Y0195535D01*
X0168616Y0195596D01*
X0168618Y0195656D01*
X0168618Y0202656D01*
X0168616Y0202716D01*
X0168611Y0202777D01*
X0168602Y0202836D01*
X0168589Y0202895D01*
X0168573Y0202954D01*
X0168553Y0203011D01*
X0168530Y0203066D01*
X0168503Y0203121D01*
X0168474Y0203173D01*
X0168441Y0203224D01*
X0168405Y0203273D01*
X0168367Y0203319D01*
X0168325Y0203363D01*
X0168281Y0203405D01*
X0168235Y0203443D01*
X0168186Y0203479D01*
X0168135Y0203512D01*
X0168083Y0203541D01*
X0168028Y0203568D01*
X0167973Y0203591D01*
X0167916Y0203611D01*
X0167857Y0203627D01*
X0167798Y0203640D01*
X0167739Y0203649D01*
X0167678Y0203654D01*
X0167618Y0203656D01*
X0186118Y0194156D02*
X0186121Y0194401D01*
X0186130Y0194647D01*
X0186145Y0194892D01*
X0186166Y0195136D01*
X0186193Y0195380D01*
X0186226Y0195623D01*
X0186265Y0195866D01*
X0186310Y0196107D01*
X0186361Y0196347D01*
X0186418Y0196586D01*
X0186480Y0196823D01*
X0186549Y0197059D01*
X0186623Y0197293D01*
X0186703Y0197525D01*
X0186788Y0197755D01*
X0186879Y0197983D01*
X0186976Y0198208D01*
X0187078Y0198432D01*
X0187186Y0198652D01*
X0187299Y0198870D01*
X0187417Y0199085D01*
X0187541Y0199297D01*
X0187669Y0199506D01*
X0187803Y0199712D01*
X0187942Y0199914D01*
X0188086Y0200113D01*
X0188235Y0200308D01*
X0188388Y0200500D01*
X0188546Y0200688D01*
X0188708Y0200872D01*
X0188876Y0201051D01*
X0189047Y0201227D01*
X0189223Y0201398D01*
X0189402Y0201566D01*
X0189586Y0201728D01*
X0189774Y0201886D01*
X0189966Y0202039D01*
X0190161Y0202188D01*
X0190360Y0202332D01*
X0190562Y0202471D01*
X0190768Y0202605D01*
X0190977Y0202733D01*
X0191189Y0202857D01*
X0191404Y0202975D01*
X0191622Y0203088D01*
X0191842Y0203196D01*
X0192066Y0203298D01*
X0192291Y0203395D01*
X0192519Y0203486D01*
X0192749Y0203571D01*
X0192981Y0203651D01*
X0193215Y0203725D01*
X0193451Y0203794D01*
X0193688Y0203856D01*
X0193927Y0203913D01*
X0194167Y0203964D01*
X0194408Y0204009D01*
X0194651Y0204048D01*
X0194894Y0204081D01*
X0195138Y0204108D01*
X0195382Y0204129D01*
X0195627Y0204144D01*
X0195873Y0204153D01*
X0196118Y0204156D01*
X0196363Y0204153D01*
X0196609Y0204144D01*
X0196854Y0204129D01*
X0197098Y0204108D01*
X0197342Y0204081D01*
X0197585Y0204048D01*
X0197828Y0204009D01*
X0198069Y0203964D01*
X0198309Y0203913D01*
X0198548Y0203856D01*
X0198785Y0203794D01*
X0199021Y0203725D01*
X0199255Y0203651D01*
X0199487Y0203571D01*
X0199717Y0203486D01*
X0199945Y0203395D01*
X0200170Y0203298D01*
X0200394Y0203196D01*
X0200614Y0203088D01*
X0200832Y0202975D01*
X0201047Y0202857D01*
X0201259Y0202733D01*
X0201468Y0202605D01*
X0201674Y0202471D01*
X0201876Y0202332D01*
X0202075Y0202188D01*
X0202270Y0202039D01*
X0202462Y0201886D01*
X0202650Y0201728D01*
X0202834Y0201566D01*
X0203013Y0201398D01*
X0203189Y0201227D01*
X0203360Y0201051D01*
X0203528Y0200872D01*
X0203690Y0200688D01*
X0203848Y0200500D01*
X0204001Y0200308D01*
X0204150Y0200113D01*
X0204294Y0199914D01*
X0204433Y0199712D01*
X0204567Y0199506D01*
X0204695Y0199297D01*
X0204819Y0199085D01*
X0204937Y0198870D01*
X0205050Y0198652D01*
X0205158Y0198432D01*
X0205260Y0198208D01*
X0205357Y0197983D01*
X0205448Y0197755D01*
X0205533Y0197525D01*
X0205613Y0197293D01*
X0205687Y0197059D01*
X0205756Y0196823D01*
X0205818Y0196586D01*
X0205875Y0196347D01*
X0205926Y0196107D01*
X0205971Y0195866D01*
X0206010Y0195623D01*
X0206043Y0195380D01*
X0206070Y0195136D01*
X0206091Y0194892D01*
X0206106Y0194647D01*
X0206115Y0194401D01*
X0206118Y0194156D01*
X0206115Y0193911D01*
X0206106Y0193665D01*
X0206091Y0193420D01*
X0206070Y0193176D01*
X0206043Y0192932D01*
X0206010Y0192689D01*
X0205971Y0192446D01*
X0205926Y0192205D01*
X0205875Y0191965D01*
X0205818Y0191726D01*
X0205756Y0191489D01*
X0205687Y0191253D01*
X0205613Y0191019D01*
X0205533Y0190787D01*
X0205448Y0190557D01*
X0205357Y0190329D01*
X0205260Y0190104D01*
X0205158Y0189880D01*
X0205050Y0189660D01*
X0204937Y0189442D01*
X0204819Y0189227D01*
X0204695Y0189015D01*
X0204567Y0188806D01*
X0204433Y0188600D01*
X0204294Y0188398D01*
X0204150Y0188199D01*
X0204001Y0188004D01*
X0203848Y0187812D01*
X0203690Y0187624D01*
X0203528Y0187440D01*
X0203360Y0187261D01*
X0203189Y0187085D01*
X0203013Y0186914D01*
X0202834Y0186746D01*
X0202650Y0186584D01*
X0202462Y0186426D01*
X0202270Y0186273D01*
X0202075Y0186124D01*
X0201876Y0185980D01*
X0201674Y0185841D01*
X0201468Y0185707D01*
X0201259Y0185579D01*
X0201047Y0185455D01*
X0200832Y0185337D01*
X0200614Y0185224D01*
X0200394Y0185116D01*
X0200170Y0185014D01*
X0199945Y0184917D01*
X0199717Y0184826D01*
X0199487Y0184741D01*
X0199255Y0184661D01*
X0199021Y0184587D01*
X0198785Y0184518D01*
X0198548Y0184456D01*
X0198309Y0184399D01*
X0198069Y0184348D01*
X0197828Y0184303D01*
X0197585Y0184264D01*
X0197342Y0184231D01*
X0197098Y0184204D01*
X0196854Y0184183D01*
X0196609Y0184168D01*
X0196363Y0184159D01*
X0196118Y0184156D01*
X0195873Y0184159D01*
X0195627Y0184168D01*
X0195382Y0184183D01*
X0195138Y0184204D01*
X0194894Y0184231D01*
X0194651Y0184264D01*
X0194408Y0184303D01*
X0194167Y0184348D01*
X0193927Y0184399D01*
X0193688Y0184456D01*
X0193451Y0184518D01*
X0193215Y0184587D01*
X0192981Y0184661D01*
X0192749Y0184741D01*
X0192519Y0184826D01*
X0192291Y0184917D01*
X0192066Y0185014D01*
X0191842Y0185116D01*
X0191622Y0185224D01*
X0191404Y0185337D01*
X0191189Y0185455D01*
X0190977Y0185579D01*
X0190768Y0185707D01*
X0190562Y0185841D01*
X0190360Y0185980D01*
X0190161Y0186124D01*
X0189966Y0186273D01*
X0189774Y0186426D01*
X0189586Y0186584D01*
X0189402Y0186746D01*
X0189223Y0186914D01*
X0189047Y0187085D01*
X0188876Y0187261D01*
X0188708Y0187440D01*
X0188546Y0187624D01*
X0188388Y0187812D01*
X0188235Y0188004D01*
X0188086Y0188199D01*
X0187942Y0188398D01*
X0187803Y0188600D01*
X0187669Y0188806D01*
X0187541Y0189015D01*
X0187417Y0189227D01*
X0187299Y0189442D01*
X0187186Y0189660D01*
X0187078Y0189880D01*
X0186976Y0190104D01*
X0186879Y0190329D01*
X0186788Y0190557D01*
X0186703Y0190787D01*
X0186623Y0191019D01*
X0186549Y0191253D01*
X0186480Y0191489D01*
X0186418Y0191726D01*
X0186361Y0191965D01*
X0186310Y0192205D01*
X0186265Y0192446D01*
X0186226Y0192689D01*
X0186193Y0192932D01*
X0186166Y0193176D01*
X0186145Y0193420D01*
X0186130Y0193665D01*
X0186121Y0193911D01*
X0186118Y0194156D01*
X0112876Y0218726D02*
X0109674Y0218726D01*
X0108606Y0217659D01*
X0108606Y0215524D01*
D11*
X0078668Y0191317D02*
X0077167Y0189815D01*
X0077167Y0190566D02*
X0077167Y0188314D01*
X0078668Y0188314D02*
X0074164Y0188314D01*
X0074164Y0190566D01*
X0074915Y0191317D01*
X0076416Y0191317D01*
X0077167Y0190566D01*
X0078668Y0186713D02*
X0074164Y0186713D01*
X0074164Y0183710D02*
X0078668Y0183710D01*
X0077167Y0185211D01*
X0078668Y0186713D01*
X0076416Y0182109D02*
X0074915Y0182109D01*
X0074164Y0181358D01*
X0074164Y0179106D01*
X0078668Y0179106D01*
X0077167Y0179106D02*
X0077167Y0181358D01*
X0076416Y0182109D01*
X0121068Y0131110D02*
X0124071Y0131110D01*
X0122569Y0131110D02*
X0122569Y0126606D01*
X0125672Y0126606D02*
X0125672Y0131110D01*
X0127924Y0131110D01*
X0128675Y0130359D01*
X0128675Y0128858D01*
X0127924Y0128107D01*
X0125672Y0128107D01*
X0130276Y0128858D02*
X0133279Y0128858D01*
X0133279Y0129609D02*
X0133279Y0126606D01*
X0133279Y0129609D02*
X0131777Y0131110D01*
X0130276Y0129609D01*
X0130276Y0126606D01*
X0116975Y0114159D02*
X0116224Y0114910D01*
X0114723Y0114910D01*
X0113972Y0114159D01*
X0112371Y0114159D02*
X0112371Y0112658D01*
X0111620Y0111907D01*
X0109368Y0111907D01*
X0109368Y0110406D02*
X0109368Y0114910D01*
X0111620Y0114910D01*
X0112371Y0114159D01*
X0110869Y0111907D02*
X0112371Y0110406D01*
X0113972Y0110406D02*
X0116975Y0113409D01*
X0116975Y0114159D01*
X0116975Y0110406D02*
X0113972Y0110406D01*
X0093668Y0114106D02*
X0090666Y0114106D01*
X0089164Y0115607D01*
X0090666Y0117109D01*
X0093668Y0117109D01*
X0093668Y0118710D02*
X0089164Y0118710D01*
X0089164Y0120962D01*
X0089915Y0121713D01*
X0092917Y0121713D01*
X0093668Y0120962D01*
X0093668Y0118710D01*
X0091416Y0117109D02*
X0091416Y0114106D01*
X0092917Y0123314D02*
X0093668Y0124065D01*
X0093668Y0124815D01*
X0092917Y0125566D01*
X0089164Y0125566D01*
X0089164Y0124815D02*
X0089164Y0126317D01*
X0088675Y0101110D02*
X0088675Y0096606D01*
X0085672Y0101110D01*
X0085672Y0096606D01*
X0084071Y0097357D02*
X0084071Y0098858D01*
X0082569Y0098858D01*
X0081068Y0097357D02*
X0081819Y0096606D01*
X0083320Y0096606D01*
X0084071Y0097357D01*
X0081068Y0097357D02*
X0081068Y0100359D01*
X0081819Y0101110D01*
X0083320Y0101110D01*
X0084071Y0100359D01*
X0090276Y0101110D02*
X0090276Y0096606D01*
X0092528Y0096606D01*
X0093279Y0097357D01*
X0093279Y0100359D01*
X0092528Y0101110D01*
X0090276Y0101110D01*
X0144868Y0155406D02*
X0146369Y0155406D01*
X0145619Y0155406D02*
X0145619Y0159910D01*
X0146369Y0159910D02*
X0144868Y0159910D01*
X0147937Y0159159D02*
X0147937Y0156157D01*
X0148688Y0155406D01*
X0150189Y0155406D01*
X0150940Y0156157D01*
X0152541Y0155406D02*
X0155544Y0158409D01*
X0155544Y0159159D01*
X0154793Y0159910D01*
X0153292Y0159910D01*
X0152541Y0159159D01*
X0150940Y0159159D02*
X0150189Y0159910D01*
X0148688Y0159910D01*
X0147937Y0159159D01*
X0152541Y0155406D02*
X0155544Y0155406D01*
X0186068Y0131110D02*
X0189071Y0131110D01*
X0187569Y0131110D02*
X0187569Y0126606D01*
X0190672Y0126606D02*
X0190672Y0131110D01*
X0192924Y0131110D01*
X0193675Y0130359D01*
X0193675Y0128858D01*
X0192924Y0128107D01*
X0190672Y0128107D01*
X0195276Y0128858D02*
X0197528Y0128858D01*
X0198279Y0128107D01*
X0198279Y0127357D01*
X0197528Y0126606D01*
X0195276Y0126606D01*
X0195276Y0131110D01*
X0197528Y0131110D01*
X0198279Y0130359D01*
X0198279Y0129609D01*
X0197528Y0128858D01*
X0180265Y0097910D02*
X0180265Y0093406D01*
X0178764Y0093406D02*
X0181767Y0093406D01*
X0178764Y0096409D02*
X0180265Y0097910D01*
X0177163Y0097159D02*
X0177163Y0095658D01*
X0176412Y0094907D01*
X0174160Y0094907D01*
X0174160Y0093406D02*
X0174160Y0097910D01*
X0176412Y0097910D01*
X0177163Y0097159D01*
X0175662Y0094907D02*
X0177163Y0093406D01*
X0261118Y0143656D02*
X0310118Y0143656D01*
X0310118Y0147156D01*
X0316118Y0147156D01*
X0316118Y0143656D01*
X0323618Y0143656D01*
X0323618Y0184656D01*
X0316118Y0184656D01*
X0316118Y0181156D01*
X0310118Y0181156D01*
X0310118Y0184656D01*
X0261118Y0184656D01*
X0261118Y0143656D01*
X0297365Y0159100D02*
X0298500Y0160234D01*
X0300768Y0160234D01*
X0300768Y0161557D02*
X0300768Y0163825D01*
X0300768Y0162691D02*
X0297365Y0162691D01*
X0298500Y0161557D01*
X0299067Y0160234D02*
X0299067Y0157966D01*
X0298500Y0157966D02*
X0297365Y0159100D01*
X0298500Y0157966D02*
X0300768Y0157966D01*
X0300768Y0165148D02*
X0300201Y0165148D01*
X0297932Y0167416D01*
X0297365Y0167416D01*
X0297365Y0165148D01*
X0300201Y0169306D02*
X0300768Y0169306D01*
X0300768Y0169873D01*
X0300201Y0169873D01*
X0300201Y0169306D01*
X0300768Y0169873D02*
X0301902Y0168739D01*
X0300201Y0171133D02*
X0300768Y0171700D01*
X0300768Y0172834D01*
X0300201Y0173402D01*
X0299067Y0173402D01*
X0298500Y0172834D01*
X0298500Y0172267D01*
X0299067Y0171133D01*
X0297365Y0171133D01*
X0297365Y0173402D01*
X0298500Y0174724D02*
X0298500Y0175291D01*
X0299067Y0175858D01*
X0298500Y0176425D01*
X0299067Y0176993D01*
X0300768Y0176993D01*
X0300768Y0175858D02*
X0299067Y0175858D01*
X0298500Y0174724D02*
X0300768Y0174724D01*
X0300768Y0178315D02*
X0298500Y0178315D01*
X0298500Y0178882D01*
X0299067Y0179449D01*
X0298500Y0180017D01*
X0299067Y0180584D01*
X0300768Y0180584D01*
X0300768Y0179449D02*
X0299067Y0179449D01*
X0303018Y0164156D02*
X0303020Y0164330D01*
X0303027Y0164504D01*
X0303037Y0164678D01*
X0303052Y0164852D01*
X0303071Y0165025D01*
X0303095Y0165198D01*
X0303123Y0165370D01*
X0303154Y0165541D01*
X0303191Y0165712D01*
X0303231Y0165881D01*
X0303275Y0166050D01*
X0303324Y0166217D01*
X0303376Y0166383D01*
X0303433Y0166548D01*
X0303494Y0166711D01*
X0303558Y0166873D01*
X0303627Y0167033D01*
X0303700Y0167192D01*
X0303776Y0167348D01*
X0303856Y0167503D01*
X0303940Y0167656D01*
X0304028Y0167806D01*
X0304120Y0167954D01*
X0304215Y0168101D01*
X0304313Y0168244D01*
X0304415Y0168385D01*
X0304521Y0168524D01*
X0304630Y0168660D01*
X0304742Y0168794D01*
X0304857Y0168924D01*
X0304976Y0169052D01*
X0305098Y0169176D01*
X0305222Y0169298D01*
X0305350Y0169417D01*
X0305480Y0169532D01*
X0305614Y0169644D01*
X0305750Y0169753D01*
X0305889Y0169859D01*
X0306030Y0169961D01*
X0306173Y0170059D01*
X0306320Y0170154D01*
X0306468Y0170246D01*
X0306618Y0170334D01*
X0306771Y0170418D01*
X0306926Y0170498D01*
X0307082Y0170574D01*
X0307241Y0170647D01*
X0307401Y0170716D01*
X0307563Y0170780D01*
X0307726Y0170841D01*
X0307891Y0170898D01*
X0308057Y0170950D01*
X0308224Y0170999D01*
X0308393Y0171043D01*
X0308562Y0171083D01*
X0308733Y0171120D01*
X0308904Y0171151D01*
X0309076Y0171179D01*
X0309249Y0171203D01*
X0309422Y0171222D01*
X0309596Y0171237D01*
X0309770Y0171247D01*
X0309944Y0171254D01*
X0310118Y0171256D01*
X0310292Y0171254D01*
X0310466Y0171247D01*
X0310640Y0171237D01*
X0310814Y0171222D01*
X0310987Y0171203D01*
X0311160Y0171179D01*
X0311332Y0171151D01*
X0311503Y0171120D01*
X0311674Y0171083D01*
X0311843Y0171043D01*
X0312012Y0170999D01*
X0312179Y0170950D01*
X0312345Y0170898D01*
X0312510Y0170841D01*
X0312673Y0170780D01*
X0312835Y0170716D01*
X0312995Y0170647D01*
X0313154Y0170574D01*
X0313310Y0170498D01*
X0313465Y0170418D01*
X0313618Y0170334D01*
X0313768Y0170246D01*
X0313916Y0170154D01*
X0314063Y0170059D01*
X0314206Y0169961D01*
X0314347Y0169859D01*
X0314486Y0169753D01*
X0314622Y0169644D01*
X0314756Y0169532D01*
X0314886Y0169417D01*
X0315014Y0169298D01*
X0315138Y0169176D01*
X0315260Y0169052D01*
X0315379Y0168924D01*
X0315494Y0168794D01*
X0315606Y0168660D01*
X0315715Y0168524D01*
X0315821Y0168385D01*
X0315923Y0168244D01*
X0316021Y0168101D01*
X0316116Y0167954D01*
X0316208Y0167806D01*
X0316296Y0167656D01*
X0316380Y0167503D01*
X0316460Y0167348D01*
X0316536Y0167192D01*
X0316609Y0167033D01*
X0316678Y0166873D01*
X0316742Y0166711D01*
X0316803Y0166548D01*
X0316860Y0166383D01*
X0316912Y0166217D01*
X0316961Y0166050D01*
X0317005Y0165881D01*
X0317045Y0165712D01*
X0317082Y0165541D01*
X0317113Y0165370D01*
X0317141Y0165198D01*
X0317165Y0165025D01*
X0317184Y0164852D01*
X0317199Y0164678D01*
X0317209Y0164504D01*
X0317216Y0164330D01*
X0317218Y0164156D01*
X0317216Y0163982D01*
X0317209Y0163808D01*
X0317199Y0163634D01*
X0317184Y0163460D01*
X0317165Y0163287D01*
X0317141Y0163114D01*
X0317113Y0162942D01*
X0317082Y0162771D01*
X0317045Y0162600D01*
X0317005Y0162431D01*
X0316961Y0162262D01*
X0316912Y0162095D01*
X0316860Y0161929D01*
X0316803Y0161764D01*
X0316742Y0161601D01*
X0316678Y0161439D01*
X0316609Y0161279D01*
X0316536Y0161120D01*
X0316460Y0160964D01*
X0316380Y0160809D01*
X0316296Y0160656D01*
X0316208Y0160506D01*
X0316116Y0160358D01*
X0316021Y0160211D01*
X0315923Y0160068D01*
X0315821Y0159927D01*
X0315715Y0159788D01*
X0315606Y0159652D01*
X0315494Y0159518D01*
X0315379Y0159388D01*
X0315260Y0159260D01*
X0315138Y0159136D01*
X0315014Y0159014D01*
X0314886Y0158895D01*
X0314756Y0158780D01*
X0314622Y0158668D01*
X0314486Y0158559D01*
X0314347Y0158453D01*
X0314206Y0158351D01*
X0314063Y0158253D01*
X0313916Y0158158D01*
X0313768Y0158066D01*
X0313618Y0157978D01*
X0313465Y0157894D01*
X0313310Y0157814D01*
X0313154Y0157738D01*
X0312995Y0157665D01*
X0312835Y0157596D01*
X0312673Y0157532D01*
X0312510Y0157471D01*
X0312345Y0157414D01*
X0312179Y0157362D01*
X0312012Y0157313D01*
X0311843Y0157269D01*
X0311674Y0157229D01*
X0311503Y0157192D01*
X0311332Y0157161D01*
X0311160Y0157133D01*
X0310987Y0157109D01*
X0310814Y0157090D01*
X0310640Y0157075D01*
X0310466Y0157065D01*
X0310292Y0157058D01*
X0310118Y0157056D01*
X0309944Y0157058D01*
X0309770Y0157065D01*
X0309596Y0157075D01*
X0309422Y0157090D01*
X0309249Y0157109D01*
X0309076Y0157133D01*
X0308904Y0157161D01*
X0308733Y0157192D01*
X0308562Y0157229D01*
X0308393Y0157269D01*
X0308224Y0157313D01*
X0308057Y0157362D01*
X0307891Y0157414D01*
X0307726Y0157471D01*
X0307563Y0157532D01*
X0307401Y0157596D01*
X0307241Y0157665D01*
X0307082Y0157738D01*
X0306926Y0157814D01*
X0306771Y0157894D01*
X0306618Y0157978D01*
X0306468Y0158066D01*
X0306320Y0158158D01*
X0306173Y0158253D01*
X0306030Y0158351D01*
X0305889Y0158453D01*
X0305750Y0158559D01*
X0305614Y0158668D01*
X0305480Y0158780D01*
X0305350Y0158895D01*
X0305222Y0159014D01*
X0305098Y0159136D01*
X0304976Y0159260D01*
X0304857Y0159388D01*
X0304742Y0159518D01*
X0304630Y0159652D01*
X0304521Y0159788D01*
X0304415Y0159927D01*
X0304313Y0160068D01*
X0304215Y0160211D01*
X0304120Y0160358D01*
X0304028Y0160506D01*
X0303940Y0160656D01*
X0303856Y0160809D01*
X0303776Y0160964D01*
X0303700Y0161120D01*
X0303627Y0161279D01*
X0303558Y0161439D01*
X0303494Y0161601D01*
X0303433Y0161764D01*
X0303376Y0161929D01*
X0303324Y0162095D01*
X0303275Y0162262D01*
X0303231Y0162431D01*
X0303191Y0162600D01*
X0303154Y0162771D01*
X0303123Y0162942D01*
X0303095Y0163114D01*
X0303071Y0163287D01*
X0303052Y0163460D01*
X0303037Y0163634D01*
X0303027Y0163808D01*
X0303020Y0163982D01*
X0303018Y0164156D01*
X0193768Y0206906D02*
X0193768Y0209909D01*
X0193768Y0211510D02*
X0193768Y0214513D01*
X0193768Y0216114D02*
X0193768Y0218366D01*
X0193017Y0219117D01*
X0190015Y0219117D01*
X0189264Y0218366D01*
X0189264Y0216114D01*
X0193768Y0216114D01*
X0193768Y0220718D02*
X0193768Y0223720D01*
X0193768Y0222219D02*
X0189264Y0222219D01*
X0190766Y0220718D01*
X0189264Y0214513D02*
X0189264Y0211510D01*
X0193768Y0211510D01*
X0191516Y0211510D02*
X0191516Y0213011D01*
X0189264Y0206906D02*
X0193768Y0206906D01*
X0151975Y0207658D02*
X0148972Y0207658D01*
X0151224Y0209910D01*
X0151224Y0205406D01*
X0147371Y0205406D02*
X0145869Y0206907D01*
X0146620Y0206907D02*
X0144368Y0206907D01*
X0144368Y0205406D02*
X0144368Y0209910D01*
X0146620Y0209910D01*
X0147371Y0209159D01*
X0147371Y0207658D01*
X0146620Y0206907D01*
D12*
X0188618Y0204156D02*
X0203618Y0204156D01*
D13*
X0188309Y0204485D02*
X0188849Y0203765D01*
X0188848Y0203766D02*
X0188615Y0203585D01*
X0188387Y0203399D01*
X0188163Y0203207D01*
X0187944Y0203010D01*
X0187730Y0202808D01*
X0187521Y0202600D01*
X0187318Y0202387D01*
X0187119Y0202170D01*
X0186926Y0201947D01*
X0186738Y0201720D01*
X0186556Y0201489D01*
X0186379Y0201253D01*
X0186209Y0201012D01*
X0186044Y0200768D01*
X0185886Y0200520D01*
X0185733Y0200268D01*
X0185587Y0200012D01*
X0185447Y0199753D01*
X0185313Y0199490D01*
X0185186Y0199225D01*
X0185065Y0198956D01*
X0184951Y0198684D01*
X0184844Y0198410D01*
X0184743Y0198133D01*
X0184649Y0197854D01*
X0184562Y0197572D01*
X0184482Y0197289D01*
X0184409Y0197003D01*
X0184343Y0196716D01*
X0184284Y0196427D01*
X0184232Y0196137D01*
X0184187Y0195846D01*
X0184149Y0195554D01*
X0184119Y0195261D01*
X0184095Y0194967D01*
X0184079Y0194673D01*
X0184070Y0194379D01*
X0184068Y0194084D01*
X0184074Y0193789D01*
X0184086Y0193495D01*
X0184106Y0193201D01*
X0184133Y0192908D01*
X0184167Y0192615D01*
X0184208Y0192323D01*
X0184257Y0192033D01*
X0184312Y0191743D01*
X0184374Y0191456D01*
X0184444Y0191169D01*
X0184521Y0190885D01*
X0184604Y0190602D01*
X0184694Y0190322D01*
X0184791Y0190044D01*
X0184895Y0189768D01*
X0185006Y0189495D01*
X0185123Y0189225D01*
X0185247Y0188957D01*
X0185377Y0188693D01*
X0185514Y0188432D01*
X0185657Y0188175D01*
X0185807Y0187921D01*
X0185962Y0187670D01*
X0186124Y0187424D01*
X0186291Y0187182D01*
X0186465Y0186944D01*
X0186644Y0186710D01*
X0186829Y0186480D01*
X0187019Y0186256D01*
X0187215Y0186035D01*
X0187416Y0185820D01*
X0187623Y0185610D01*
X0187834Y0185405D01*
X0188051Y0185205D01*
X0188272Y0185010D01*
X0188498Y0184821D01*
X0188728Y0184638D01*
X0188963Y0184460D01*
X0189203Y0184288D01*
X0189446Y0184122D01*
X0189693Y0183962D01*
X0189944Y0183808D01*
X0190199Y0183660D01*
X0190458Y0183518D01*
X0190719Y0183383D01*
X0190984Y0183254D01*
X0191252Y0183132D01*
X0191523Y0183016D01*
X0191797Y0182907D01*
X0192073Y0182805D01*
X0192352Y0182710D01*
X0192633Y0182621D01*
X0192916Y0182539D01*
X0193201Y0182464D01*
X0193488Y0182397D01*
X0193776Y0182336D01*
X0194066Y0182282D01*
X0194357Y0182235D01*
X0194649Y0182196D01*
X0194941Y0182164D01*
X0195235Y0182138D01*
X0195529Y0182120D01*
X0195823Y0182110D01*
X0196118Y0182106D01*
X0196413Y0182110D01*
X0196707Y0182120D01*
X0197001Y0182138D01*
X0197295Y0182164D01*
X0197587Y0182196D01*
X0197879Y0182235D01*
X0198170Y0182282D01*
X0198460Y0182336D01*
X0198748Y0182397D01*
X0199035Y0182464D01*
X0199320Y0182539D01*
X0199603Y0182621D01*
X0199884Y0182710D01*
X0200163Y0182805D01*
X0200439Y0182907D01*
X0200713Y0183016D01*
X0200984Y0183132D01*
X0201252Y0183254D01*
X0201517Y0183383D01*
X0201778Y0183518D01*
X0202037Y0183660D01*
X0202292Y0183808D01*
X0202543Y0183962D01*
X0202790Y0184122D01*
X0203033Y0184288D01*
X0203273Y0184460D01*
X0203508Y0184638D01*
X0203738Y0184821D01*
X0203964Y0185010D01*
X0204185Y0185205D01*
X0204402Y0185405D01*
X0204613Y0185610D01*
X0204820Y0185820D01*
X0205021Y0186035D01*
X0205217Y0186256D01*
X0205407Y0186480D01*
X0205592Y0186710D01*
X0205771Y0186944D01*
X0205945Y0187182D01*
X0206112Y0187424D01*
X0206274Y0187670D01*
X0206429Y0187921D01*
X0206579Y0188175D01*
X0206722Y0188432D01*
X0206859Y0188693D01*
X0206989Y0188957D01*
X0207113Y0189225D01*
X0207230Y0189495D01*
X0207341Y0189768D01*
X0207445Y0190044D01*
X0207542Y0190322D01*
X0207632Y0190602D01*
X0207715Y0190885D01*
X0207792Y0191169D01*
X0207862Y0191456D01*
X0207924Y0191743D01*
X0207979Y0192033D01*
X0208028Y0192323D01*
X0208069Y0192615D01*
X0208103Y0192908D01*
X0208130Y0193201D01*
X0208150Y0193495D01*
X0208162Y0193789D01*
X0208168Y0194084D01*
X0208166Y0194379D01*
X0208157Y0194673D01*
X0208141Y0194967D01*
X0208117Y0195261D01*
X0208087Y0195554D01*
X0208049Y0195846D01*
X0208004Y0196137D01*
X0207952Y0196427D01*
X0207893Y0196716D01*
X0207827Y0197003D01*
X0207754Y0197289D01*
X0207674Y0197572D01*
X0207587Y0197854D01*
X0207493Y0198133D01*
X0207392Y0198410D01*
X0207285Y0198684D01*
X0207171Y0198956D01*
X0207050Y0199225D01*
X0206923Y0199490D01*
X0206789Y0199753D01*
X0206649Y0200012D01*
X0206503Y0200268D01*
X0206350Y0200520D01*
X0206192Y0200768D01*
X0206027Y0201012D01*
X0205857Y0201253D01*
X0205680Y0201489D01*
X0205498Y0201720D01*
X0205310Y0201947D01*
X0205117Y0202170D01*
X0204918Y0202387D01*
X0204715Y0202600D01*
X0204506Y0202808D01*
X0204292Y0203010D01*
X0204073Y0203207D01*
X0203849Y0203399D01*
X0203621Y0203585D01*
X0203388Y0203766D01*
X0203927Y0204485D01*
X0203928Y0204486D01*
X0204178Y0204292D01*
X0204424Y0204092D01*
X0204664Y0203886D01*
X0204899Y0203674D01*
X0205129Y0203456D01*
X0205354Y0203233D01*
X0205573Y0203005D01*
X0205787Y0202771D01*
X0205995Y0202532D01*
X0206197Y0202288D01*
X0206392Y0202039D01*
X0206582Y0201785D01*
X0206765Y0201527D01*
X0206942Y0201265D01*
X0207113Y0200998D01*
X0207277Y0200727D01*
X0207434Y0200452D01*
X0207585Y0200174D01*
X0207729Y0199891D01*
X0207865Y0199606D01*
X0207995Y0199317D01*
X0208118Y0199025D01*
X0208233Y0198730D01*
X0208341Y0198433D01*
X0208442Y0198132D01*
X0208536Y0197830D01*
X0208622Y0197525D01*
X0208701Y0197218D01*
X0208772Y0196910D01*
X0208835Y0196600D01*
X0208891Y0196288D01*
X0208940Y0195975D01*
X0208980Y0195661D01*
X0209013Y0195346D01*
X0209038Y0195030D01*
X0209056Y0194714D01*
X0209066Y0194398D01*
X0209068Y0194081D01*
X0209062Y0193764D01*
X0209049Y0193448D01*
X0209027Y0193132D01*
X0208999Y0192817D01*
X0208962Y0192502D01*
X0208918Y0192189D01*
X0208866Y0191876D01*
X0208806Y0191565D01*
X0208739Y0191256D01*
X0208664Y0190948D01*
X0208582Y0190642D01*
X0208493Y0190339D01*
X0208396Y0190037D01*
X0208291Y0189738D01*
X0208179Y0189442D01*
X0208061Y0189148D01*
X0207935Y0188858D01*
X0207802Y0188571D01*
X0207661Y0188286D01*
X0207514Y0188006D01*
X0207361Y0187729D01*
X0207200Y0187456D01*
X0207033Y0187187D01*
X0206859Y0186922D01*
X0206679Y0186662D01*
X0206493Y0186406D01*
X0206300Y0186155D01*
X0206102Y0185908D01*
X0205897Y0185666D01*
X0205687Y0185430D01*
X0205470Y0185198D01*
X0205248Y0184973D01*
X0205021Y0184752D01*
X0204789Y0184537D01*
X0204551Y0184328D01*
X0204308Y0184125D01*
X0204060Y0183927D01*
X0203808Y0183736D01*
X0203551Y0183551D01*
X0203289Y0183373D01*
X0203023Y0183201D01*
X0202754Y0183035D01*
X0202480Y0182876D01*
X0202202Y0182724D01*
X0201921Y0182579D01*
X0201636Y0182440D01*
X0201348Y0182309D01*
X0201056Y0182185D01*
X0200762Y0182067D01*
X0200465Y0181957D01*
X0200166Y0181855D01*
X0199864Y0181760D01*
X0199560Y0181672D01*
X0199253Y0181591D01*
X0198945Y0181518D01*
X0198635Y0181453D01*
X0198324Y0181395D01*
X0198011Y0181345D01*
X0197697Y0181303D01*
X0197383Y0181268D01*
X0197067Y0181241D01*
X0196751Y0181221D01*
X0196435Y0181210D01*
X0196118Y0181206D01*
X0195801Y0181210D01*
X0195485Y0181221D01*
X0195169Y0181241D01*
X0194853Y0181268D01*
X0194539Y0181303D01*
X0194225Y0181345D01*
X0193912Y0181395D01*
X0193601Y0181453D01*
X0193291Y0181518D01*
X0192983Y0181591D01*
X0192676Y0181672D01*
X0192372Y0181760D01*
X0192070Y0181855D01*
X0191771Y0181957D01*
X0191474Y0182067D01*
X0191180Y0182185D01*
X0190888Y0182309D01*
X0190600Y0182440D01*
X0190315Y0182579D01*
X0190034Y0182724D01*
X0189756Y0182876D01*
X0189482Y0183035D01*
X0189213Y0183201D01*
X0188947Y0183373D01*
X0188685Y0183551D01*
X0188428Y0183736D01*
X0188176Y0183927D01*
X0187928Y0184125D01*
X0187685Y0184328D01*
X0187447Y0184537D01*
X0187215Y0184752D01*
X0186988Y0184973D01*
X0186766Y0185198D01*
X0186549Y0185430D01*
X0186339Y0185666D01*
X0186134Y0185908D01*
X0185936Y0186155D01*
X0185743Y0186406D01*
X0185557Y0186662D01*
X0185377Y0186922D01*
X0185203Y0187187D01*
X0185036Y0187456D01*
X0184875Y0187729D01*
X0184722Y0188006D01*
X0184575Y0188286D01*
X0184434Y0188571D01*
X0184301Y0188858D01*
X0184175Y0189148D01*
X0184057Y0189442D01*
X0183945Y0189738D01*
X0183840Y0190037D01*
X0183743Y0190339D01*
X0183654Y0190642D01*
X0183572Y0190948D01*
X0183497Y0191256D01*
X0183430Y0191565D01*
X0183370Y0191876D01*
X0183318Y0192189D01*
X0183274Y0192502D01*
X0183237Y0192817D01*
X0183209Y0193132D01*
X0183187Y0193448D01*
X0183174Y0193764D01*
X0183168Y0194081D01*
X0183170Y0194398D01*
X0183180Y0194714D01*
X0183198Y0195030D01*
X0183223Y0195346D01*
X0183256Y0195661D01*
X0183296Y0195975D01*
X0183345Y0196288D01*
X0183401Y0196600D01*
X0183464Y0196910D01*
X0183535Y0197218D01*
X0183614Y0197525D01*
X0183700Y0197830D01*
X0183794Y0198132D01*
X0183895Y0198433D01*
X0184003Y0198730D01*
X0184118Y0199025D01*
X0184241Y0199317D01*
X0184371Y0199606D01*
X0184507Y0199891D01*
X0184651Y0200174D01*
X0184802Y0200452D01*
X0184959Y0200727D01*
X0185123Y0200998D01*
X0185294Y0201265D01*
X0185471Y0201527D01*
X0185654Y0201785D01*
X0185844Y0202039D01*
X0186039Y0202288D01*
X0186241Y0202532D01*
X0186449Y0202771D01*
X0186663Y0203005D01*
X0186882Y0203233D01*
X0187107Y0203456D01*
X0187337Y0203674D01*
X0187572Y0203886D01*
X0187812Y0204092D01*
X0188058Y0204292D01*
X0188308Y0204486D01*
X0188364Y0204411D01*
X0188116Y0204218D01*
X0187872Y0204019D01*
X0187634Y0203815D01*
X0187400Y0203605D01*
X0187172Y0203389D01*
X0186949Y0203167D01*
X0186731Y0202940D01*
X0186519Y0202708D01*
X0186313Y0202471D01*
X0186112Y0202229D01*
X0185918Y0201981D01*
X0185730Y0201730D01*
X0185548Y0201473D01*
X0185372Y0201213D01*
X0185203Y0200948D01*
X0185040Y0200679D01*
X0184884Y0200406D01*
X0184734Y0200130D01*
X0184592Y0199850D01*
X0184456Y0199566D01*
X0184327Y0199279D01*
X0184205Y0198989D01*
X0184091Y0198697D01*
X0183983Y0198401D01*
X0183883Y0198103D01*
X0183790Y0197803D01*
X0183705Y0197500D01*
X0183627Y0197196D01*
X0183556Y0196890D01*
X0183493Y0196582D01*
X0183437Y0196272D01*
X0183389Y0195962D01*
X0183349Y0195650D01*
X0183316Y0195337D01*
X0183291Y0195024D01*
X0183274Y0194710D01*
X0183264Y0194396D01*
X0183262Y0194081D01*
X0183268Y0193767D01*
X0183281Y0193453D01*
X0183302Y0193139D01*
X0183331Y0192826D01*
X0183367Y0192514D01*
X0183411Y0192203D01*
X0183463Y0191893D01*
X0183522Y0191584D01*
X0183589Y0191277D01*
X0183663Y0190971D01*
X0183744Y0190668D01*
X0183833Y0190366D01*
X0183930Y0190067D01*
X0184033Y0189770D01*
X0184144Y0189476D01*
X0184262Y0189185D01*
X0184387Y0188896D01*
X0184519Y0188611D01*
X0184658Y0188329D01*
X0184804Y0188051D01*
X0184957Y0187776D01*
X0185116Y0187505D01*
X0185282Y0187238D01*
X0185455Y0186975D01*
X0185633Y0186716D01*
X0185818Y0186462D01*
X0186010Y0186213D01*
X0186207Y0185968D01*
X0186410Y0185728D01*
X0186619Y0185493D01*
X0186834Y0185263D01*
X0187054Y0185039D01*
X0187279Y0184820D01*
X0187510Y0184607D01*
X0187746Y0184399D01*
X0187988Y0184197D01*
X0188233Y0184002D01*
X0188484Y0183812D01*
X0188739Y0183628D01*
X0188999Y0183451D01*
X0189263Y0183280D01*
X0189531Y0183116D01*
X0189803Y0182958D01*
X0190078Y0182807D01*
X0190358Y0182663D01*
X0190640Y0182525D01*
X0190926Y0182395D01*
X0191215Y0182271D01*
X0191508Y0182155D01*
X0191802Y0182046D01*
X0192100Y0181944D01*
X0192399Y0181850D01*
X0192702Y0181762D01*
X0193006Y0181682D01*
X0193311Y0181610D01*
X0193619Y0181545D01*
X0193928Y0181488D01*
X0194239Y0181438D01*
X0194550Y0181396D01*
X0194863Y0181361D01*
X0195176Y0181335D01*
X0195490Y0181315D01*
X0195804Y0181304D01*
X0196118Y0181300D01*
X0196432Y0181304D01*
X0196746Y0181315D01*
X0197060Y0181335D01*
X0197373Y0181361D01*
X0197686Y0181396D01*
X0197997Y0181438D01*
X0198308Y0181488D01*
X0198617Y0181545D01*
X0198925Y0181610D01*
X0199230Y0181682D01*
X0199534Y0181762D01*
X0199837Y0181850D01*
X0200136Y0181944D01*
X0200434Y0182046D01*
X0200728Y0182155D01*
X0201021Y0182271D01*
X0201310Y0182395D01*
X0201596Y0182525D01*
X0201878Y0182663D01*
X0202158Y0182807D01*
X0202433Y0182958D01*
X0202705Y0183116D01*
X0202973Y0183280D01*
X0203237Y0183451D01*
X0203497Y0183628D01*
X0203752Y0183812D01*
X0204003Y0184002D01*
X0204248Y0184197D01*
X0204490Y0184399D01*
X0204726Y0184607D01*
X0204957Y0184820D01*
X0205182Y0185039D01*
X0205402Y0185263D01*
X0205617Y0185493D01*
X0205826Y0185728D01*
X0206029Y0185968D01*
X0206226Y0186213D01*
X0206418Y0186462D01*
X0206603Y0186716D01*
X0206781Y0186975D01*
X0206954Y0187238D01*
X0207120Y0187505D01*
X0207279Y0187776D01*
X0207432Y0188051D01*
X0207578Y0188329D01*
X0207717Y0188611D01*
X0207849Y0188896D01*
X0207974Y0189185D01*
X0208092Y0189476D01*
X0208203Y0189770D01*
X0208306Y0190067D01*
X0208403Y0190366D01*
X0208492Y0190668D01*
X0208573Y0190971D01*
X0208647Y0191277D01*
X0208714Y0191584D01*
X0208773Y0191893D01*
X0208825Y0192203D01*
X0208869Y0192514D01*
X0208905Y0192826D01*
X0208934Y0193139D01*
X0208955Y0193453D01*
X0208968Y0193767D01*
X0208974Y0194081D01*
X0208972Y0194396D01*
X0208962Y0194710D01*
X0208945Y0195024D01*
X0208920Y0195337D01*
X0208887Y0195650D01*
X0208847Y0195962D01*
X0208799Y0196272D01*
X0208743Y0196582D01*
X0208680Y0196890D01*
X0208609Y0197196D01*
X0208531Y0197500D01*
X0208446Y0197803D01*
X0208353Y0198103D01*
X0208253Y0198401D01*
X0208145Y0198697D01*
X0208031Y0198989D01*
X0207909Y0199279D01*
X0207780Y0199566D01*
X0207644Y0199850D01*
X0207502Y0200130D01*
X0207352Y0200406D01*
X0207196Y0200679D01*
X0207033Y0200948D01*
X0206864Y0201213D01*
X0206688Y0201473D01*
X0206506Y0201730D01*
X0206318Y0201981D01*
X0206124Y0202229D01*
X0205923Y0202471D01*
X0205717Y0202708D01*
X0205505Y0202940D01*
X0205287Y0203167D01*
X0205064Y0203389D01*
X0204836Y0203605D01*
X0204602Y0203815D01*
X0204364Y0204019D01*
X0204120Y0204218D01*
X0203872Y0204411D01*
X0203815Y0204336D01*
X0204062Y0204144D01*
X0204304Y0203947D01*
X0204541Y0203744D01*
X0204772Y0203535D01*
X0204999Y0203321D01*
X0205221Y0203101D01*
X0205437Y0202876D01*
X0205647Y0202645D01*
X0205852Y0202410D01*
X0206051Y0202169D01*
X0206244Y0201924D01*
X0206430Y0201674D01*
X0206611Y0201420D01*
X0206786Y0201161D01*
X0206954Y0200898D01*
X0207115Y0200631D01*
X0207270Y0200360D01*
X0207419Y0200086D01*
X0207560Y0199808D01*
X0207695Y0199526D01*
X0207823Y0199242D01*
X0207944Y0198954D01*
X0208058Y0198663D01*
X0208164Y0198370D01*
X0208264Y0198074D01*
X0208356Y0197776D01*
X0208441Y0197476D01*
X0208518Y0197173D01*
X0208588Y0196869D01*
X0208651Y0196564D01*
X0208706Y0196257D01*
X0208754Y0195948D01*
X0208794Y0195639D01*
X0208826Y0195328D01*
X0208851Y0195017D01*
X0208868Y0194706D01*
X0208878Y0194394D01*
X0208880Y0194082D01*
X0208874Y0193770D01*
X0208861Y0193458D01*
X0208840Y0193147D01*
X0208812Y0192836D01*
X0208775Y0192526D01*
X0208732Y0192217D01*
X0208681Y0191909D01*
X0208622Y0191602D01*
X0208556Y0191298D01*
X0208482Y0190994D01*
X0208401Y0190693D01*
X0208313Y0190394D01*
X0208217Y0190097D01*
X0208114Y0189802D01*
X0208004Y0189510D01*
X0207887Y0189221D01*
X0207763Y0188934D01*
X0207632Y0188651D01*
X0207494Y0188371D01*
X0207349Y0188095D01*
X0207197Y0187822D01*
X0207039Y0187553D01*
X0206874Y0187288D01*
X0206703Y0187027D01*
X0206526Y0186771D01*
X0206342Y0186518D01*
X0206152Y0186271D01*
X0205957Y0186028D01*
X0205755Y0185789D01*
X0205547Y0185556D01*
X0205334Y0185328D01*
X0205116Y0185106D01*
X0204892Y0184888D01*
X0204663Y0184677D01*
X0204428Y0184471D01*
X0204189Y0184270D01*
X0203945Y0184076D01*
X0203696Y0183888D01*
X0203443Y0183705D01*
X0203185Y0183529D01*
X0202923Y0183360D01*
X0202657Y0183197D01*
X0202387Y0183040D01*
X0202113Y0182890D01*
X0201836Y0182747D01*
X0201556Y0182610D01*
X0201272Y0182481D01*
X0200985Y0182358D01*
X0200695Y0182243D01*
X0200402Y0182135D01*
X0200107Y0182033D01*
X0199809Y0181939D01*
X0199509Y0181853D01*
X0199208Y0181774D01*
X0198904Y0181702D01*
X0198599Y0181637D01*
X0198292Y0181580D01*
X0197984Y0181531D01*
X0197674Y0181489D01*
X0197364Y0181455D01*
X0197053Y0181428D01*
X0196742Y0181409D01*
X0196430Y0181398D01*
X0196118Y0181394D01*
X0195806Y0181398D01*
X0195494Y0181409D01*
X0195183Y0181428D01*
X0194872Y0181455D01*
X0194562Y0181489D01*
X0194252Y0181531D01*
X0193944Y0181580D01*
X0193637Y0181637D01*
X0193332Y0181702D01*
X0193028Y0181774D01*
X0192727Y0181853D01*
X0192427Y0181939D01*
X0192129Y0182033D01*
X0191834Y0182135D01*
X0191541Y0182243D01*
X0191251Y0182358D01*
X0190964Y0182481D01*
X0190680Y0182610D01*
X0190400Y0182747D01*
X0190123Y0182890D01*
X0189849Y0183040D01*
X0189579Y0183197D01*
X0189313Y0183360D01*
X0189051Y0183529D01*
X0188793Y0183705D01*
X0188540Y0183888D01*
X0188291Y0184076D01*
X0188047Y0184270D01*
X0187808Y0184471D01*
X0187573Y0184677D01*
X0187344Y0184888D01*
X0187120Y0185106D01*
X0186902Y0185328D01*
X0186689Y0185556D01*
X0186481Y0185789D01*
X0186279Y0186028D01*
X0186084Y0186271D01*
X0185894Y0186518D01*
X0185710Y0186771D01*
X0185533Y0187027D01*
X0185362Y0187288D01*
X0185197Y0187553D01*
X0185039Y0187822D01*
X0184887Y0188095D01*
X0184742Y0188371D01*
X0184604Y0188651D01*
X0184473Y0188934D01*
X0184349Y0189221D01*
X0184232Y0189510D01*
X0184122Y0189802D01*
X0184019Y0190097D01*
X0183923Y0190394D01*
X0183835Y0190693D01*
X0183754Y0190994D01*
X0183680Y0191298D01*
X0183614Y0191602D01*
X0183555Y0191909D01*
X0183504Y0192217D01*
X0183461Y0192526D01*
X0183424Y0192836D01*
X0183396Y0193147D01*
X0183375Y0193458D01*
X0183362Y0193770D01*
X0183356Y0194082D01*
X0183358Y0194394D01*
X0183368Y0194706D01*
X0183385Y0195017D01*
X0183410Y0195328D01*
X0183442Y0195639D01*
X0183482Y0195948D01*
X0183530Y0196257D01*
X0183585Y0196564D01*
X0183648Y0196869D01*
X0183718Y0197173D01*
X0183795Y0197476D01*
X0183880Y0197776D01*
X0183972Y0198074D01*
X0184072Y0198370D01*
X0184178Y0198663D01*
X0184292Y0198954D01*
X0184413Y0199242D01*
X0184541Y0199526D01*
X0184676Y0199808D01*
X0184817Y0200086D01*
X0184966Y0200360D01*
X0185121Y0200631D01*
X0185282Y0200898D01*
X0185450Y0201161D01*
X0185625Y0201420D01*
X0185806Y0201674D01*
X0185992Y0201924D01*
X0186185Y0202169D01*
X0186384Y0202410D01*
X0186589Y0202645D01*
X0186799Y0202876D01*
X0187015Y0203101D01*
X0187237Y0203321D01*
X0187464Y0203535D01*
X0187695Y0203744D01*
X0187932Y0203947D01*
X0188174Y0204144D01*
X0188421Y0204336D01*
X0188477Y0204260D01*
X0188232Y0204070D01*
X0187992Y0203875D01*
X0187757Y0203673D01*
X0187527Y0203466D01*
X0187302Y0203253D01*
X0187082Y0203035D01*
X0186868Y0202811D01*
X0186659Y0202582D01*
X0186456Y0202349D01*
X0186258Y0202110D01*
X0186067Y0201867D01*
X0185881Y0201618D01*
X0185702Y0201366D01*
X0185529Y0201109D01*
X0185362Y0200848D01*
X0185201Y0200583D01*
X0185048Y0200314D01*
X0184900Y0200042D01*
X0184760Y0199766D01*
X0184626Y0199486D01*
X0184499Y0199204D01*
X0184379Y0198918D01*
X0184266Y0198630D01*
X0184160Y0198339D01*
X0184062Y0198045D01*
X0183970Y0197749D01*
X0183886Y0197451D01*
X0183809Y0197151D01*
X0183740Y0196849D01*
X0183677Y0196546D01*
X0183623Y0196241D01*
X0183575Y0195935D01*
X0183536Y0195627D01*
X0183504Y0195319D01*
X0183479Y0195011D01*
X0183462Y0194701D01*
X0183452Y0194392D01*
X0183450Y0194082D01*
X0183456Y0193772D01*
X0183469Y0193463D01*
X0183490Y0193154D01*
X0183518Y0192845D01*
X0183554Y0192538D01*
X0183597Y0192231D01*
X0183648Y0191925D01*
X0183706Y0191621D01*
X0183772Y0191318D01*
X0183845Y0191017D01*
X0183925Y0190718D01*
X0184013Y0190421D01*
X0184108Y0190126D01*
X0184210Y0189834D01*
X0184319Y0189544D01*
X0184436Y0189257D01*
X0184559Y0188973D01*
X0184689Y0188692D01*
X0184826Y0188414D01*
X0184970Y0188140D01*
X0185120Y0187869D01*
X0185277Y0187602D01*
X0185441Y0187339D01*
X0185611Y0187080D01*
X0185787Y0186825D01*
X0185969Y0186574D01*
X0186158Y0186329D01*
X0186352Y0186087D01*
X0186552Y0185851D01*
X0186758Y0185620D01*
X0186970Y0185393D01*
X0187187Y0185172D01*
X0187409Y0184957D01*
X0187636Y0184746D01*
X0187869Y0184542D01*
X0188107Y0184343D01*
X0188349Y0184150D01*
X0188596Y0183963D01*
X0188847Y0183782D01*
X0189103Y0183608D01*
X0189363Y0183439D01*
X0189627Y0183277D01*
X0189895Y0183122D01*
X0190167Y0182973D01*
X0190442Y0182831D01*
X0190721Y0182695D01*
X0191002Y0182567D01*
X0191287Y0182445D01*
X0191575Y0182331D01*
X0191866Y0182223D01*
X0192159Y0182123D01*
X0192454Y0182029D01*
X0192752Y0181943D01*
X0193051Y0181865D01*
X0193353Y0181794D01*
X0193656Y0181730D01*
X0193960Y0181673D01*
X0194266Y0181624D01*
X0194573Y0181583D01*
X0194881Y0181549D01*
X0195190Y0181522D01*
X0195499Y0181503D01*
X0195808Y0181492D01*
X0196118Y0181488D01*
X0196428Y0181492D01*
X0196737Y0181503D01*
X0197046Y0181522D01*
X0197355Y0181549D01*
X0197663Y0181583D01*
X0197970Y0181624D01*
X0198276Y0181673D01*
X0198580Y0181730D01*
X0198883Y0181794D01*
X0199185Y0181865D01*
X0199484Y0181943D01*
X0199782Y0182029D01*
X0200077Y0182123D01*
X0200370Y0182223D01*
X0200661Y0182331D01*
X0200949Y0182445D01*
X0201234Y0182567D01*
X0201515Y0182695D01*
X0201794Y0182831D01*
X0202069Y0182973D01*
X0202341Y0183122D01*
X0202609Y0183277D01*
X0202873Y0183439D01*
X0203133Y0183608D01*
X0203389Y0183782D01*
X0203640Y0183963D01*
X0203887Y0184150D01*
X0204129Y0184343D01*
X0204367Y0184542D01*
X0204600Y0184746D01*
X0204827Y0184957D01*
X0205049Y0185172D01*
X0205266Y0185393D01*
X0205478Y0185620D01*
X0205684Y0185851D01*
X0205884Y0186087D01*
X0206078Y0186329D01*
X0206267Y0186574D01*
X0206449Y0186825D01*
X0206625Y0187080D01*
X0206795Y0187339D01*
X0206959Y0187602D01*
X0207116Y0187869D01*
X0207266Y0188140D01*
X0207410Y0188414D01*
X0207547Y0188692D01*
X0207677Y0188973D01*
X0207800Y0189257D01*
X0207917Y0189544D01*
X0208026Y0189834D01*
X0208128Y0190126D01*
X0208223Y0190421D01*
X0208311Y0190718D01*
X0208391Y0191017D01*
X0208464Y0191318D01*
X0208530Y0191621D01*
X0208588Y0191925D01*
X0208639Y0192231D01*
X0208682Y0192538D01*
X0208718Y0192845D01*
X0208746Y0193154D01*
X0208767Y0193463D01*
X0208780Y0193772D01*
X0208786Y0194082D01*
X0208784Y0194392D01*
X0208774Y0194701D01*
X0208757Y0195011D01*
X0208732Y0195319D01*
X0208700Y0195627D01*
X0208661Y0195935D01*
X0208613Y0196241D01*
X0208559Y0196546D01*
X0208496Y0196849D01*
X0208427Y0197151D01*
X0208350Y0197451D01*
X0208266Y0197749D01*
X0208174Y0198045D01*
X0208076Y0198339D01*
X0207970Y0198630D01*
X0207857Y0198918D01*
X0207737Y0199204D01*
X0207610Y0199486D01*
X0207476Y0199766D01*
X0207336Y0200042D01*
X0207188Y0200314D01*
X0207035Y0200583D01*
X0206874Y0200848D01*
X0206707Y0201109D01*
X0206534Y0201366D01*
X0206355Y0201618D01*
X0206169Y0201867D01*
X0205978Y0202110D01*
X0205780Y0202349D01*
X0205577Y0202582D01*
X0205368Y0202811D01*
X0205154Y0203035D01*
X0204934Y0203253D01*
X0204709Y0203466D01*
X0204479Y0203673D01*
X0204244Y0203875D01*
X0204004Y0204070D01*
X0203759Y0204260D01*
X0203702Y0204185D01*
X0203945Y0203997D01*
X0204184Y0203802D01*
X0204417Y0203602D01*
X0204645Y0203397D01*
X0204869Y0203185D01*
X0205087Y0202969D01*
X0205300Y0202747D01*
X0205507Y0202520D01*
X0205709Y0202288D01*
X0205905Y0202051D01*
X0206095Y0201809D01*
X0206279Y0201563D01*
X0206457Y0201312D01*
X0206629Y0201057D01*
X0206794Y0200798D01*
X0206954Y0200535D01*
X0207106Y0200268D01*
X0207253Y0199998D01*
X0207392Y0199724D01*
X0207525Y0199447D01*
X0207651Y0199166D01*
X0207770Y0198883D01*
X0207882Y0198596D01*
X0207987Y0198307D01*
X0208085Y0198016D01*
X0208176Y0197722D01*
X0208259Y0197426D01*
X0208336Y0197129D01*
X0208405Y0196829D01*
X0208466Y0196528D01*
X0208521Y0196225D01*
X0208567Y0195921D01*
X0208607Y0195616D01*
X0208639Y0195311D01*
X0208663Y0195004D01*
X0208680Y0194697D01*
X0208690Y0194390D01*
X0208692Y0194082D01*
X0208686Y0193775D01*
X0208673Y0193468D01*
X0208653Y0193161D01*
X0208624Y0192855D01*
X0208589Y0192549D01*
X0208546Y0192245D01*
X0208495Y0191942D01*
X0208438Y0191640D01*
X0208372Y0191339D01*
X0208300Y0191040D01*
X0208220Y0190744D01*
X0208133Y0190449D01*
X0208039Y0190156D01*
X0207937Y0189866D01*
X0207829Y0189578D01*
X0207714Y0189293D01*
X0207591Y0189011D01*
X0207462Y0188732D01*
X0207326Y0188456D01*
X0207183Y0188184D01*
X0207034Y0187915D01*
X0206878Y0187650D01*
X0206716Y0187389D01*
X0206547Y0187132D01*
X0206372Y0186879D01*
X0206191Y0186631D01*
X0206004Y0186387D01*
X0205811Y0186147D01*
X0205613Y0185913D01*
X0205408Y0185683D01*
X0205198Y0185458D01*
X0204983Y0185239D01*
X0204762Y0185025D01*
X0204537Y0184816D01*
X0204306Y0184613D01*
X0204070Y0184416D01*
X0203829Y0184224D01*
X0203584Y0184039D01*
X0203335Y0183859D01*
X0203081Y0183686D01*
X0202823Y0183519D01*
X0202561Y0183358D01*
X0202295Y0183204D01*
X0202025Y0183056D01*
X0201752Y0182915D01*
X0201475Y0182780D01*
X0201196Y0182653D01*
X0200913Y0182532D01*
X0200627Y0182418D01*
X0200339Y0182312D01*
X0200048Y0182212D01*
X0199755Y0182119D01*
X0199459Y0182034D01*
X0199162Y0181956D01*
X0198863Y0181885D01*
X0198562Y0181822D01*
X0198260Y0181766D01*
X0197956Y0181717D01*
X0197651Y0181676D01*
X0197346Y0181642D01*
X0197040Y0181616D01*
X0196733Y0181597D01*
X0196425Y0181586D01*
X0196118Y0181582D01*
X0195811Y0181586D01*
X0195503Y0181597D01*
X0195196Y0181616D01*
X0194890Y0181642D01*
X0194585Y0181676D01*
X0194280Y0181717D01*
X0193976Y0181766D01*
X0193674Y0181822D01*
X0193373Y0181885D01*
X0193074Y0181956D01*
X0192777Y0182034D01*
X0192481Y0182119D01*
X0192188Y0182212D01*
X0191897Y0182312D01*
X0191609Y0182418D01*
X0191323Y0182532D01*
X0191040Y0182653D01*
X0190761Y0182780D01*
X0190484Y0182915D01*
X0190211Y0183056D01*
X0189941Y0183204D01*
X0189675Y0183358D01*
X0189413Y0183519D01*
X0189155Y0183686D01*
X0188901Y0183859D01*
X0188652Y0184039D01*
X0188407Y0184224D01*
X0188166Y0184416D01*
X0187930Y0184613D01*
X0187699Y0184816D01*
X0187474Y0185025D01*
X0187253Y0185239D01*
X0187038Y0185458D01*
X0186828Y0185683D01*
X0186623Y0185913D01*
X0186425Y0186147D01*
X0186232Y0186387D01*
X0186045Y0186631D01*
X0185864Y0186879D01*
X0185689Y0187132D01*
X0185520Y0187389D01*
X0185358Y0187650D01*
X0185202Y0187915D01*
X0185053Y0188184D01*
X0184910Y0188456D01*
X0184774Y0188732D01*
X0184645Y0189011D01*
X0184522Y0189293D01*
X0184407Y0189578D01*
X0184299Y0189866D01*
X0184197Y0190156D01*
X0184103Y0190449D01*
X0184016Y0190744D01*
X0183936Y0191040D01*
X0183864Y0191339D01*
X0183798Y0191640D01*
X0183741Y0191942D01*
X0183690Y0192245D01*
X0183647Y0192549D01*
X0183612Y0192855D01*
X0183583Y0193161D01*
X0183563Y0193468D01*
X0183550Y0193775D01*
X0183544Y0194082D01*
X0183546Y0194390D01*
X0183556Y0194697D01*
X0183573Y0195004D01*
X0183597Y0195311D01*
X0183629Y0195616D01*
X0183669Y0195921D01*
X0183715Y0196225D01*
X0183770Y0196528D01*
X0183831Y0196829D01*
X0183900Y0197129D01*
X0183977Y0197426D01*
X0184060Y0197722D01*
X0184151Y0198016D01*
X0184249Y0198307D01*
X0184354Y0198596D01*
X0184466Y0198883D01*
X0184585Y0199166D01*
X0184711Y0199447D01*
X0184844Y0199724D01*
X0184983Y0199998D01*
X0185130Y0200268D01*
X0185282Y0200535D01*
X0185442Y0200798D01*
X0185607Y0201057D01*
X0185779Y0201312D01*
X0185957Y0201563D01*
X0186141Y0201809D01*
X0186331Y0202051D01*
X0186527Y0202288D01*
X0186729Y0202520D01*
X0186936Y0202747D01*
X0187149Y0202969D01*
X0187367Y0203185D01*
X0187591Y0203397D01*
X0187819Y0203602D01*
X0188052Y0203802D01*
X0188291Y0203997D01*
X0188534Y0204185D01*
X0188590Y0204110D01*
X0188349Y0203923D01*
X0188112Y0203730D01*
X0187881Y0203531D01*
X0187654Y0203327D01*
X0187432Y0203118D01*
X0187216Y0202903D01*
X0187005Y0202682D01*
X0186799Y0202457D01*
X0186599Y0202227D01*
X0186404Y0201991D01*
X0186216Y0201752D01*
X0186033Y0201507D01*
X0185856Y0201258D01*
X0185686Y0201005D01*
X0185521Y0200748D01*
X0185363Y0200487D01*
X0185212Y0200222D01*
X0185067Y0199954D01*
X0184928Y0199682D01*
X0184796Y0199407D01*
X0184671Y0199128D01*
X0184553Y0198847D01*
X0184442Y0198563D01*
X0184338Y0198276D01*
X0184240Y0197987D01*
X0184150Y0197695D01*
X0184067Y0197402D01*
X0183992Y0197106D01*
X0183923Y0196809D01*
X0183862Y0196510D01*
X0183808Y0196209D01*
X0183762Y0195908D01*
X0183722Y0195605D01*
X0183691Y0195302D01*
X0183666Y0194997D01*
X0183650Y0194693D01*
X0183640Y0194388D01*
X0183638Y0194083D01*
X0183644Y0193778D01*
X0183657Y0193473D01*
X0183677Y0193168D01*
X0183705Y0192864D01*
X0183740Y0192561D01*
X0183783Y0192259D01*
X0183833Y0191958D01*
X0183890Y0191658D01*
X0183955Y0191360D01*
X0184027Y0191064D01*
X0184106Y0190769D01*
X0184193Y0190476D01*
X0184286Y0190186D01*
X0184387Y0189898D01*
X0184495Y0189612D01*
X0184609Y0189329D01*
X0184731Y0189049D01*
X0184859Y0188772D01*
X0184994Y0188499D01*
X0185135Y0188229D01*
X0185284Y0187962D01*
X0185438Y0187699D01*
X0185599Y0187440D01*
X0185767Y0187184D01*
X0185940Y0186933D01*
X0186120Y0186687D01*
X0186306Y0186445D01*
X0186497Y0186207D01*
X0186694Y0185974D01*
X0186897Y0185746D01*
X0187106Y0185523D01*
X0187319Y0185305D01*
X0187538Y0185093D01*
X0187762Y0184886D01*
X0187992Y0184684D01*
X0188226Y0184488D01*
X0188464Y0184298D01*
X0188708Y0184114D01*
X0188955Y0183936D01*
X0189207Y0183764D01*
X0189464Y0183598D01*
X0189724Y0183439D01*
X0189988Y0183285D01*
X0190255Y0183139D01*
X0190526Y0182999D01*
X0190801Y0182865D01*
X0191078Y0182739D01*
X0191359Y0182619D01*
X0191643Y0182506D01*
X0191929Y0182400D01*
X0192217Y0182301D01*
X0192508Y0182209D01*
X0192802Y0182125D01*
X0193097Y0182047D01*
X0193394Y0181977D01*
X0193692Y0181914D01*
X0193992Y0181858D01*
X0194294Y0181810D01*
X0194596Y0181769D01*
X0194899Y0181736D01*
X0195203Y0181710D01*
X0195508Y0181691D01*
X0195813Y0181680D01*
X0196118Y0181676D01*
X0196423Y0181680D01*
X0196728Y0181691D01*
X0197033Y0181710D01*
X0197337Y0181736D01*
X0197640Y0181769D01*
X0197942Y0181810D01*
X0198244Y0181858D01*
X0198544Y0181914D01*
X0198842Y0181977D01*
X0199139Y0182047D01*
X0199434Y0182125D01*
X0199728Y0182209D01*
X0200019Y0182301D01*
X0200307Y0182400D01*
X0200593Y0182506D01*
X0200877Y0182619D01*
X0201158Y0182739D01*
X0201435Y0182865D01*
X0201710Y0182999D01*
X0201981Y0183139D01*
X0202248Y0183285D01*
X0202512Y0183439D01*
X0202772Y0183598D01*
X0203029Y0183764D01*
X0203281Y0183936D01*
X0203528Y0184114D01*
X0203772Y0184298D01*
X0204010Y0184488D01*
X0204244Y0184684D01*
X0204474Y0184886D01*
X0204698Y0185093D01*
X0204917Y0185305D01*
X0205130Y0185523D01*
X0205339Y0185746D01*
X0205542Y0185974D01*
X0205739Y0186207D01*
X0205930Y0186445D01*
X0206116Y0186687D01*
X0206296Y0186933D01*
X0206469Y0187184D01*
X0206637Y0187440D01*
X0206798Y0187699D01*
X0206952Y0187962D01*
X0207101Y0188229D01*
X0207242Y0188499D01*
X0207377Y0188772D01*
X0207505Y0189049D01*
X0207627Y0189329D01*
X0207741Y0189612D01*
X0207849Y0189898D01*
X0207950Y0190186D01*
X0208043Y0190476D01*
X0208130Y0190769D01*
X0208209Y0191064D01*
X0208281Y0191360D01*
X0208346Y0191658D01*
X0208403Y0191958D01*
X0208453Y0192259D01*
X0208496Y0192561D01*
X0208531Y0192864D01*
X0208559Y0193168D01*
X0208579Y0193473D01*
X0208592Y0193778D01*
X0208598Y0194083D01*
X0208596Y0194388D01*
X0208586Y0194693D01*
X0208570Y0194997D01*
X0208545Y0195302D01*
X0208514Y0195605D01*
X0208474Y0195908D01*
X0208428Y0196209D01*
X0208374Y0196510D01*
X0208313Y0196809D01*
X0208244Y0197106D01*
X0208169Y0197402D01*
X0208086Y0197695D01*
X0207996Y0197987D01*
X0207898Y0198276D01*
X0207794Y0198563D01*
X0207683Y0198847D01*
X0207565Y0199128D01*
X0207440Y0199407D01*
X0207308Y0199682D01*
X0207169Y0199954D01*
X0207024Y0200222D01*
X0206873Y0200487D01*
X0206715Y0200748D01*
X0206550Y0201005D01*
X0206380Y0201258D01*
X0206203Y0201507D01*
X0206020Y0201752D01*
X0205832Y0201991D01*
X0205637Y0202227D01*
X0205437Y0202457D01*
X0205231Y0202682D01*
X0205020Y0202903D01*
X0204804Y0203118D01*
X0204582Y0203327D01*
X0204355Y0203531D01*
X0204124Y0203730D01*
X0203887Y0203923D01*
X0203646Y0204110D01*
X0203590Y0204035D01*
X0203829Y0203849D01*
X0204064Y0203658D01*
X0204293Y0203461D01*
X0204518Y0203258D01*
X0204739Y0203050D01*
X0204953Y0202836D01*
X0205163Y0202618D01*
X0205367Y0202394D01*
X0205566Y0202166D01*
X0205759Y0201932D01*
X0205946Y0201694D01*
X0206127Y0201452D01*
X0206303Y0201205D01*
X0206472Y0200954D01*
X0206635Y0200698D01*
X0206792Y0200439D01*
X0206942Y0200176D01*
X0207086Y0199910D01*
X0207224Y0199640D01*
X0207355Y0199367D01*
X0207479Y0199091D01*
X0207596Y0198811D01*
X0207706Y0198529D01*
X0207810Y0198245D01*
X0207906Y0197958D01*
X0207996Y0197668D01*
X0208078Y0197377D01*
X0208153Y0197084D01*
X0208221Y0196788D01*
X0208282Y0196492D01*
X0208335Y0196194D01*
X0208381Y0195894D01*
X0208420Y0195594D01*
X0208452Y0195293D01*
X0208476Y0194991D01*
X0208493Y0194688D01*
X0208502Y0194386D01*
X0208504Y0194083D01*
X0208498Y0193780D01*
X0208485Y0193478D01*
X0208465Y0193175D01*
X0208437Y0192874D01*
X0208402Y0192573D01*
X0208360Y0192273D01*
X0208310Y0191974D01*
X0208253Y0191677D01*
X0208189Y0191381D01*
X0208118Y0191087D01*
X0208039Y0190794D01*
X0207953Y0190504D01*
X0207860Y0190215D01*
X0207761Y0189930D01*
X0207654Y0189646D01*
X0207540Y0189366D01*
X0207420Y0189088D01*
X0207292Y0188813D01*
X0207158Y0188541D01*
X0207018Y0188273D01*
X0206871Y0188008D01*
X0206717Y0187747D01*
X0206557Y0187490D01*
X0206391Y0187237D01*
X0206219Y0186988D01*
X0206041Y0186743D01*
X0205856Y0186502D01*
X0205666Y0186267D01*
X0205471Y0186036D01*
X0205269Y0185809D01*
X0205063Y0185588D01*
X0204850Y0185372D01*
X0204633Y0185161D01*
X0204411Y0184956D01*
X0204183Y0184756D01*
X0203951Y0184561D01*
X0203714Y0184373D01*
X0203472Y0184190D01*
X0203227Y0184013D01*
X0202976Y0183842D01*
X0202722Y0183678D01*
X0202464Y0183519D01*
X0202202Y0183367D01*
X0201937Y0183222D01*
X0201668Y0183083D01*
X0201395Y0182950D01*
X0201120Y0182825D01*
X0200841Y0182706D01*
X0200560Y0182594D01*
X0200276Y0182489D01*
X0199989Y0182390D01*
X0199700Y0182299D01*
X0199409Y0182215D01*
X0199116Y0182138D01*
X0198822Y0182069D01*
X0198525Y0182006D01*
X0198228Y0181951D01*
X0197929Y0181903D01*
X0197629Y0181862D01*
X0197327Y0181829D01*
X0197026Y0181803D01*
X0196723Y0181785D01*
X0196421Y0181774D01*
X0196118Y0181770D01*
X0195815Y0181774D01*
X0195513Y0181785D01*
X0195210Y0181803D01*
X0194909Y0181829D01*
X0194607Y0181862D01*
X0194307Y0181903D01*
X0194008Y0181951D01*
X0193711Y0182006D01*
X0193414Y0182069D01*
X0193120Y0182138D01*
X0192827Y0182215D01*
X0192536Y0182299D01*
X0192247Y0182390D01*
X0191960Y0182489D01*
X0191676Y0182594D01*
X0191395Y0182706D01*
X0191116Y0182825D01*
X0190841Y0182950D01*
X0190568Y0183083D01*
X0190299Y0183222D01*
X0190034Y0183367D01*
X0189772Y0183519D01*
X0189514Y0183678D01*
X0189260Y0183842D01*
X0189009Y0184013D01*
X0188764Y0184190D01*
X0188522Y0184373D01*
X0188285Y0184561D01*
X0188053Y0184756D01*
X0187825Y0184956D01*
X0187603Y0185161D01*
X0187386Y0185372D01*
X0187173Y0185588D01*
X0186967Y0185809D01*
X0186765Y0186036D01*
X0186570Y0186267D01*
X0186380Y0186502D01*
X0186195Y0186743D01*
X0186017Y0186988D01*
X0185845Y0187237D01*
X0185679Y0187490D01*
X0185519Y0187747D01*
X0185365Y0188008D01*
X0185218Y0188273D01*
X0185078Y0188541D01*
X0184944Y0188813D01*
X0184816Y0189088D01*
X0184696Y0189366D01*
X0184582Y0189646D01*
X0184475Y0189930D01*
X0184376Y0190215D01*
X0184283Y0190504D01*
X0184197Y0190794D01*
X0184118Y0191087D01*
X0184047Y0191381D01*
X0183983Y0191677D01*
X0183926Y0191974D01*
X0183876Y0192273D01*
X0183834Y0192573D01*
X0183799Y0192874D01*
X0183771Y0193175D01*
X0183751Y0193478D01*
X0183738Y0193780D01*
X0183732Y0194083D01*
X0183734Y0194386D01*
X0183743Y0194688D01*
X0183760Y0194991D01*
X0183784Y0195293D01*
X0183816Y0195594D01*
X0183855Y0195894D01*
X0183901Y0196194D01*
X0183954Y0196492D01*
X0184015Y0196788D01*
X0184083Y0197084D01*
X0184158Y0197377D01*
X0184240Y0197668D01*
X0184330Y0197958D01*
X0184426Y0198245D01*
X0184530Y0198529D01*
X0184640Y0198811D01*
X0184757Y0199091D01*
X0184881Y0199367D01*
X0185012Y0199640D01*
X0185150Y0199910D01*
X0185294Y0200176D01*
X0185444Y0200439D01*
X0185601Y0200698D01*
X0185764Y0200954D01*
X0185933Y0201205D01*
X0186109Y0201452D01*
X0186290Y0201694D01*
X0186477Y0201932D01*
X0186670Y0202166D01*
X0186869Y0202394D01*
X0187073Y0202618D01*
X0187283Y0202836D01*
X0187497Y0203050D01*
X0187718Y0203258D01*
X0187943Y0203461D01*
X0188172Y0203658D01*
X0188407Y0203849D01*
X0188646Y0204035D01*
X0188703Y0203960D01*
X0188465Y0203775D01*
X0188233Y0203585D01*
X0188004Y0203390D01*
X0187781Y0203189D01*
X0187563Y0202982D01*
X0187349Y0202770D01*
X0187141Y0202553D01*
X0186939Y0202331D01*
X0186742Y0202104D01*
X0186550Y0201873D01*
X0186364Y0201637D01*
X0186184Y0201396D01*
X0186010Y0201151D01*
X0185842Y0200902D01*
X0185680Y0200648D01*
X0185525Y0200391D01*
X0185376Y0200130D01*
X0185233Y0199866D01*
X0185096Y0199598D01*
X0184967Y0199327D01*
X0184844Y0199053D01*
X0184727Y0198776D01*
X0184618Y0198496D01*
X0184515Y0198213D01*
X0184419Y0197929D01*
X0184331Y0197641D01*
X0184249Y0197352D01*
X0184174Y0197061D01*
X0184107Y0196768D01*
X0184046Y0196474D01*
X0183993Y0196178D01*
X0183948Y0195881D01*
X0183909Y0195583D01*
X0183878Y0195284D01*
X0183854Y0194984D01*
X0183837Y0194684D01*
X0183828Y0194384D01*
X0183826Y0194083D01*
X0183832Y0193783D01*
X0183844Y0193482D01*
X0183865Y0193183D01*
X0183892Y0192883D01*
X0183927Y0192585D01*
X0183969Y0192287D01*
X0184018Y0191991D01*
X0184075Y0191696D01*
X0184139Y0191402D01*
X0184209Y0191110D01*
X0184287Y0190820D01*
X0184373Y0190531D01*
X0184465Y0190245D01*
X0184564Y0189961D01*
X0184670Y0189680D01*
X0184783Y0189402D01*
X0184902Y0189126D01*
X0185029Y0188853D01*
X0185162Y0188584D01*
X0185301Y0188318D01*
X0185447Y0188055D01*
X0185599Y0187796D01*
X0185758Y0187540D01*
X0185923Y0187289D01*
X0186094Y0187042D01*
X0186271Y0186799D01*
X0186454Y0186560D01*
X0186642Y0186326D01*
X0186836Y0186097D01*
X0187036Y0185873D01*
X0187241Y0185653D01*
X0187452Y0185439D01*
X0187668Y0185229D01*
X0187888Y0185025D01*
X0188114Y0184827D01*
X0188345Y0184634D01*
X0188580Y0184447D01*
X0188819Y0184265D01*
X0189063Y0184090D01*
X0189312Y0183920D01*
X0189564Y0183757D01*
X0189820Y0183600D01*
X0190080Y0183449D01*
X0190344Y0183305D01*
X0190611Y0183167D01*
X0190881Y0183035D01*
X0191154Y0182911D01*
X0191431Y0182793D01*
X0191710Y0182682D01*
X0191992Y0182577D01*
X0192276Y0182480D01*
X0192563Y0182389D01*
X0192852Y0182306D01*
X0193142Y0182230D01*
X0193435Y0182160D01*
X0193729Y0182098D01*
X0194024Y0182044D01*
X0194321Y0181996D01*
X0194619Y0181956D01*
X0194918Y0181923D01*
X0195217Y0181897D01*
X0195517Y0181879D01*
X0195817Y0181868D01*
X0196118Y0181864D01*
X0196419Y0181868D01*
X0196719Y0181879D01*
X0197019Y0181897D01*
X0197318Y0181923D01*
X0197617Y0181956D01*
X0197915Y0181996D01*
X0198212Y0182044D01*
X0198507Y0182098D01*
X0198801Y0182160D01*
X0199094Y0182230D01*
X0199384Y0182306D01*
X0199673Y0182389D01*
X0199960Y0182480D01*
X0200244Y0182577D01*
X0200526Y0182682D01*
X0200805Y0182793D01*
X0201082Y0182911D01*
X0201355Y0183035D01*
X0201625Y0183167D01*
X0201892Y0183305D01*
X0202156Y0183449D01*
X0202416Y0183600D01*
X0202672Y0183757D01*
X0202924Y0183920D01*
X0203173Y0184090D01*
X0203417Y0184265D01*
X0203656Y0184447D01*
X0203891Y0184634D01*
X0204122Y0184827D01*
X0204348Y0185025D01*
X0204568Y0185229D01*
X0204784Y0185439D01*
X0204995Y0185653D01*
X0205200Y0185873D01*
X0205400Y0186097D01*
X0205594Y0186326D01*
X0205782Y0186560D01*
X0205965Y0186799D01*
X0206142Y0187042D01*
X0206313Y0187289D01*
X0206478Y0187540D01*
X0206637Y0187796D01*
X0206789Y0188055D01*
X0206935Y0188318D01*
X0207074Y0188584D01*
X0207207Y0188853D01*
X0207334Y0189126D01*
X0207453Y0189402D01*
X0207566Y0189680D01*
X0207672Y0189961D01*
X0207771Y0190245D01*
X0207863Y0190531D01*
X0207949Y0190820D01*
X0208027Y0191110D01*
X0208097Y0191402D01*
X0208161Y0191696D01*
X0208218Y0191991D01*
X0208267Y0192287D01*
X0208309Y0192585D01*
X0208344Y0192883D01*
X0208371Y0193183D01*
X0208392Y0193482D01*
X0208404Y0193783D01*
X0208410Y0194083D01*
X0208408Y0194384D01*
X0208399Y0194684D01*
X0208382Y0194984D01*
X0208358Y0195284D01*
X0208327Y0195583D01*
X0208288Y0195881D01*
X0208243Y0196178D01*
X0208190Y0196474D01*
X0208129Y0196768D01*
X0208062Y0197061D01*
X0207987Y0197352D01*
X0207905Y0197641D01*
X0207817Y0197929D01*
X0207721Y0198213D01*
X0207618Y0198496D01*
X0207509Y0198776D01*
X0207392Y0199053D01*
X0207269Y0199327D01*
X0207140Y0199598D01*
X0207003Y0199866D01*
X0206860Y0200130D01*
X0206711Y0200391D01*
X0206556Y0200648D01*
X0206394Y0200902D01*
X0206226Y0201151D01*
X0206052Y0201396D01*
X0205872Y0201637D01*
X0205686Y0201873D01*
X0205494Y0202104D01*
X0205297Y0202331D01*
X0205095Y0202553D01*
X0204887Y0202770D01*
X0204673Y0202982D01*
X0204455Y0203189D01*
X0204232Y0203390D01*
X0204003Y0203585D01*
X0203771Y0203775D01*
X0203533Y0203960D01*
X0203477Y0203884D01*
X0203712Y0203702D01*
X0203943Y0203513D01*
X0204170Y0203319D01*
X0204392Y0203119D01*
X0204608Y0202914D01*
X0204820Y0202704D01*
X0205026Y0202489D01*
X0205227Y0202269D01*
X0205423Y0202043D01*
X0205613Y0201814D01*
X0205797Y0201579D01*
X0205976Y0201340D01*
X0206149Y0201097D01*
X0206315Y0200850D01*
X0206476Y0200598D01*
X0206630Y0200343D01*
X0206778Y0200084D01*
X0206920Y0199822D01*
X0207055Y0199556D01*
X0207184Y0199287D01*
X0207306Y0199015D01*
X0207422Y0198740D01*
X0207531Y0198462D01*
X0207632Y0198182D01*
X0207727Y0197899D01*
X0207815Y0197614D01*
X0207896Y0197327D01*
X0207971Y0197039D01*
X0208037Y0196748D01*
X0208097Y0196456D01*
X0208150Y0196162D01*
X0208195Y0195867D01*
X0208234Y0195572D01*
X0208265Y0195275D01*
X0208288Y0194978D01*
X0208305Y0194680D01*
X0208314Y0194382D01*
X0208316Y0194084D01*
X0208310Y0193785D01*
X0208298Y0193487D01*
X0208278Y0193190D01*
X0208250Y0192893D01*
X0208216Y0192597D01*
X0208174Y0192301D01*
X0208125Y0192007D01*
X0208069Y0191714D01*
X0208006Y0191423D01*
X0207935Y0191133D01*
X0207858Y0190845D01*
X0207774Y0190559D01*
X0207682Y0190275D01*
X0207584Y0189993D01*
X0207479Y0189714D01*
X0207367Y0189438D01*
X0207248Y0189164D01*
X0207123Y0188894D01*
X0206991Y0188626D01*
X0206852Y0188362D01*
X0206707Y0188101D01*
X0206556Y0187844D01*
X0206399Y0187591D01*
X0206235Y0187342D01*
X0206065Y0187096D01*
X0205890Y0186855D01*
X0205708Y0186618D01*
X0205521Y0186386D01*
X0205329Y0186159D01*
X0205130Y0185936D01*
X0204927Y0185718D01*
X0204718Y0185505D01*
X0204504Y0185297D01*
X0204284Y0185095D01*
X0204061Y0184898D01*
X0203832Y0184707D01*
X0203598Y0184521D01*
X0203361Y0184341D01*
X0203119Y0184167D01*
X0202872Y0183999D01*
X0202622Y0183837D01*
X0202368Y0183681D01*
X0202110Y0183531D01*
X0201848Y0183388D01*
X0201583Y0183251D01*
X0201315Y0183120D01*
X0201044Y0182997D01*
X0200769Y0182880D01*
X0200492Y0182769D01*
X0200212Y0182666D01*
X0199930Y0182569D01*
X0199646Y0182479D01*
X0199359Y0182397D01*
X0199071Y0182321D01*
X0198781Y0182252D01*
X0198489Y0182191D01*
X0198196Y0182136D01*
X0197901Y0182089D01*
X0197606Y0182049D01*
X0197309Y0182016D01*
X0197012Y0181991D01*
X0196714Y0181973D01*
X0196416Y0181962D01*
X0196118Y0181958D01*
X0195820Y0181962D01*
X0195522Y0181973D01*
X0195224Y0181991D01*
X0194927Y0182016D01*
X0194630Y0182049D01*
X0194335Y0182089D01*
X0194040Y0182136D01*
X0193747Y0182191D01*
X0193455Y0182252D01*
X0193165Y0182321D01*
X0192877Y0182397D01*
X0192590Y0182479D01*
X0192306Y0182569D01*
X0192024Y0182666D01*
X0191744Y0182769D01*
X0191467Y0182880D01*
X0191192Y0182997D01*
X0190921Y0183120D01*
X0190653Y0183251D01*
X0190388Y0183388D01*
X0190126Y0183531D01*
X0189868Y0183681D01*
X0189614Y0183837D01*
X0189364Y0183999D01*
X0189117Y0184167D01*
X0188875Y0184341D01*
X0188638Y0184521D01*
X0188404Y0184707D01*
X0188175Y0184898D01*
X0187952Y0185095D01*
X0187732Y0185297D01*
X0187518Y0185505D01*
X0187309Y0185718D01*
X0187106Y0185936D01*
X0186907Y0186159D01*
X0186715Y0186386D01*
X0186528Y0186618D01*
X0186346Y0186855D01*
X0186171Y0187096D01*
X0186001Y0187342D01*
X0185837Y0187591D01*
X0185680Y0187844D01*
X0185529Y0188101D01*
X0185384Y0188362D01*
X0185245Y0188626D01*
X0185113Y0188894D01*
X0184988Y0189164D01*
X0184869Y0189438D01*
X0184757Y0189714D01*
X0184652Y0189993D01*
X0184554Y0190275D01*
X0184462Y0190559D01*
X0184378Y0190845D01*
X0184301Y0191133D01*
X0184230Y0191423D01*
X0184167Y0191714D01*
X0184111Y0192007D01*
X0184062Y0192301D01*
X0184020Y0192597D01*
X0183986Y0192893D01*
X0183958Y0193190D01*
X0183938Y0193487D01*
X0183926Y0193785D01*
X0183920Y0194084D01*
X0183922Y0194382D01*
X0183931Y0194680D01*
X0183948Y0194978D01*
X0183971Y0195275D01*
X0184002Y0195572D01*
X0184041Y0195867D01*
X0184086Y0196162D01*
X0184139Y0196456D01*
X0184199Y0196748D01*
X0184265Y0197039D01*
X0184340Y0197327D01*
X0184421Y0197614D01*
X0184509Y0197899D01*
X0184604Y0198182D01*
X0184705Y0198462D01*
X0184814Y0198740D01*
X0184930Y0199015D01*
X0185052Y0199287D01*
X0185181Y0199556D01*
X0185316Y0199822D01*
X0185458Y0200084D01*
X0185606Y0200343D01*
X0185760Y0200598D01*
X0185921Y0200850D01*
X0186087Y0201097D01*
X0186260Y0201340D01*
X0186439Y0201579D01*
X0186623Y0201814D01*
X0186813Y0202043D01*
X0187009Y0202269D01*
X0187210Y0202489D01*
X0187416Y0202704D01*
X0187628Y0202914D01*
X0187844Y0203119D01*
X0188066Y0203319D01*
X0188293Y0203513D01*
X0188524Y0203702D01*
X0188759Y0203884D01*
X0188816Y0203809D01*
X0188582Y0203628D01*
X0188353Y0203441D01*
X0188128Y0203248D01*
X0187908Y0203050D01*
X0187693Y0202847D01*
X0187483Y0202638D01*
X0187278Y0202424D01*
X0187079Y0202206D01*
X0186885Y0201982D01*
X0186696Y0201754D01*
X0186513Y0201522D01*
X0186336Y0201285D01*
X0186165Y0201043D01*
X0185999Y0200798D01*
X0185840Y0200549D01*
X0185687Y0200295D01*
X0185540Y0200039D01*
X0185399Y0199778D01*
X0185265Y0199514D01*
X0185137Y0199247D01*
X0185016Y0198977D01*
X0184901Y0198705D01*
X0184793Y0198429D01*
X0184692Y0198151D01*
X0184598Y0197870D01*
X0184511Y0197588D01*
X0184430Y0197303D01*
X0184357Y0197016D01*
X0184290Y0196728D01*
X0184231Y0196438D01*
X0184179Y0196146D01*
X0184134Y0195854D01*
X0184096Y0195560D01*
X0184065Y0195266D01*
X0184041Y0194971D01*
X0184025Y0194676D01*
X0184016Y0194380D01*
X0184014Y0194084D01*
X0184020Y0193788D01*
X0184032Y0193492D01*
X0184052Y0193197D01*
X0184079Y0192902D01*
X0184113Y0192608D01*
X0184155Y0192315D01*
X0184203Y0192023D01*
X0184259Y0191733D01*
X0184322Y0191444D01*
X0184392Y0191156D01*
X0184469Y0190870D01*
X0184552Y0190586D01*
X0184643Y0190305D01*
X0184741Y0190025D01*
X0184845Y0189748D01*
X0184956Y0189474D01*
X0185074Y0189203D01*
X0185198Y0188934D01*
X0185329Y0188669D01*
X0185467Y0188407D01*
X0185610Y0188148D01*
X0185760Y0187893D01*
X0185917Y0187641D01*
X0186079Y0187394D01*
X0186247Y0187151D01*
X0186422Y0186911D01*
X0186602Y0186676D01*
X0186787Y0186446D01*
X0186979Y0186220D01*
X0187175Y0185999D01*
X0187377Y0185783D01*
X0187585Y0185572D01*
X0187797Y0185366D01*
X0188015Y0185165D01*
X0188237Y0184969D01*
X0188464Y0184779D01*
X0188695Y0184595D01*
X0188931Y0184417D01*
X0189171Y0184244D01*
X0189416Y0184077D01*
X0189664Y0183916D01*
X0189917Y0183761D01*
X0190173Y0183613D01*
X0190432Y0183471D01*
X0190695Y0183335D01*
X0190961Y0183205D01*
X0191230Y0183083D01*
X0191503Y0182966D01*
X0191778Y0182857D01*
X0192055Y0182754D01*
X0192335Y0182658D01*
X0192617Y0182569D01*
X0192902Y0182487D01*
X0193188Y0182412D01*
X0193476Y0182344D01*
X0193765Y0182283D01*
X0194056Y0182229D01*
X0194349Y0182182D01*
X0194642Y0182142D01*
X0194936Y0182110D01*
X0195231Y0182085D01*
X0195526Y0182066D01*
X0195822Y0182056D01*
X0196118Y0182052D01*
X0196414Y0182056D01*
X0196710Y0182066D01*
X0197005Y0182085D01*
X0197300Y0182110D01*
X0197594Y0182142D01*
X0197887Y0182182D01*
X0198180Y0182229D01*
X0198471Y0182283D01*
X0198760Y0182344D01*
X0199048Y0182412D01*
X0199334Y0182487D01*
X0199619Y0182569D01*
X0199901Y0182658D01*
X0200181Y0182754D01*
X0200458Y0182857D01*
X0200733Y0182966D01*
X0201006Y0183083D01*
X0201275Y0183205D01*
X0201541Y0183335D01*
X0201804Y0183471D01*
X0202063Y0183613D01*
X0202319Y0183761D01*
X0202572Y0183916D01*
X0202820Y0184077D01*
X0203065Y0184244D01*
X0203305Y0184417D01*
X0203541Y0184595D01*
X0203772Y0184779D01*
X0203999Y0184969D01*
X0204221Y0185165D01*
X0204439Y0185366D01*
X0204651Y0185572D01*
X0204859Y0185783D01*
X0205061Y0185999D01*
X0205257Y0186220D01*
X0205449Y0186446D01*
X0205634Y0186676D01*
X0205814Y0186911D01*
X0205989Y0187151D01*
X0206157Y0187394D01*
X0206319Y0187641D01*
X0206476Y0187893D01*
X0206626Y0188148D01*
X0206769Y0188407D01*
X0206907Y0188669D01*
X0207038Y0188934D01*
X0207162Y0189203D01*
X0207280Y0189474D01*
X0207391Y0189748D01*
X0207495Y0190025D01*
X0207593Y0190305D01*
X0207684Y0190586D01*
X0207767Y0190870D01*
X0207844Y0191156D01*
X0207914Y0191444D01*
X0207977Y0191733D01*
X0208033Y0192023D01*
X0208081Y0192315D01*
X0208123Y0192608D01*
X0208157Y0192902D01*
X0208184Y0193197D01*
X0208204Y0193492D01*
X0208216Y0193788D01*
X0208222Y0194084D01*
X0208220Y0194380D01*
X0208211Y0194676D01*
X0208195Y0194971D01*
X0208171Y0195266D01*
X0208140Y0195560D01*
X0208102Y0195854D01*
X0208057Y0196146D01*
X0208005Y0196438D01*
X0207946Y0196728D01*
X0207879Y0197016D01*
X0207806Y0197303D01*
X0207725Y0197588D01*
X0207638Y0197870D01*
X0207544Y0198151D01*
X0207443Y0198429D01*
X0207335Y0198705D01*
X0207220Y0198977D01*
X0207099Y0199247D01*
X0206971Y0199514D01*
X0206837Y0199778D01*
X0206696Y0200039D01*
X0206549Y0200295D01*
X0206396Y0200549D01*
X0206237Y0200798D01*
X0206071Y0201043D01*
X0205900Y0201285D01*
X0205723Y0201522D01*
X0205540Y0201754D01*
X0205351Y0201982D01*
X0205157Y0202206D01*
X0204958Y0202424D01*
X0204753Y0202638D01*
X0204543Y0202847D01*
X0204328Y0203050D01*
X0204108Y0203248D01*
X0203883Y0203441D01*
X0203654Y0203628D01*
X0203420Y0203809D01*
D14*
X0263618Y0182156D02*
X0296118Y0182156D01*
X0296118Y0146156D01*
X0263618Y0146156D01*
X0263618Y0182156D01*
D15*
X0286963Y0175162D02*
X0293268Y0175162D01*
X0293268Y0173061D02*
X0293268Y0177264D01*
X0289065Y0173061D02*
X0286963Y0175162D01*
X0288014Y0170819D02*
X0292217Y0170819D01*
X0293268Y0169768D01*
X0293268Y0167666D01*
X0292217Y0166615D01*
X0288014Y0166615D01*
X0286963Y0167666D01*
X0286963Y0169768D01*
X0288014Y0170819D01*
X0291166Y0168717D02*
X0293268Y0170819D01*
X0139283Y0086040D02*
X0139283Y0084989D01*
X0138232Y0083938D01*
X0139283Y0082887D01*
X0139283Y0081837D01*
X0138232Y0080786D01*
X0136130Y0080786D01*
X0135079Y0081837D01*
X0132837Y0080786D02*
X0130735Y0082887D01*
X0131786Y0082887D02*
X0128633Y0082887D01*
X0128633Y0080786D02*
X0128633Y0087091D01*
X0131786Y0087091D01*
X0132837Y0086040D01*
X0132837Y0083938D01*
X0131786Y0082887D01*
X0135079Y0086040D02*
X0136130Y0087091D01*
X0138232Y0087091D01*
X0139283Y0086040D01*
X0138232Y0083938D02*
X0137181Y0083938D01*
D16*
X0248868Y0154156D03*
X0248868Y0164156D03*
X0248868Y0174156D03*
D17*
X0255618Y0174156D03*
X0255618Y0164156D03*
X0255618Y0154156D03*
D18*
X0056118Y0215259D02*
X0056118Y0049904D01*
X0065567Y0049904D02*
X0065569Y0050062D01*
X0065575Y0050220D01*
X0065585Y0050378D01*
X0065599Y0050536D01*
X0065617Y0050693D01*
X0065638Y0050850D01*
X0065664Y0051006D01*
X0065694Y0051162D01*
X0065727Y0051317D01*
X0065765Y0051470D01*
X0065806Y0051623D01*
X0065851Y0051775D01*
X0065900Y0051926D01*
X0065953Y0052075D01*
X0066009Y0052223D01*
X0066069Y0052369D01*
X0066133Y0052514D01*
X0066201Y0052657D01*
X0066272Y0052799D01*
X0066346Y0052939D01*
X0066424Y0053076D01*
X0066506Y0053212D01*
X0066590Y0053346D01*
X0066679Y0053477D01*
X0066770Y0053606D01*
X0066865Y0053733D01*
X0066962Y0053858D01*
X0067063Y0053980D01*
X0067167Y0054099D01*
X0067274Y0054216D01*
X0067384Y0054330D01*
X0067497Y0054441D01*
X0067612Y0054550D01*
X0067730Y0054655D01*
X0067851Y0054757D01*
X0067974Y0054857D01*
X0068100Y0054953D01*
X0068228Y0055046D01*
X0068358Y0055136D01*
X0068491Y0055222D01*
X0068626Y0055306D01*
X0068762Y0055385D01*
X0068901Y0055462D01*
X0069042Y0055534D01*
X0069184Y0055604D01*
X0069328Y0055669D01*
X0069474Y0055731D01*
X0069621Y0055789D01*
X0069770Y0055844D01*
X0069920Y0055895D01*
X0070071Y0055942D01*
X0070223Y0055985D01*
X0070376Y0056024D01*
X0070531Y0056060D01*
X0070686Y0056091D01*
X0070842Y0056119D01*
X0070998Y0056143D01*
X0071155Y0056163D01*
X0071313Y0056179D01*
X0071470Y0056191D01*
X0071629Y0056199D01*
X0071787Y0056203D01*
X0071945Y0056203D01*
X0072103Y0056199D01*
X0072262Y0056191D01*
X0072419Y0056179D01*
X0072577Y0056163D01*
X0072734Y0056143D01*
X0072890Y0056119D01*
X0073046Y0056091D01*
X0073201Y0056060D01*
X0073356Y0056024D01*
X0073509Y0055985D01*
X0073661Y0055942D01*
X0073812Y0055895D01*
X0073962Y0055844D01*
X0074111Y0055789D01*
X0074258Y0055731D01*
X0074404Y0055669D01*
X0074548Y0055604D01*
X0074690Y0055534D01*
X0074831Y0055462D01*
X0074970Y0055385D01*
X0075106Y0055306D01*
X0075241Y0055222D01*
X0075374Y0055136D01*
X0075504Y0055046D01*
X0075632Y0054953D01*
X0075758Y0054857D01*
X0075881Y0054757D01*
X0076002Y0054655D01*
X0076120Y0054550D01*
X0076235Y0054441D01*
X0076348Y0054330D01*
X0076458Y0054216D01*
X0076565Y0054099D01*
X0076669Y0053980D01*
X0076770Y0053858D01*
X0076867Y0053733D01*
X0076962Y0053606D01*
X0077053Y0053477D01*
X0077142Y0053346D01*
X0077226Y0053212D01*
X0077308Y0053076D01*
X0077386Y0052939D01*
X0077460Y0052799D01*
X0077531Y0052657D01*
X0077599Y0052514D01*
X0077663Y0052369D01*
X0077723Y0052223D01*
X0077779Y0052075D01*
X0077832Y0051926D01*
X0077881Y0051775D01*
X0077926Y0051623D01*
X0077967Y0051470D01*
X0078005Y0051317D01*
X0078038Y0051162D01*
X0078068Y0051006D01*
X0078094Y0050850D01*
X0078115Y0050693D01*
X0078133Y0050536D01*
X0078147Y0050378D01*
X0078157Y0050220D01*
X0078163Y0050062D01*
X0078165Y0049904D01*
X0078163Y0049746D01*
X0078157Y0049588D01*
X0078147Y0049430D01*
X0078133Y0049272D01*
X0078115Y0049115D01*
X0078094Y0048958D01*
X0078068Y0048802D01*
X0078038Y0048646D01*
X0078005Y0048491D01*
X0077967Y0048338D01*
X0077926Y0048185D01*
X0077881Y0048033D01*
X0077832Y0047882D01*
X0077779Y0047733D01*
X0077723Y0047585D01*
X0077663Y0047439D01*
X0077599Y0047294D01*
X0077531Y0047151D01*
X0077460Y0047009D01*
X0077386Y0046869D01*
X0077308Y0046732D01*
X0077226Y0046596D01*
X0077142Y0046462D01*
X0077053Y0046331D01*
X0076962Y0046202D01*
X0076867Y0046075D01*
X0076770Y0045950D01*
X0076669Y0045828D01*
X0076565Y0045709D01*
X0076458Y0045592D01*
X0076348Y0045478D01*
X0076235Y0045367D01*
X0076120Y0045258D01*
X0076002Y0045153D01*
X0075881Y0045051D01*
X0075758Y0044951D01*
X0075632Y0044855D01*
X0075504Y0044762D01*
X0075374Y0044672D01*
X0075241Y0044586D01*
X0075106Y0044502D01*
X0074970Y0044423D01*
X0074831Y0044346D01*
X0074690Y0044274D01*
X0074548Y0044204D01*
X0074404Y0044139D01*
X0074258Y0044077D01*
X0074111Y0044019D01*
X0073962Y0043964D01*
X0073812Y0043913D01*
X0073661Y0043866D01*
X0073509Y0043823D01*
X0073356Y0043784D01*
X0073201Y0043748D01*
X0073046Y0043717D01*
X0072890Y0043689D01*
X0072734Y0043665D01*
X0072577Y0043645D01*
X0072419Y0043629D01*
X0072262Y0043617D01*
X0072103Y0043609D01*
X0071945Y0043605D01*
X0071787Y0043605D01*
X0071629Y0043609D01*
X0071470Y0043617D01*
X0071313Y0043629D01*
X0071155Y0043645D01*
X0070998Y0043665D01*
X0070842Y0043689D01*
X0070686Y0043717D01*
X0070531Y0043748D01*
X0070376Y0043784D01*
X0070223Y0043823D01*
X0070071Y0043866D01*
X0069920Y0043913D01*
X0069770Y0043964D01*
X0069621Y0044019D01*
X0069474Y0044077D01*
X0069328Y0044139D01*
X0069184Y0044204D01*
X0069042Y0044274D01*
X0068901Y0044346D01*
X0068762Y0044423D01*
X0068626Y0044502D01*
X0068491Y0044586D01*
X0068358Y0044672D01*
X0068228Y0044762D01*
X0068100Y0044855D01*
X0067974Y0044951D01*
X0067851Y0045051D01*
X0067730Y0045153D01*
X0067612Y0045258D01*
X0067497Y0045367D01*
X0067384Y0045478D01*
X0067274Y0045592D01*
X0067167Y0045709D01*
X0067063Y0045828D01*
X0066962Y0045950D01*
X0066865Y0046075D01*
X0066770Y0046202D01*
X0066679Y0046331D01*
X0066590Y0046462D01*
X0066506Y0046596D01*
X0066424Y0046732D01*
X0066346Y0046869D01*
X0066272Y0047009D01*
X0066201Y0047151D01*
X0066133Y0047294D01*
X0066069Y0047439D01*
X0066009Y0047585D01*
X0065953Y0047733D01*
X0065900Y0047882D01*
X0065851Y0048033D01*
X0065806Y0048185D01*
X0065765Y0048338D01*
X0065727Y0048491D01*
X0065694Y0048646D01*
X0065664Y0048802D01*
X0065638Y0048958D01*
X0065617Y0049115D01*
X0065599Y0049272D01*
X0065585Y0049430D01*
X0065575Y0049588D01*
X0065569Y0049746D01*
X0065567Y0049904D01*
X0056118Y0049904D02*
X0056123Y0049523D01*
X0056136Y0049143D01*
X0056159Y0048763D01*
X0056192Y0048384D01*
X0056233Y0048006D01*
X0056283Y0047629D01*
X0056343Y0047253D01*
X0056411Y0046878D01*
X0056489Y0046506D01*
X0056576Y0046135D01*
X0056671Y0045767D01*
X0056776Y0045401D01*
X0056889Y0045038D01*
X0057011Y0044677D01*
X0057141Y0044320D01*
X0057281Y0043966D01*
X0057428Y0043615D01*
X0057585Y0043268D01*
X0057749Y0042925D01*
X0057922Y0042586D01*
X0058103Y0042251D01*
X0058292Y0041920D01*
X0058489Y0041595D01*
X0058693Y0041274D01*
X0058906Y0040958D01*
X0059126Y0040648D01*
X0059353Y0040342D01*
X0059588Y0040043D01*
X0059830Y0039749D01*
X0060078Y0039461D01*
X0060334Y0039179D01*
X0060597Y0038904D01*
X0060866Y0038635D01*
X0061141Y0038372D01*
X0061423Y0038116D01*
X0061711Y0037868D01*
X0062005Y0037626D01*
X0062304Y0037391D01*
X0062610Y0037164D01*
X0062920Y0036944D01*
X0063236Y0036731D01*
X0063557Y0036527D01*
X0063882Y0036330D01*
X0064213Y0036141D01*
X0064548Y0035960D01*
X0064887Y0035787D01*
X0065230Y0035623D01*
X0065577Y0035466D01*
X0065928Y0035319D01*
X0066282Y0035179D01*
X0066639Y0035049D01*
X0067000Y0034927D01*
X0067363Y0034814D01*
X0067729Y0034709D01*
X0068097Y0034614D01*
X0068468Y0034527D01*
X0068840Y0034449D01*
X0069215Y0034381D01*
X0069591Y0034321D01*
X0069968Y0034271D01*
X0070346Y0034230D01*
X0070725Y0034197D01*
X0071105Y0034174D01*
X0071485Y0034161D01*
X0071866Y0034156D01*
X0237220Y0034156D01*
X0230921Y0049904D02*
X0230923Y0050062D01*
X0230929Y0050220D01*
X0230939Y0050378D01*
X0230953Y0050536D01*
X0230971Y0050693D01*
X0230992Y0050850D01*
X0231018Y0051006D01*
X0231048Y0051162D01*
X0231081Y0051317D01*
X0231119Y0051470D01*
X0231160Y0051623D01*
X0231205Y0051775D01*
X0231254Y0051926D01*
X0231307Y0052075D01*
X0231363Y0052223D01*
X0231423Y0052369D01*
X0231487Y0052514D01*
X0231555Y0052657D01*
X0231626Y0052799D01*
X0231700Y0052939D01*
X0231778Y0053076D01*
X0231860Y0053212D01*
X0231944Y0053346D01*
X0232033Y0053477D01*
X0232124Y0053606D01*
X0232219Y0053733D01*
X0232316Y0053858D01*
X0232417Y0053980D01*
X0232521Y0054099D01*
X0232628Y0054216D01*
X0232738Y0054330D01*
X0232851Y0054441D01*
X0232966Y0054550D01*
X0233084Y0054655D01*
X0233205Y0054757D01*
X0233328Y0054857D01*
X0233454Y0054953D01*
X0233582Y0055046D01*
X0233712Y0055136D01*
X0233845Y0055222D01*
X0233980Y0055306D01*
X0234116Y0055385D01*
X0234255Y0055462D01*
X0234396Y0055534D01*
X0234538Y0055604D01*
X0234682Y0055669D01*
X0234828Y0055731D01*
X0234975Y0055789D01*
X0235124Y0055844D01*
X0235274Y0055895D01*
X0235425Y0055942D01*
X0235577Y0055985D01*
X0235730Y0056024D01*
X0235885Y0056060D01*
X0236040Y0056091D01*
X0236196Y0056119D01*
X0236352Y0056143D01*
X0236509Y0056163D01*
X0236667Y0056179D01*
X0236824Y0056191D01*
X0236983Y0056199D01*
X0237141Y0056203D01*
X0237299Y0056203D01*
X0237457Y0056199D01*
X0237616Y0056191D01*
X0237773Y0056179D01*
X0237931Y0056163D01*
X0238088Y0056143D01*
X0238244Y0056119D01*
X0238400Y0056091D01*
X0238555Y0056060D01*
X0238710Y0056024D01*
X0238863Y0055985D01*
X0239015Y0055942D01*
X0239166Y0055895D01*
X0239316Y0055844D01*
X0239465Y0055789D01*
X0239612Y0055731D01*
X0239758Y0055669D01*
X0239902Y0055604D01*
X0240044Y0055534D01*
X0240185Y0055462D01*
X0240324Y0055385D01*
X0240460Y0055306D01*
X0240595Y0055222D01*
X0240728Y0055136D01*
X0240858Y0055046D01*
X0240986Y0054953D01*
X0241112Y0054857D01*
X0241235Y0054757D01*
X0241356Y0054655D01*
X0241474Y0054550D01*
X0241589Y0054441D01*
X0241702Y0054330D01*
X0241812Y0054216D01*
X0241919Y0054099D01*
X0242023Y0053980D01*
X0242124Y0053858D01*
X0242221Y0053733D01*
X0242316Y0053606D01*
X0242407Y0053477D01*
X0242496Y0053346D01*
X0242580Y0053212D01*
X0242662Y0053076D01*
X0242740Y0052939D01*
X0242814Y0052799D01*
X0242885Y0052657D01*
X0242953Y0052514D01*
X0243017Y0052369D01*
X0243077Y0052223D01*
X0243133Y0052075D01*
X0243186Y0051926D01*
X0243235Y0051775D01*
X0243280Y0051623D01*
X0243321Y0051470D01*
X0243359Y0051317D01*
X0243392Y0051162D01*
X0243422Y0051006D01*
X0243448Y0050850D01*
X0243469Y0050693D01*
X0243487Y0050536D01*
X0243501Y0050378D01*
X0243511Y0050220D01*
X0243517Y0050062D01*
X0243519Y0049904D01*
X0243517Y0049746D01*
X0243511Y0049588D01*
X0243501Y0049430D01*
X0243487Y0049272D01*
X0243469Y0049115D01*
X0243448Y0048958D01*
X0243422Y0048802D01*
X0243392Y0048646D01*
X0243359Y0048491D01*
X0243321Y0048338D01*
X0243280Y0048185D01*
X0243235Y0048033D01*
X0243186Y0047882D01*
X0243133Y0047733D01*
X0243077Y0047585D01*
X0243017Y0047439D01*
X0242953Y0047294D01*
X0242885Y0047151D01*
X0242814Y0047009D01*
X0242740Y0046869D01*
X0242662Y0046732D01*
X0242580Y0046596D01*
X0242496Y0046462D01*
X0242407Y0046331D01*
X0242316Y0046202D01*
X0242221Y0046075D01*
X0242124Y0045950D01*
X0242023Y0045828D01*
X0241919Y0045709D01*
X0241812Y0045592D01*
X0241702Y0045478D01*
X0241589Y0045367D01*
X0241474Y0045258D01*
X0241356Y0045153D01*
X0241235Y0045051D01*
X0241112Y0044951D01*
X0240986Y0044855D01*
X0240858Y0044762D01*
X0240728Y0044672D01*
X0240595Y0044586D01*
X0240460Y0044502D01*
X0240324Y0044423D01*
X0240185Y0044346D01*
X0240044Y0044274D01*
X0239902Y0044204D01*
X0239758Y0044139D01*
X0239612Y0044077D01*
X0239465Y0044019D01*
X0239316Y0043964D01*
X0239166Y0043913D01*
X0239015Y0043866D01*
X0238863Y0043823D01*
X0238710Y0043784D01*
X0238555Y0043748D01*
X0238400Y0043717D01*
X0238244Y0043689D01*
X0238088Y0043665D01*
X0237931Y0043645D01*
X0237773Y0043629D01*
X0237616Y0043617D01*
X0237457Y0043609D01*
X0237299Y0043605D01*
X0237141Y0043605D01*
X0236983Y0043609D01*
X0236824Y0043617D01*
X0236667Y0043629D01*
X0236509Y0043645D01*
X0236352Y0043665D01*
X0236196Y0043689D01*
X0236040Y0043717D01*
X0235885Y0043748D01*
X0235730Y0043784D01*
X0235577Y0043823D01*
X0235425Y0043866D01*
X0235274Y0043913D01*
X0235124Y0043964D01*
X0234975Y0044019D01*
X0234828Y0044077D01*
X0234682Y0044139D01*
X0234538Y0044204D01*
X0234396Y0044274D01*
X0234255Y0044346D01*
X0234116Y0044423D01*
X0233980Y0044502D01*
X0233845Y0044586D01*
X0233712Y0044672D01*
X0233582Y0044762D01*
X0233454Y0044855D01*
X0233328Y0044951D01*
X0233205Y0045051D01*
X0233084Y0045153D01*
X0232966Y0045258D01*
X0232851Y0045367D01*
X0232738Y0045478D01*
X0232628Y0045592D01*
X0232521Y0045709D01*
X0232417Y0045828D01*
X0232316Y0045950D01*
X0232219Y0046075D01*
X0232124Y0046202D01*
X0232033Y0046331D01*
X0231944Y0046462D01*
X0231860Y0046596D01*
X0231778Y0046732D01*
X0231700Y0046869D01*
X0231626Y0047009D01*
X0231555Y0047151D01*
X0231487Y0047294D01*
X0231423Y0047439D01*
X0231363Y0047585D01*
X0231307Y0047733D01*
X0231254Y0047882D01*
X0231205Y0048033D01*
X0231160Y0048185D01*
X0231119Y0048338D01*
X0231081Y0048491D01*
X0231048Y0048646D01*
X0231018Y0048802D01*
X0230992Y0048958D01*
X0230971Y0049115D01*
X0230953Y0049272D01*
X0230939Y0049430D01*
X0230929Y0049588D01*
X0230923Y0049746D01*
X0230921Y0049904D01*
X0237220Y0034156D02*
X0237601Y0034161D01*
X0237981Y0034174D01*
X0238361Y0034197D01*
X0238740Y0034230D01*
X0239118Y0034271D01*
X0239495Y0034321D01*
X0239871Y0034381D01*
X0240246Y0034449D01*
X0240618Y0034527D01*
X0240989Y0034614D01*
X0241357Y0034709D01*
X0241723Y0034814D01*
X0242086Y0034927D01*
X0242447Y0035049D01*
X0242804Y0035179D01*
X0243158Y0035319D01*
X0243509Y0035466D01*
X0243856Y0035623D01*
X0244199Y0035787D01*
X0244538Y0035960D01*
X0244873Y0036141D01*
X0245204Y0036330D01*
X0245529Y0036527D01*
X0245850Y0036731D01*
X0246166Y0036944D01*
X0246476Y0037164D01*
X0246782Y0037391D01*
X0247081Y0037626D01*
X0247375Y0037868D01*
X0247663Y0038116D01*
X0247945Y0038372D01*
X0248220Y0038635D01*
X0248489Y0038904D01*
X0248752Y0039179D01*
X0249008Y0039461D01*
X0249256Y0039749D01*
X0249498Y0040043D01*
X0249733Y0040342D01*
X0249960Y0040648D01*
X0250180Y0040958D01*
X0250393Y0041274D01*
X0250597Y0041595D01*
X0250794Y0041920D01*
X0250983Y0042251D01*
X0251164Y0042586D01*
X0251337Y0042925D01*
X0251501Y0043268D01*
X0251658Y0043615D01*
X0251805Y0043966D01*
X0251945Y0044320D01*
X0252075Y0044677D01*
X0252197Y0045038D01*
X0252310Y0045401D01*
X0252415Y0045767D01*
X0252510Y0046135D01*
X0252597Y0046506D01*
X0252675Y0046878D01*
X0252743Y0047253D01*
X0252803Y0047629D01*
X0252853Y0048006D01*
X0252894Y0048384D01*
X0252927Y0048763D01*
X0252950Y0049143D01*
X0252963Y0049523D01*
X0252968Y0049904D01*
X0252969Y0049904D02*
X0252969Y0215259D01*
X0230921Y0215259D02*
X0230923Y0215417D01*
X0230929Y0215575D01*
X0230939Y0215733D01*
X0230953Y0215891D01*
X0230971Y0216048D01*
X0230992Y0216205D01*
X0231018Y0216361D01*
X0231048Y0216517D01*
X0231081Y0216672D01*
X0231119Y0216825D01*
X0231160Y0216978D01*
X0231205Y0217130D01*
X0231254Y0217281D01*
X0231307Y0217430D01*
X0231363Y0217578D01*
X0231423Y0217724D01*
X0231487Y0217869D01*
X0231555Y0218012D01*
X0231626Y0218154D01*
X0231700Y0218294D01*
X0231778Y0218431D01*
X0231860Y0218567D01*
X0231944Y0218701D01*
X0232033Y0218832D01*
X0232124Y0218961D01*
X0232219Y0219088D01*
X0232316Y0219213D01*
X0232417Y0219335D01*
X0232521Y0219454D01*
X0232628Y0219571D01*
X0232738Y0219685D01*
X0232851Y0219796D01*
X0232966Y0219905D01*
X0233084Y0220010D01*
X0233205Y0220112D01*
X0233328Y0220212D01*
X0233454Y0220308D01*
X0233582Y0220401D01*
X0233712Y0220491D01*
X0233845Y0220577D01*
X0233980Y0220661D01*
X0234116Y0220740D01*
X0234255Y0220817D01*
X0234396Y0220889D01*
X0234538Y0220959D01*
X0234682Y0221024D01*
X0234828Y0221086D01*
X0234975Y0221144D01*
X0235124Y0221199D01*
X0235274Y0221250D01*
X0235425Y0221297D01*
X0235577Y0221340D01*
X0235730Y0221379D01*
X0235885Y0221415D01*
X0236040Y0221446D01*
X0236196Y0221474D01*
X0236352Y0221498D01*
X0236509Y0221518D01*
X0236667Y0221534D01*
X0236824Y0221546D01*
X0236983Y0221554D01*
X0237141Y0221558D01*
X0237299Y0221558D01*
X0237457Y0221554D01*
X0237616Y0221546D01*
X0237773Y0221534D01*
X0237931Y0221518D01*
X0238088Y0221498D01*
X0238244Y0221474D01*
X0238400Y0221446D01*
X0238555Y0221415D01*
X0238710Y0221379D01*
X0238863Y0221340D01*
X0239015Y0221297D01*
X0239166Y0221250D01*
X0239316Y0221199D01*
X0239465Y0221144D01*
X0239612Y0221086D01*
X0239758Y0221024D01*
X0239902Y0220959D01*
X0240044Y0220889D01*
X0240185Y0220817D01*
X0240324Y0220740D01*
X0240460Y0220661D01*
X0240595Y0220577D01*
X0240728Y0220491D01*
X0240858Y0220401D01*
X0240986Y0220308D01*
X0241112Y0220212D01*
X0241235Y0220112D01*
X0241356Y0220010D01*
X0241474Y0219905D01*
X0241589Y0219796D01*
X0241702Y0219685D01*
X0241812Y0219571D01*
X0241919Y0219454D01*
X0242023Y0219335D01*
X0242124Y0219213D01*
X0242221Y0219088D01*
X0242316Y0218961D01*
X0242407Y0218832D01*
X0242496Y0218701D01*
X0242580Y0218567D01*
X0242662Y0218431D01*
X0242740Y0218294D01*
X0242814Y0218154D01*
X0242885Y0218012D01*
X0242953Y0217869D01*
X0243017Y0217724D01*
X0243077Y0217578D01*
X0243133Y0217430D01*
X0243186Y0217281D01*
X0243235Y0217130D01*
X0243280Y0216978D01*
X0243321Y0216825D01*
X0243359Y0216672D01*
X0243392Y0216517D01*
X0243422Y0216361D01*
X0243448Y0216205D01*
X0243469Y0216048D01*
X0243487Y0215891D01*
X0243501Y0215733D01*
X0243511Y0215575D01*
X0243517Y0215417D01*
X0243519Y0215259D01*
X0243517Y0215101D01*
X0243511Y0214943D01*
X0243501Y0214785D01*
X0243487Y0214627D01*
X0243469Y0214470D01*
X0243448Y0214313D01*
X0243422Y0214157D01*
X0243392Y0214001D01*
X0243359Y0213846D01*
X0243321Y0213693D01*
X0243280Y0213540D01*
X0243235Y0213388D01*
X0243186Y0213237D01*
X0243133Y0213088D01*
X0243077Y0212940D01*
X0243017Y0212794D01*
X0242953Y0212649D01*
X0242885Y0212506D01*
X0242814Y0212364D01*
X0242740Y0212224D01*
X0242662Y0212087D01*
X0242580Y0211951D01*
X0242496Y0211817D01*
X0242407Y0211686D01*
X0242316Y0211557D01*
X0242221Y0211430D01*
X0242124Y0211305D01*
X0242023Y0211183D01*
X0241919Y0211064D01*
X0241812Y0210947D01*
X0241702Y0210833D01*
X0241589Y0210722D01*
X0241474Y0210613D01*
X0241356Y0210508D01*
X0241235Y0210406D01*
X0241112Y0210306D01*
X0240986Y0210210D01*
X0240858Y0210117D01*
X0240728Y0210027D01*
X0240595Y0209941D01*
X0240460Y0209857D01*
X0240324Y0209778D01*
X0240185Y0209701D01*
X0240044Y0209629D01*
X0239902Y0209559D01*
X0239758Y0209494D01*
X0239612Y0209432D01*
X0239465Y0209374D01*
X0239316Y0209319D01*
X0239166Y0209268D01*
X0239015Y0209221D01*
X0238863Y0209178D01*
X0238710Y0209139D01*
X0238555Y0209103D01*
X0238400Y0209072D01*
X0238244Y0209044D01*
X0238088Y0209020D01*
X0237931Y0209000D01*
X0237773Y0208984D01*
X0237616Y0208972D01*
X0237457Y0208964D01*
X0237299Y0208960D01*
X0237141Y0208960D01*
X0236983Y0208964D01*
X0236824Y0208972D01*
X0236667Y0208984D01*
X0236509Y0209000D01*
X0236352Y0209020D01*
X0236196Y0209044D01*
X0236040Y0209072D01*
X0235885Y0209103D01*
X0235730Y0209139D01*
X0235577Y0209178D01*
X0235425Y0209221D01*
X0235274Y0209268D01*
X0235124Y0209319D01*
X0234975Y0209374D01*
X0234828Y0209432D01*
X0234682Y0209494D01*
X0234538Y0209559D01*
X0234396Y0209629D01*
X0234255Y0209701D01*
X0234116Y0209778D01*
X0233980Y0209857D01*
X0233845Y0209941D01*
X0233712Y0210027D01*
X0233582Y0210117D01*
X0233454Y0210210D01*
X0233328Y0210306D01*
X0233205Y0210406D01*
X0233084Y0210508D01*
X0232966Y0210613D01*
X0232851Y0210722D01*
X0232738Y0210833D01*
X0232628Y0210947D01*
X0232521Y0211064D01*
X0232417Y0211183D01*
X0232316Y0211305D01*
X0232219Y0211430D01*
X0232124Y0211557D01*
X0232033Y0211686D01*
X0231944Y0211817D01*
X0231860Y0211951D01*
X0231778Y0212087D01*
X0231700Y0212224D01*
X0231626Y0212364D01*
X0231555Y0212506D01*
X0231487Y0212649D01*
X0231423Y0212794D01*
X0231363Y0212940D01*
X0231307Y0213088D01*
X0231254Y0213237D01*
X0231205Y0213388D01*
X0231160Y0213540D01*
X0231119Y0213693D01*
X0231081Y0213846D01*
X0231048Y0214001D01*
X0231018Y0214157D01*
X0230992Y0214313D01*
X0230971Y0214470D01*
X0230953Y0214627D01*
X0230939Y0214785D01*
X0230929Y0214943D01*
X0230923Y0215101D01*
X0230921Y0215259D01*
X0237220Y0231007D02*
X0237601Y0231002D01*
X0237981Y0230989D01*
X0238361Y0230966D01*
X0238740Y0230933D01*
X0239118Y0230892D01*
X0239495Y0230842D01*
X0239871Y0230782D01*
X0240246Y0230714D01*
X0240618Y0230636D01*
X0240989Y0230549D01*
X0241357Y0230454D01*
X0241723Y0230349D01*
X0242086Y0230236D01*
X0242447Y0230114D01*
X0242804Y0229984D01*
X0243158Y0229844D01*
X0243509Y0229697D01*
X0243856Y0229540D01*
X0244199Y0229376D01*
X0244538Y0229203D01*
X0244873Y0229022D01*
X0245204Y0228833D01*
X0245529Y0228636D01*
X0245850Y0228432D01*
X0246166Y0228219D01*
X0246476Y0227999D01*
X0246782Y0227772D01*
X0247081Y0227537D01*
X0247375Y0227295D01*
X0247663Y0227047D01*
X0247945Y0226791D01*
X0248220Y0226528D01*
X0248489Y0226259D01*
X0248752Y0225984D01*
X0249008Y0225702D01*
X0249256Y0225414D01*
X0249498Y0225120D01*
X0249733Y0224821D01*
X0249960Y0224515D01*
X0250180Y0224205D01*
X0250393Y0223889D01*
X0250597Y0223568D01*
X0250794Y0223243D01*
X0250983Y0222912D01*
X0251164Y0222577D01*
X0251337Y0222238D01*
X0251501Y0221895D01*
X0251658Y0221548D01*
X0251805Y0221197D01*
X0251945Y0220843D01*
X0252075Y0220486D01*
X0252197Y0220125D01*
X0252310Y0219762D01*
X0252415Y0219396D01*
X0252510Y0219028D01*
X0252597Y0218657D01*
X0252675Y0218285D01*
X0252743Y0217910D01*
X0252803Y0217534D01*
X0252853Y0217157D01*
X0252894Y0216779D01*
X0252927Y0216400D01*
X0252950Y0216020D01*
X0252963Y0215640D01*
X0252968Y0215259D01*
X0237220Y0231007D02*
X0071866Y0231007D01*
X0065567Y0215259D02*
X0065569Y0215417D01*
X0065575Y0215575D01*
X0065585Y0215733D01*
X0065599Y0215891D01*
X0065617Y0216048D01*
X0065638Y0216205D01*
X0065664Y0216361D01*
X0065694Y0216517D01*
X0065727Y0216672D01*
X0065765Y0216825D01*
X0065806Y0216978D01*
X0065851Y0217130D01*
X0065900Y0217281D01*
X0065953Y0217430D01*
X0066009Y0217578D01*
X0066069Y0217724D01*
X0066133Y0217869D01*
X0066201Y0218012D01*
X0066272Y0218154D01*
X0066346Y0218294D01*
X0066424Y0218431D01*
X0066506Y0218567D01*
X0066590Y0218701D01*
X0066679Y0218832D01*
X0066770Y0218961D01*
X0066865Y0219088D01*
X0066962Y0219213D01*
X0067063Y0219335D01*
X0067167Y0219454D01*
X0067274Y0219571D01*
X0067384Y0219685D01*
X0067497Y0219796D01*
X0067612Y0219905D01*
X0067730Y0220010D01*
X0067851Y0220112D01*
X0067974Y0220212D01*
X0068100Y0220308D01*
X0068228Y0220401D01*
X0068358Y0220491D01*
X0068491Y0220577D01*
X0068626Y0220661D01*
X0068762Y0220740D01*
X0068901Y0220817D01*
X0069042Y0220889D01*
X0069184Y0220959D01*
X0069328Y0221024D01*
X0069474Y0221086D01*
X0069621Y0221144D01*
X0069770Y0221199D01*
X0069920Y0221250D01*
X0070071Y0221297D01*
X0070223Y0221340D01*
X0070376Y0221379D01*
X0070531Y0221415D01*
X0070686Y0221446D01*
X0070842Y0221474D01*
X0070998Y0221498D01*
X0071155Y0221518D01*
X0071313Y0221534D01*
X0071470Y0221546D01*
X0071629Y0221554D01*
X0071787Y0221558D01*
X0071945Y0221558D01*
X0072103Y0221554D01*
X0072262Y0221546D01*
X0072419Y0221534D01*
X0072577Y0221518D01*
X0072734Y0221498D01*
X0072890Y0221474D01*
X0073046Y0221446D01*
X0073201Y0221415D01*
X0073356Y0221379D01*
X0073509Y0221340D01*
X0073661Y0221297D01*
X0073812Y0221250D01*
X0073962Y0221199D01*
X0074111Y0221144D01*
X0074258Y0221086D01*
X0074404Y0221024D01*
X0074548Y0220959D01*
X0074690Y0220889D01*
X0074831Y0220817D01*
X0074970Y0220740D01*
X0075106Y0220661D01*
X0075241Y0220577D01*
X0075374Y0220491D01*
X0075504Y0220401D01*
X0075632Y0220308D01*
X0075758Y0220212D01*
X0075881Y0220112D01*
X0076002Y0220010D01*
X0076120Y0219905D01*
X0076235Y0219796D01*
X0076348Y0219685D01*
X0076458Y0219571D01*
X0076565Y0219454D01*
X0076669Y0219335D01*
X0076770Y0219213D01*
X0076867Y0219088D01*
X0076962Y0218961D01*
X0077053Y0218832D01*
X0077142Y0218701D01*
X0077226Y0218567D01*
X0077308Y0218431D01*
X0077386Y0218294D01*
X0077460Y0218154D01*
X0077531Y0218012D01*
X0077599Y0217869D01*
X0077663Y0217724D01*
X0077723Y0217578D01*
X0077779Y0217430D01*
X0077832Y0217281D01*
X0077881Y0217130D01*
X0077926Y0216978D01*
X0077967Y0216825D01*
X0078005Y0216672D01*
X0078038Y0216517D01*
X0078068Y0216361D01*
X0078094Y0216205D01*
X0078115Y0216048D01*
X0078133Y0215891D01*
X0078147Y0215733D01*
X0078157Y0215575D01*
X0078163Y0215417D01*
X0078165Y0215259D01*
X0078163Y0215101D01*
X0078157Y0214943D01*
X0078147Y0214785D01*
X0078133Y0214627D01*
X0078115Y0214470D01*
X0078094Y0214313D01*
X0078068Y0214157D01*
X0078038Y0214001D01*
X0078005Y0213846D01*
X0077967Y0213693D01*
X0077926Y0213540D01*
X0077881Y0213388D01*
X0077832Y0213237D01*
X0077779Y0213088D01*
X0077723Y0212940D01*
X0077663Y0212794D01*
X0077599Y0212649D01*
X0077531Y0212506D01*
X0077460Y0212364D01*
X0077386Y0212224D01*
X0077308Y0212087D01*
X0077226Y0211951D01*
X0077142Y0211817D01*
X0077053Y0211686D01*
X0076962Y0211557D01*
X0076867Y0211430D01*
X0076770Y0211305D01*
X0076669Y0211183D01*
X0076565Y0211064D01*
X0076458Y0210947D01*
X0076348Y0210833D01*
X0076235Y0210722D01*
X0076120Y0210613D01*
X0076002Y0210508D01*
X0075881Y0210406D01*
X0075758Y0210306D01*
X0075632Y0210210D01*
X0075504Y0210117D01*
X0075374Y0210027D01*
X0075241Y0209941D01*
X0075106Y0209857D01*
X0074970Y0209778D01*
X0074831Y0209701D01*
X0074690Y0209629D01*
X0074548Y0209559D01*
X0074404Y0209494D01*
X0074258Y0209432D01*
X0074111Y0209374D01*
X0073962Y0209319D01*
X0073812Y0209268D01*
X0073661Y0209221D01*
X0073509Y0209178D01*
X0073356Y0209139D01*
X0073201Y0209103D01*
X0073046Y0209072D01*
X0072890Y0209044D01*
X0072734Y0209020D01*
X0072577Y0209000D01*
X0072419Y0208984D01*
X0072262Y0208972D01*
X0072103Y0208964D01*
X0071945Y0208960D01*
X0071787Y0208960D01*
X0071629Y0208964D01*
X0071470Y0208972D01*
X0071313Y0208984D01*
X0071155Y0209000D01*
X0070998Y0209020D01*
X0070842Y0209044D01*
X0070686Y0209072D01*
X0070531Y0209103D01*
X0070376Y0209139D01*
X0070223Y0209178D01*
X0070071Y0209221D01*
X0069920Y0209268D01*
X0069770Y0209319D01*
X0069621Y0209374D01*
X0069474Y0209432D01*
X0069328Y0209494D01*
X0069184Y0209559D01*
X0069042Y0209629D01*
X0068901Y0209701D01*
X0068762Y0209778D01*
X0068626Y0209857D01*
X0068491Y0209941D01*
X0068358Y0210027D01*
X0068228Y0210117D01*
X0068100Y0210210D01*
X0067974Y0210306D01*
X0067851Y0210406D01*
X0067730Y0210508D01*
X0067612Y0210613D01*
X0067497Y0210722D01*
X0067384Y0210833D01*
X0067274Y0210947D01*
X0067167Y0211064D01*
X0067063Y0211183D01*
X0066962Y0211305D01*
X0066865Y0211430D01*
X0066770Y0211557D01*
X0066679Y0211686D01*
X0066590Y0211817D01*
X0066506Y0211951D01*
X0066424Y0212087D01*
X0066346Y0212224D01*
X0066272Y0212364D01*
X0066201Y0212506D01*
X0066133Y0212649D01*
X0066069Y0212794D01*
X0066009Y0212940D01*
X0065953Y0213088D01*
X0065900Y0213237D01*
X0065851Y0213388D01*
X0065806Y0213540D01*
X0065765Y0213693D01*
X0065727Y0213846D01*
X0065694Y0214001D01*
X0065664Y0214157D01*
X0065638Y0214313D01*
X0065617Y0214470D01*
X0065599Y0214627D01*
X0065585Y0214785D01*
X0065575Y0214943D01*
X0065569Y0215101D01*
X0065567Y0215259D01*
X0056118Y0215259D02*
X0056123Y0215640D01*
X0056136Y0216020D01*
X0056159Y0216400D01*
X0056192Y0216779D01*
X0056233Y0217157D01*
X0056283Y0217534D01*
X0056343Y0217910D01*
X0056411Y0218285D01*
X0056489Y0218657D01*
X0056576Y0219028D01*
X0056671Y0219396D01*
X0056776Y0219762D01*
X0056889Y0220125D01*
X0057011Y0220486D01*
X0057141Y0220843D01*
X0057281Y0221197D01*
X0057428Y0221548D01*
X0057585Y0221895D01*
X0057749Y0222238D01*
X0057922Y0222577D01*
X0058103Y0222912D01*
X0058292Y0223243D01*
X0058489Y0223568D01*
X0058693Y0223889D01*
X0058906Y0224205D01*
X0059126Y0224515D01*
X0059353Y0224821D01*
X0059588Y0225120D01*
X0059830Y0225414D01*
X0060078Y0225702D01*
X0060334Y0225984D01*
X0060597Y0226259D01*
X0060866Y0226528D01*
X0061141Y0226791D01*
X0061423Y0227047D01*
X0061711Y0227295D01*
X0062005Y0227537D01*
X0062304Y0227772D01*
X0062610Y0227999D01*
X0062920Y0228219D01*
X0063236Y0228432D01*
X0063557Y0228636D01*
X0063882Y0228833D01*
X0064213Y0229022D01*
X0064548Y0229203D01*
X0064887Y0229376D01*
X0065230Y0229540D01*
X0065577Y0229697D01*
X0065928Y0229844D01*
X0066282Y0229984D01*
X0066639Y0230114D01*
X0067000Y0230236D01*
X0067363Y0230349D01*
X0067729Y0230454D01*
X0068097Y0230549D01*
X0068468Y0230636D01*
X0068840Y0230714D01*
X0069215Y0230782D01*
X0069591Y0230842D01*
X0069968Y0230892D01*
X0070346Y0230933D01*
X0070725Y0230966D01*
X0071105Y0230989D01*
X0071485Y0231002D01*
X0071866Y0231007D01*
X0303618Y0164156D02*
X0303620Y0164317D01*
X0303626Y0164477D01*
X0303636Y0164638D01*
X0303650Y0164798D01*
X0303668Y0164958D01*
X0303689Y0165117D01*
X0303715Y0165276D01*
X0303745Y0165434D01*
X0303778Y0165591D01*
X0303816Y0165748D01*
X0303857Y0165903D01*
X0303902Y0166057D01*
X0303951Y0166210D01*
X0304004Y0166362D01*
X0304060Y0166513D01*
X0304121Y0166662D01*
X0304184Y0166810D01*
X0304252Y0166956D01*
X0304323Y0167100D01*
X0304397Y0167242D01*
X0304475Y0167383D01*
X0304557Y0167521D01*
X0304642Y0167658D01*
X0304730Y0167792D01*
X0304822Y0167924D01*
X0304917Y0168054D01*
X0305015Y0168182D01*
X0305116Y0168307D01*
X0305220Y0168429D01*
X0305327Y0168549D01*
X0305437Y0168666D01*
X0305550Y0168781D01*
X0305666Y0168892D01*
X0305785Y0169001D01*
X0305906Y0169106D01*
X0306030Y0169209D01*
X0306156Y0169309D01*
X0306284Y0169405D01*
X0306415Y0169498D01*
X0306549Y0169588D01*
X0306684Y0169675D01*
X0306822Y0169758D01*
X0306961Y0169838D01*
X0307103Y0169914D01*
X0307246Y0169987D01*
X0307391Y0170056D01*
X0307538Y0170122D01*
X0307686Y0170184D01*
X0307836Y0170242D01*
X0307987Y0170297D01*
X0308140Y0170348D01*
X0308294Y0170395D01*
X0308449Y0170438D01*
X0308605Y0170477D01*
X0308761Y0170513D01*
X0308919Y0170544D01*
X0309077Y0170572D01*
X0309236Y0170596D01*
X0309396Y0170616D01*
X0309556Y0170632D01*
X0309716Y0170644D01*
X0309877Y0170652D01*
X0310038Y0170656D01*
X0310198Y0170656D01*
X0310359Y0170652D01*
X0310520Y0170644D01*
X0310680Y0170632D01*
X0310840Y0170616D01*
X0311000Y0170596D01*
X0311159Y0170572D01*
X0311317Y0170544D01*
X0311475Y0170513D01*
X0311631Y0170477D01*
X0311787Y0170438D01*
X0311942Y0170395D01*
X0312096Y0170348D01*
X0312249Y0170297D01*
X0312400Y0170242D01*
X0312550Y0170184D01*
X0312698Y0170122D01*
X0312845Y0170056D01*
X0312990Y0169987D01*
X0313133Y0169914D01*
X0313275Y0169838D01*
X0313414Y0169758D01*
X0313552Y0169675D01*
X0313687Y0169588D01*
X0313821Y0169498D01*
X0313952Y0169405D01*
X0314080Y0169309D01*
X0314206Y0169209D01*
X0314330Y0169106D01*
X0314451Y0169001D01*
X0314570Y0168892D01*
X0314686Y0168781D01*
X0314799Y0168666D01*
X0314909Y0168549D01*
X0315016Y0168429D01*
X0315120Y0168307D01*
X0315221Y0168182D01*
X0315319Y0168054D01*
X0315414Y0167924D01*
X0315506Y0167792D01*
X0315594Y0167658D01*
X0315679Y0167521D01*
X0315761Y0167383D01*
X0315839Y0167242D01*
X0315913Y0167100D01*
X0315984Y0166956D01*
X0316052Y0166810D01*
X0316115Y0166662D01*
X0316176Y0166513D01*
X0316232Y0166362D01*
X0316285Y0166210D01*
X0316334Y0166057D01*
X0316379Y0165903D01*
X0316420Y0165748D01*
X0316458Y0165591D01*
X0316491Y0165434D01*
X0316521Y0165276D01*
X0316547Y0165117D01*
X0316568Y0164958D01*
X0316586Y0164798D01*
X0316600Y0164638D01*
X0316610Y0164477D01*
X0316616Y0164317D01*
X0316618Y0164156D01*
X0316616Y0163995D01*
X0316610Y0163835D01*
X0316600Y0163674D01*
X0316586Y0163514D01*
X0316568Y0163354D01*
X0316547Y0163195D01*
X0316521Y0163036D01*
X0316491Y0162878D01*
X0316458Y0162721D01*
X0316420Y0162564D01*
X0316379Y0162409D01*
X0316334Y0162255D01*
X0316285Y0162102D01*
X0316232Y0161950D01*
X0316176Y0161799D01*
X0316115Y0161650D01*
X0316052Y0161502D01*
X0315984Y0161356D01*
X0315913Y0161212D01*
X0315839Y0161070D01*
X0315761Y0160929D01*
X0315679Y0160791D01*
X0315594Y0160654D01*
X0315506Y0160520D01*
X0315414Y0160388D01*
X0315319Y0160258D01*
X0315221Y0160130D01*
X0315120Y0160005D01*
X0315016Y0159883D01*
X0314909Y0159763D01*
X0314799Y0159646D01*
X0314686Y0159531D01*
X0314570Y0159420D01*
X0314451Y0159311D01*
X0314330Y0159206D01*
X0314206Y0159103D01*
X0314080Y0159003D01*
X0313952Y0158907D01*
X0313821Y0158814D01*
X0313687Y0158724D01*
X0313552Y0158637D01*
X0313414Y0158554D01*
X0313275Y0158474D01*
X0313133Y0158398D01*
X0312990Y0158325D01*
X0312845Y0158256D01*
X0312698Y0158190D01*
X0312550Y0158128D01*
X0312400Y0158070D01*
X0312249Y0158015D01*
X0312096Y0157964D01*
X0311942Y0157917D01*
X0311787Y0157874D01*
X0311631Y0157835D01*
X0311475Y0157799D01*
X0311317Y0157768D01*
X0311159Y0157740D01*
X0311000Y0157716D01*
X0310840Y0157696D01*
X0310680Y0157680D01*
X0310520Y0157668D01*
X0310359Y0157660D01*
X0310198Y0157656D01*
X0310038Y0157656D01*
X0309877Y0157660D01*
X0309716Y0157668D01*
X0309556Y0157680D01*
X0309396Y0157696D01*
X0309236Y0157716D01*
X0309077Y0157740D01*
X0308919Y0157768D01*
X0308761Y0157799D01*
X0308605Y0157835D01*
X0308449Y0157874D01*
X0308294Y0157917D01*
X0308140Y0157964D01*
X0307987Y0158015D01*
X0307836Y0158070D01*
X0307686Y0158128D01*
X0307538Y0158190D01*
X0307391Y0158256D01*
X0307246Y0158325D01*
X0307103Y0158398D01*
X0306961Y0158474D01*
X0306822Y0158554D01*
X0306684Y0158637D01*
X0306549Y0158724D01*
X0306415Y0158814D01*
X0306284Y0158907D01*
X0306156Y0159003D01*
X0306030Y0159103D01*
X0305906Y0159206D01*
X0305785Y0159311D01*
X0305666Y0159420D01*
X0305550Y0159531D01*
X0305437Y0159646D01*
X0305327Y0159763D01*
X0305220Y0159883D01*
X0305116Y0160005D01*
X0305015Y0160130D01*
X0304917Y0160258D01*
X0304822Y0160388D01*
X0304730Y0160520D01*
X0304642Y0160654D01*
X0304557Y0160791D01*
X0304475Y0160929D01*
X0304397Y0161070D01*
X0304323Y0161212D01*
X0304252Y0161356D01*
X0304184Y0161502D01*
X0304121Y0161650D01*
X0304060Y0161799D01*
X0304004Y0161950D01*
X0303951Y0162102D01*
X0303902Y0162255D01*
X0303857Y0162409D01*
X0303816Y0162564D01*
X0303778Y0162721D01*
X0303745Y0162878D01*
X0303715Y0163036D01*
X0303689Y0163195D01*
X0303668Y0163354D01*
X0303650Y0163514D01*
X0303636Y0163674D01*
X0303626Y0163835D01*
X0303620Y0163995D01*
X0303618Y0164156D01*
D19*
X0185318Y0104156D03*
X0156918Y0104156D03*
X0135318Y0104156D03*
X0106918Y0104156D03*
X0141918Y0199156D03*
X0170318Y0199156D03*
D20*
X0211069Y0064156D03*
X0101266Y0064156D03*
D21*
X0221748Y0079392D02*
X0228589Y0079392D01*
X0228589Y0108920D01*
X0221748Y0108920D01*
X0221748Y0079392D01*
X0228589Y0079392D02*
X0230462Y0079392D01*
X0230462Y0108920D01*
X0228589Y0108920D01*
X0230462Y0108920D02*
X0242481Y0108920D01*
X0242481Y0079392D01*
X0244383Y0079392D01*
X0247579Y0079392D01*
X0249307Y0079392D01*
X0250488Y0079392D01*
X0250488Y0108920D01*
X0249307Y0108920D01*
X0247579Y0108920D01*
X0247579Y0079392D01*
X0249307Y0079392D02*
X0249307Y0108920D01*
X0247579Y0108920D02*
X0244383Y0108920D01*
X0242481Y0108920D01*
X0244383Y0108920D02*
X0244383Y0079392D01*
X0244868Y0080495D02*
X0244868Y0082995D01*
X0247368Y0081745D01*
X0244868Y0080495D01*
X0244868Y0080846D02*
X0245570Y0080846D01*
X0244868Y0081244D02*
X0246367Y0081244D01*
X0247164Y0081643D02*
X0244868Y0081643D01*
X0244868Y0082041D02*
X0246775Y0082041D01*
X0245978Y0082440D02*
X0244868Y0082440D01*
X0244868Y0082838D02*
X0245181Y0082838D01*
X0242481Y0079392D02*
X0230462Y0079392D01*
X0238360Y0077799D02*
X0241430Y0073195D01*
X0242964Y0073195D02*
X0246033Y0073195D01*
X0244499Y0073195D02*
X0244499Y0077799D01*
X0242964Y0076264D01*
X0241430Y0077799D02*
X0238360Y0073195D01*
X0230803Y0087266D02*
X0230805Y0087417D01*
X0230811Y0087567D01*
X0230821Y0087718D01*
X0230835Y0087868D01*
X0230853Y0088017D01*
X0230874Y0088167D01*
X0230900Y0088315D01*
X0230930Y0088463D01*
X0230963Y0088610D01*
X0231001Y0088756D01*
X0231042Y0088901D01*
X0231087Y0089045D01*
X0231136Y0089187D01*
X0231189Y0089328D01*
X0231245Y0089468D01*
X0231305Y0089606D01*
X0231368Y0089743D01*
X0231436Y0089878D01*
X0231506Y0090011D01*
X0231580Y0090142D01*
X0231658Y0090271D01*
X0231739Y0090398D01*
X0231823Y0090523D01*
X0231911Y0090646D01*
X0232002Y0090766D01*
X0232096Y0090884D01*
X0232193Y0090999D01*
X0232293Y0091112D01*
X0232396Y0091222D01*
X0232502Y0091329D01*
X0232611Y0091434D01*
X0232722Y0091535D01*
X0232836Y0091634D01*
X0232952Y0091729D01*
X0233072Y0091822D01*
X0233193Y0091911D01*
X0233317Y0091997D01*
X0233443Y0092080D01*
X0233571Y0092159D01*
X0233701Y0092235D01*
X0233833Y0092308D01*
X0233967Y0092376D01*
X0234103Y0092442D01*
X0234241Y0092504D01*
X0234380Y0092562D01*
X0234520Y0092616D01*
X0234662Y0092667D01*
X0234805Y0092714D01*
X0234950Y0092757D01*
X0235095Y0092796D01*
X0235242Y0092832D01*
X0235389Y0092863D01*
X0235537Y0092891D01*
X0235686Y0092915D01*
X0235835Y0092935D01*
X0235985Y0092951D01*
X0236135Y0092963D01*
X0236286Y0092971D01*
X0236437Y0092975D01*
X0236587Y0092975D01*
X0236738Y0092971D01*
X0236889Y0092963D01*
X0237039Y0092951D01*
X0237189Y0092935D01*
X0237338Y0092915D01*
X0237487Y0092891D01*
X0237635Y0092863D01*
X0237782Y0092832D01*
X0237929Y0092796D01*
X0238074Y0092757D01*
X0238219Y0092714D01*
X0238362Y0092667D01*
X0238504Y0092616D01*
X0238644Y0092562D01*
X0238783Y0092504D01*
X0238921Y0092442D01*
X0239057Y0092376D01*
X0239191Y0092308D01*
X0239323Y0092235D01*
X0239453Y0092159D01*
X0239581Y0092080D01*
X0239707Y0091997D01*
X0239831Y0091911D01*
X0239952Y0091822D01*
X0240072Y0091729D01*
X0240188Y0091634D01*
X0240302Y0091535D01*
X0240413Y0091434D01*
X0240522Y0091329D01*
X0240628Y0091222D01*
X0240731Y0091112D01*
X0240831Y0090999D01*
X0240928Y0090884D01*
X0241022Y0090766D01*
X0241113Y0090646D01*
X0241201Y0090523D01*
X0241285Y0090398D01*
X0241366Y0090271D01*
X0241444Y0090142D01*
X0241518Y0090011D01*
X0241588Y0089878D01*
X0241656Y0089743D01*
X0241719Y0089606D01*
X0241779Y0089468D01*
X0241835Y0089328D01*
X0241888Y0089187D01*
X0241937Y0089045D01*
X0241982Y0088901D01*
X0242023Y0088756D01*
X0242061Y0088610D01*
X0242094Y0088463D01*
X0242124Y0088315D01*
X0242150Y0088167D01*
X0242171Y0088017D01*
X0242189Y0087868D01*
X0242203Y0087718D01*
X0242213Y0087567D01*
X0242219Y0087417D01*
X0242221Y0087266D01*
X0242219Y0087115D01*
X0242213Y0086965D01*
X0242203Y0086814D01*
X0242189Y0086664D01*
X0242171Y0086515D01*
X0242150Y0086365D01*
X0242124Y0086217D01*
X0242094Y0086069D01*
X0242061Y0085922D01*
X0242023Y0085776D01*
X0241982Y0085631D01*
X0241937Y0085487D01*
X0241888Y0085345D01*
X0241835Y0085204D01*
X0241779Y0085064D01*
X0241719Y0084926D01*
X0241656Y0084789D01*
X0241588Y0084654D01*
X0241518Y0084521D01*
X0241444Y0084390D01*
X0241366Y0084261D01*
X0241285Y0084134D01*
X0241201Y0084009D01*
X0241113Y0083886D01*
X0241022Y0083766D01*
X0240928Y0083648D01*
X0240831Y0083533D01*
X0240731Y0083420D01*
X0240628Y0083310D01*
X0240522Y0083203D01*
X0240413Y0083098D01*
X0240302Y0082997D01*
X0240188Y0082898D01*
X0240072Y0082803D01*
X0239952Y0082710D01*
X0239831Y0082621D01*
X0239707Y0082535D01*
X0239581Y0082452D01*
X0239453Y0082373D01*
X0239323Y0082297D01*
X0239191Y0082224D01*
X0239057Y0082156D01*
X0238921Y0082090D01*
X0238783Y0082028D01*
X0238644Y0081970D01*
X0238504Y0081916D01*
X0238362Y0081865D01*
X0238219Y0081818D01*
X0238074Y0081775D01*
X0237929Y0081736D01*
X0237782Y0081700D01*
X0237635Y0081669D01*
X0237487Y0081641D01*
X0237338Y0081617D01*
X0237189Y0081597D01*
X0237039Y0081581D01*
X0236889Y0081569D01*
X0236738Y0081561D01*
X0236587Y0081557D01*
X0236437Y0081557D01*
X0236286Y0081561D01*
X0236135Y0081569D01*
X0235985Y0081581D01*
X0235835Y0081597D01*
X0235686Y0081617D01*
X0235537Y0081641D01*
X0235389Y0081669D01*
X0235242Y0081700D01*
X0235095Y0081736D01*
X0234950Y0081775D01*
X0234805Y0081818D01*
X0234662Y0081865D01*
X0234520Y0081916D01*
X0234380Y0081970D01*
X0234241Y0082028D01*
X0234103Y0082090D01*
X0233967Y0082156D01*
X0233833Y0082224D01*
X0233701Y0082297D01*
X0233571Y0082373D01*
X0233443Y0082452D01*
X0233317Y0082535D01*
X0233193Y0082621D01*
X0233072Y0082710D01*
X0232952Y0082803D01*
X0232836Y0082898D01*
X0232722Y0082997D01*
X0232611Y0083098D01*
X0232502Y0083203D01*
X0232396Y0083310D01*
X0232293Y0083420D01*
X0232193Y0083533D01*
X0232096Y0083648D01*
X0232002Y0083766D01*
X0231911Y0083886D01*
X0231823Y0084009D01*
X0231739Y0084134D01*
X0231658Y0084261D01*
X0231580Y0084390D01*
X0231506Y0084521D01*
X0231436Y0084654D01*
X0231368Y0084789D01*
X0231305Y0084926D01*
X0231245Y0085064D01*
X0231189Y0085204D01*
X0231136Y0085345D01*
X0231087Y0085487D01*
X0231042Y0085631D01*
X0231001Y0085776D01*
X0230963Y0085922D01*
X0230930Y0086069D01*
X0230900Y0086217D01*
X0230874Y0086365D01*
X0230853Y0086515D01*
X0230835Y0086664D01*
X0230821Y0086814D01*
X0230811Y0086965D01*
X0230805Y0087115D01*
X0230803Y0087266D01*
X0227168Y0087229D02*
X0222564Y0087229D01*
X0224099Y0085695D01*
X0227168Y0085695D02*
X0227168Y0088764D01*
X0233713Y0092014D02*
X0233736Y0091991D01*
X0227168Y0099445D02*
X0224099Y0102514D01*
X0223332Y0102514D01*
X0222564Y0101747D01*
X0222564Y0100212D01*
X0223332Y0099445D01*
X0227168Y0099445D02*
X0227168Y0102514D01*
X0233713Y0105794D02*
X0233736Y0105770D01*
X0230803Y0101046D02*
X0230805Y0101197D01*
X0230811Y0101347D01*
X0230821Y0101498D01*
X0230835Y0101648D01*
X0230853Y0101797D01*
X0230874Y0101947D01*
X0230900Y0102095D01*
X0230930Y0102243D01*
X0230963Y0102390D01*
X0231001Y0102536D01*
X0231042Y0102681D01*
X0231087Y0102825D01*
X0231136Y0102967D01*
X0231189Y0103108D01*
X0231245Y0103248D01*
X0231305Y0103386D01*
X0231368Y0103523D01*
X0231436Y0103658D01*
X0231506Y0103791D01*
X0231580Y0103922D01*
X0231658Y0104051D01*
X0231739Y0104178D01*
X0231823Y0104303D01*
X0231911Y0104426D01*
X0232002Y0104546D01*
X0232096Y0104664D01*
X0232193Y0104779D01*
X0232293Y0104892D01*
X0232396Y0105002D01*
X0232502Y0105109D01*
X0232611Y0105214D01*
X0232722Y0105315D01*
X0232836Y0105414D01*
X0232952Y0105509D01*
X0233072Y0105602D01*
X0233193Y0105691D01*
X0233317Y0105777D01*
X0233443Y0105860D01*
X0233571Y0105939D01*
X0233701Y0106015D01*
X0233833Y0106088D01*
X0233967Y0106156D01*
X0234103Y0106222D01*
X0234241Y0106284D01*
X0234380Y0106342D01*
X0234520Y0106396D01*
X0234662Y0106447D01*
X0234805Y0106494D01*
X0234950Y0106537D01*
X0235095Y0106576D01*
X0235242Y0106612D01*
X0235389Y0106643D01*
X0235537Y0106671D01*
X0235686Y0106695D01*
X0235835Y0106715D01*
X0235985Y0106731D01*
X0236135Y0106743D01*
X0236286Y0106751D01*
X0236437Y0106755D01*
X0236587Y0106755D01*
X0236738Y0106751D01*
X0236889Y0106743D01*
X0237039Y0106731D01*
X0237189Y0106715D01*
X0237338Y0106695D01*
X0237487Y0106671D01*
X0237635Y0106643D01*
X0237782Y0106612D01*
X0237929Y0106576D01*
X0238074Y0106537D01*
X0238219Y0106494D01*
X0238362Y0106447D01*
X0238504Y0106396D01*
X0238644Y0106342D01*
X0238783Y0106284D01*
X0238921Y0106222D01*
X0239057Y0106156D01*
X0239191Y0106088D01*
X0239323Y0106015D01*
X0239453Y0105939D01*
X0239581Y0105860D01*
X0239707Y0105777D01*
X0239831Y0105691D01*
X0239952Y0105602D01*
X0240072Y0105509D01*
X0240188Y0105414D01*
X0240302Y0105315D01*
X0240413Y0105214D01*
X0240522Y0105109D01*
X0240628Y0105002D01*
X0240731Y0104892D01*
X0240831Y0104779D01*
X0240928Y0104664D01*
X0241022Y0104546D01*
X0241113Y0104426D01*
X0241201Y0104303D01*
X0241285Y0104178D01*
X0241366Y0104051D01*
X0241444Y0103922D01*
X0241518Y0103791D01*
X0241588Y0103658D01*
X0241656Y0103523D01*
X0241719Y0103386D01*
X0241779Y0103248D01*
X0241835Y0103108D01*
X0241888Y0102967D01*
X0241937Y0102825D01*
X0241982Y0102681D01*
X0242023Y0102536D01*
X0242061Y0102390D01*
X0242094Y0102243D01*
X0242124Y0102095D01*
X0242150Y0101947D01*
X0242171Y0101797D01*
X0242189Y0101648D01*
X0242203Y0101498D01*
X0242213Y0101347D01*
X0242219Y0101197D01*
X0242221Y0101046D01*
X0242219Y0100895D01*
X0242213Y0100745D01*
X0242203Y0100594D01*
X0242189Y0100444D01*
X0242171Y0100295D01*
X0242150Y0100145D01*
X0242124Y0099997D01*
X0242094Y0099849D01*
X0242061Y0099702D01*
X0242023Y0099556D01*
X0241982Y0099411D01*
X0241937Y0099267D01*
X0241888Y0099125D01*
X0241835Y0098984D01*
X0241779Y0098844D01*
X0241719Y0098706D01*
X0241656Y0098569D01*
X0241588Y0098434D01*
X0241518Y0098301D01*
X0241444Y0098170D01*
X0241366Y0098041D01*
X0241285Y0097914D01*
X0241201Y0097789D01*
X0241113Y0097666D01*
X0241022Y0097546D01*
X0240928Y0097428D01*
X0240831Y0097313D01*
X0240731Y0097200D01*
X0240628Y0097090D01*
X0240522Y0096983D01*
X0240413Y0096878D01*
X0240302Y0096777D01*
X0240188Y0096678D01*
X0240072Y0096583D01*
X0239952Y0096490D01*
X0239831Y0096401D01*
X0239707Y0096315D01*
X0239581Y0096232D01*
X0239453Y0096153D01*
X0239323Y0096077D01*
X0239191Y0096004D01*
X0239057Y0095936D01*
X0238921Y0095870D01*
X0238783Y0095808D01*
X0238644Y0095750D01*
X0238504Y0095696D01*
X0238362Y0095645D01*
X0238219Y0095598D01*
X0238074Y0095555D01*
X0237929Y0095516D01*
X0237782Y0095480D01*
X0237635Y0095449D01*
X0237487Y0095421D01*
X0237338Y0095397D01*
X0237189Y0095377D01*
X0237039Y0095361D01*
X0236889Y0095349D01*
X0236738Y0095341D01*
X0236587Y0095337D01*
X0236437Y0095337D01*
X0236286Y0095341D01*
X0236135Y0095349D01*
X0235985Y0095361D01*
X0235835Y0095377D01*
X0235686Y0095397D01*
X0235537Y0095421D01*
X0235389Y0095449D01*
X0235242Y0095480D01*
X0235095Y0095516D01*
X0234950Y0095555D01*
X0234805Y0095598D01*
X0234662Y0095645D01*
X0234520Y0095696D01*
X0234380Y0095750D01*
X0234241Y0095808D01*
X0234103Y0095870D01*
X0233967Y0095936D01*
X0233833Y0096004D01*
X0233701Y0096077D01*
X0233571Y0096153D01*
X0233443Y0096232D01*
X0233317Y0096315D01*
X0233193Y0096401D01*
X0233072Y0096490D01*
X0232952Y0096583D01*
X0232836Y0096678D01*
X0232722Y0096777D01*
X0232611Y0096878D01*
X0232502Y0096983D01*
X0232396Y0097090D01*
X0232293Y0097200D01*
X0232193Y0097313D01*
X0232096Y0097428D01*
X0232002Y0097546D01*
X0231911Y0097666D01*
X0231823Y0097789D01*
X0231739Y0097914D01*
X0231658Y0098041D01*
X0231580Y0098170D01*
X0231506Y0098301D01*
X0231436Y0098434D01*
X0231368Y0098569D01*
X0231305Y0098706D01*
X0231245Y0098844D01*
X0231189Y0098984D01*
X0231136Y0099125D01*
X0231087Y0099267D01*
X0231042Y0099411D01*
X0231001Y0099556D01*
X0230963Y0099702D01*
X0230930Y0099849D01*
X0230900Y0099997D01*
X0230874Y0100145D01*
X0230853Y0100295D01*
X0230835Y0100444D01*
X0230821Y0100594D01*
X0230811Y0100745D01*
X0230805Y0100895D01*
X0230803Y0101046D01*
M02*
