%
M48
M72
T01C0.03200
T02C0.04000
T03C0.04331
T04C0.04400
T05C0.12598
T06C0.13000
%
T01
X101118Y104156
X141118Y104156
X151118Y104156
X141118Y119156
X141118Y129156
X141118Y139156
X141118Y149156
X171118Y149156
X171118Y139156
X171118Y129156
X171118Y119156
X191118Y104156
X196118Y189156
X196118Y199156
X176118Y199156
X136118Y199156
T02
X86118Y194156
X86118Y184156
X101118Y139156
X101118Y129156
X101118Y119156
X126118Y119156
X86118Y89156
X191118Y119156
T03
X236512Y101046
X236512Y87266
X221079Y64156
X91157Y64156
T04
X241118Y154156
X241118Y164156
X241118Y174156
T05
X71866Y49904
X237220Y49904
X237220Y215259
X71866Y215259
T06
X310118Y164156
M30
